<svg xmlns="http://www.w3.org/2000/svg" viewBox="0 0 344.49 53.09"><defs><style>.cls-1{fill:#1f1f1f;stroke:#1f1f1f;stroke-miterlimit:10;stroke-width:2px;}.cls-2{fill:#f6f2eb;}</style></defs><g id="Layer_2" data-name="Layer 2"><g id="Layer_9" data-name="Layer 9"><rect class="cls-1" x="1" y="1" width="342.49" height="51.09"/><path class="cls-2" d="M19.89,28.64a14.25,14.25,0,0,1,.58-4.07A17.37,17.37,0,0,1,22,20.87a17,17,0,0,1,2.24-3.11,14.25,14.25,0,0,1,2.64-2.29h2.71a22.62,22.62,0,0,0-2.44,2,17.07,17.07,0,0,0-2.08,2.35,15.46,15.46,0,0,0-1.58,2.65,10.63,10.63,0,0,0-.9,2.87l-.37,2.2c-.05.29-.08.58-.1.86s0,.56,0,.84a10.1,10.1,0,0,0,.3,2.46,13.07,13.07,0,0,0,.83,2.3,12.61,12.61,0,0,0,1.21,2A11.18,11.18,0,0,0,26,37.62H23.49A9.58,9.58,0,0,1,22.07,36a11.64,11.64,0,0,1-1.13-2.1,13.74,13.74,0,0,1-1.05-5.24Z"/><path class="cls-2" d="M37.08,26.35l-2.64,2.73-.86,5.14H30.87L33.73,17h2.71l-1.38,8.29h.15l3.08-3.46L42.83,17h3.28l-7,7.45,4.22,9.77h-3Z"/><path class="cls-2" d="M51.31,34.51a5.9,5.9,0,0,1-2.22-.39A4.52,4.52,0,0,1,47.48,33a4.73,4.73,0,0,1-1-1.7,6.84,6.84,0,0,1-.35-2.24,9.94,9.94,0,0,1,.52-3.28,7.41,7.41,0,0,1,1.44-2.47,6.28,6.28,0,0,1,2.2-1.58A6.79,6.79,0,0,1,53,21.19a5.67,5.67,0,0,1,2.22.4,4.63,4.63,0,0,1,1.62,1.09,4.94,4.94,0,0,1,1,1.72,7.08,7.08,0,0,1,.34,2.22,9.61,9.61,0,0,1-.52,3.28,7.14,7.14,0,0,1-1.44,2.48A6.41,6.41,0,0,1,54.06,34,6.75,6.75,0,0,1,51.31,34.51Zm.18-2.1A3.36,3.36,0,0,0,54,31.47a4.75,4.75,0,0,0,1.21-2.63l.27-1.63c0-.23.06-.44.08-.64a3.46,3.46,0,0,0,0-.52A2.69,2.69,0,0,0,54.85,24a2.78,2.78,0,0,0-2-.68,3.34,3.34,0,0,0-2.49.95,4.65,4.65,0,0,0-1.21,2.63l-.27,1.62c0,.23-.06.45-.09.64s0,.37,0,.52a2.76,2.76,0,0,0,.73,2.09A2.82,2.82,0,0,0,51.49,32.41Z"/><path class="cls-2" d="M60.69,34.22l2.12-12.73h2.64l-.52,3h.12a7.72,7.72,0,0,1,1.68-2.42,3.57,3.57,0,0,1,2.52-.89,3.17,3.17,0,0,1,2.57,1,3.89,3.89,0,0,1,.88,2.65c0,.29,0,.6,0,.92a9.39,9.39,0,0,1-.16,1.12l-1.21,7.31H68.65l1.24-7.4c0-.23.06-.48.1-.73a6.21,6.21,0,0,0,.05-.7,2.39,2.39,0,0,0-.44-1.46,1.63,1.63,0,0,0-1.41-.59,2.5,2.5,0,0,0-1.32.34,4.29,4.29,0,0,0-1.08.94,9.82,9.82,0,0,0-.7,1,5,5,0,0,0-.63,1.75l-1.13,6.81Z"/><path class="cls-2" d="M81.33,23.29,82.54,16H85l-1.21,7.33Z"/><path class="cls-2" d="M90.29,34.22l2.12-12.73h2.64l-.52,3h.12a7.72,7.72,0,0,1,1.68-2.42,3.57,3.57,0,0,1,2.51-.89,3.18,3.18,0,0,1,2.58,1,3.89,3.89,0,0,1,.88,2.65c0,.29,0,.6,0,.92a9.39,9.39,0,0,1-.16,1.12l-1.21,7.31H98.25l1.24-7.4c0-.23.06-.48.09-.73a4.51,4.51,0,0,0,0-.7,2.38,2.38,0,0,0-.43-1.46,1.65,1.65,0,0,0-1.42-.59,2.55,2.55,0,0,0-1.32.34,4.44,4.44,0,0,0-1.07.94,9.82,9.82,0,0,0-.7,1,4.6,4.6,0,0,0-.63,1.75l-1.14,6.81Z"/><path class="cls-2" d="M110.93,34.51a2.37,2.37,0,0,1-1.78-.61,2.26,2.26,0,0,1-.59-1.61,4.6,4.6,0,0,1,0-.64c0-.21.07-.47.12-.76l1.41-7.26h-4.29l.34-2.14h7L111.1,32.17l.5.2,4.26-3.93,1.51,1.36-1.93,1.92c-.51.51-1,1-1.38,1.3a11,11,0,0,1-1.13.86,3.94,3.94,0,0,1-1,.48A3.37,3.37,0,0,1,110.93,34.51Zm1.43-15.34a1.87,1.87,0,0,1-1.31-.36,1.19,1.19,0,0,1-.37-.86,2.47,2.47,0,0,1,0-.35,3.67,3.67,0,0,1,.07-.42,1.77,1.77,0,0,1,.56-1.05,2,2,0,0,1,1.37-.39,1.84,1.84,0,0,1,1.3.36,1.15,1.15,0,0,1,.37.86c0,.1,0,.21,0,.35a3.83,3.83,0,0,1-.08.42,1.73,1.73,0,0,1-.55,1.05A2,2,0,0,1,112.36,19.17Z"/><path class="cls-2" d="M125.46,34.51a4.72,4.72,0,0,1-3.75-1.45,5.71,5.71,0,0,1-1.28-3.93,9.92,9.92,0,0,1,.49-3.19,7.49,7.49,0,0,1,1.39-2.52,6.66,6.66,0,0,1,2.15-1.64,6.4,6.4,0,0,1,2.75-.59,6.22,6.22,0,0,1,1.82.24,4.2,4.2,0,0,1,1.36.66,3.82,3.82,0,0,1,.93,1,4.82,4.82,0,0,1,.53,1.23l-2.2,1a2.69,2.69,0,0,0-.94-1.47,3,3,0,0,0-1.75-.43,3.21,3.21,0,0,0-2.28.87,4.6,4.6,0,0,0-1.22,2.65l-.25,1.48c0,.23,0,.44-.07.62a4.89,4.89,0,0,0,0,.54,2.46,2.46,0,0,0,2.74,2.77,3.63,3.63,0,0,0,.8-.09,2.63,2.63,0,0,0,.87-.39,8,8,0,0,0,1-.89,13.45,13.45,0,0,0,1.28-1.57l1.76,1.09a18.72,18.72,0,0,1-1.26,1.74A8,8,0,0,1,129,33.48a5.27,5.27,0,0,1-1.58.77A6.37,6.37,0,0,1,125.46,34.51Z"/><path class="cls-2" d="M137.72,16h2.64l-1.43,8.54h.12a7.4,7.4,0,0,1,1.68-2.42,3.57,3.57,0,0,1,2.51-.89,3.19,3.19,0,0,1,2.58,1,3.94,3.94,0,0,1,.87,2.65c0,.29,0,.6,0,.92s-.08.7-.16,1.12l-1.21,7.31h-2.64l1.23-7.4c0-.23.07-.48.1-.73a6.21,6.21,0,0,0,.05-.7,2.38,2.38,0,0,0-.43-1.46,1.65,1.65,0,0,0-1.42-.59,2.55,2.55,0,0,0-1.32.34,4.26,4.26,0,0,0-1.07.94,8.47,8.47,0,0,0-.7,1,4.6,4.6,0,0,0-.63,1.75l-1.14,6.81h-2.64Z"/><path class="cls-2" d="M155.33,34.51a2.37,2.37,0,0,1-1.78-.61,2.26,2.26,0,0,1-.59-1.61,3.45,3.45,0,0,1,0-.64c0-.21.07-.47.12-.76l1.41-7.26h-4.29l.34-2.14h7L155.5,32.17l.49.2,4.27-3.93,1.5,1.36-1.92,1.92c-.51.51-1,1-1.38,1.3a10,10,0,0,1-1.14.86,3.74,3.74,0,0,1-1,.48A3.37,3.37,0,0,1,155.33,34.51Zm1.43-15.34a1.87,1.87,0,0,1-1.31-.36,1.15,1.15,0,0,1-.37-.86c0-.1,0-.21,0-.35s.05-.27.08-.42a1.81,1.81,0,0,1,.55-1.05,2,2,0,0,1,1.37-.39,1.87,1.87,0,0,1,1.31.36,1.15,1.15,0,0,1,.37.86c0,.1,0,.21,0,.35s0,.27-.08.42a1.78,1.78,0,0,1-.55,1.05A2,2,0,0,1,156.76,19.17Z"/><path class="cls-2" d="M166.2,34.49a2.06,2.06,0,0,1-1.73-.71,2.87,2.87,0,0,1-.56-1.88c0-.25,0-.55.05-.89a10,10,0,0,1,.15-1.06l1.4-8.46h2.22L166.3,29.8c0,.23-.06.47-.1.7a5.42,5.42,0,0,0,0,.66c0,.79.33,1.18,1,1.18a1.24,1.24,0,0,0,.79-.27,3,3,0,0,0,.64-.72,3.57,3.57,0,0,0,.45-1,9,9,0,0,0,.24-1l1.31-7.89h2.15l-1.36,8.36c0,.25-.06.48-.09.72s0,.43,0,.61c0,.79.31,1.19.93,1.19a1.5,1.5,0,0,0,1.13-.63,5.73,5.73,0,0,0,.91-1.66,13.46,13.46,0,0,0,.61-2.3,14.27,14.27,0,0,0,.24-2.62,12.9,12.9,0,0,0-.12-1.76,5.76,5.76,0,0,0-.4-1.47l2-.59a6.18,6.18,0,0,1,.54,1.64,11,11,0,0,1,.2,2.16,15.77,15.77,0,0,1-.53,4.15,9.52,9.52,0,0,1-1.49,3.22,4.37,4.37,0,0,1-3.58,2,2.14,2.14,0,0,1-1.73-.67,2.7,2.7,0,0,1-.49-2h-.12a5.17,5.17,0,0,1-1.25,1.95A2.68,2.68,0,0,1,166.2,34.49Z"/><path class="cls-2" d="M187,34.22l.5-3h-.1a7.88,7.88,0,0,1-1.73,2.39,3.8,3.8,0,0,1-2.66.91,3.43,3.43,0,0,1-2.93-1.28,6.08,6.08,0,0,1-.95-3.65,13.09,13.09,0,0,1,.36-3,9,9,0,0,1,1.1-2.68,6.24,6.24,0,0,1,1.86-1.93,4.73,4.73,0,0,1,2.65-.74,3.66,3.66,0,0,1,2.32.67,3.46,3.46,0,0,1,1.21,1.92h.12l.37-2.29h2.64l-2.12,12.73Zm-2.93-1.85A3.4,3.4,0,0,0,186.7,31a6,6,0,0,0,.79-1.16A5,5,0,0,0,188,28.3l.42-2.54A1.87,1.87,0,0,0,188,24a2.84,2.84,0,0,0-2-.65,3.26,3.26,0,0,0-2.56,1,5,5,0,0,0-1.17,2.55l-.29,1.75a3.42,3.42,0,0,0-.08.51c0,.19,0,.37,0,.55a3.19,3.19,0,0,0,.54,1.94A2,2,0,0,0,184.09,32.37Z"/><path class="cls-2" d="M203.35,24.42a14.44,14.44,0,0,1-.58,4.09,17.61,17.61,0,0,1-1.55,3.7,17.2,17.2,0,0,1-2.25,3.1,14.06,14.06,0,0,1-2.65,2.31h-2.69a20.44,20.44,0,0,0,2.42-2,17.07,17.07,0,0,0,2.08-2.35,15.2,15.2,0,0,0,1.58-2.65,10.7,10.7,0,0,0,.9-2.88l.37-2.17c.05-.29.08-.58.1-.86s0-.56,0-.84a10.25,10.25,0,0,0-.31-2.47,12.48,12.48,0,0,0-.83-2.29,11.33,11.33,0,0,0-1.22-2,13.13,13.13,0,0,0-1.47-1.64h2.47a9.5,9.5,0,0,1,1.42,1.63,11.45,11.45,0,0,1,1.13,2.08,14.09,14.09,0,0,1,.77,2.48A13.18,13.18,0,0,1,203.35,24.42Z"/><path class="cls-2" d="M223.53,30.37l.34-2.15h11.67l-.35,2.15Zm.86-5.23.34-2.15H236.4l-.34,2.15Z"/><path class="cls-2" d="M262.47,26.62H256.7l-1.26,7.6h-2.71L255.59,17h2.71l-1.2,7.35h5.74L264.05,17h2.71L263.9,34.22h-2.71Z"/><path class="cls-2" d="M273.65,34.51a5.2,5.2,0,0,1-3.94-1.38,5.68,5.68,0,0,1-1.32-4.07,9.24,9.24,0,0,1,.53-3.19,7.47,7.47,0,0,1,1.48-2.48,6.73,6.73,0,0,1,2.27-1.62,7.28,7.28,0,0,1,2.92-.58,7.05,7.05,0,0,1,1.78.22,4.53,4.53,0,0,1,1.42.66,3,3,0,0,1,1.29,2.58,3.68,3.68,0,0,1-.31,1.45,3.08,3.08,0,0,1-1.26,1.36,9.2,9.2,0,0,1-2.74,1,24.37,24.37,0,0,1-4.69.52,1.78,1.78,0,0,0,0,.31v.18a4.6,4.6,0,0,0,.13,1.13,2.28,2.28,0,0,0,.46.92,2,2,0,0,0,.87.62,3.85,3.85,0,0,0,1.42.22,3.9,3.9,0,0,0,1.12-.14,3.35,3.35,0,0,0,1-.43,5.11,5.11,0,0,0,.91-.77,11.38,11.38,0,0,0,1-1.2L279.64,31a12.28,12.28,0,0,1-1.11,1.47,6.94,6.94,0,0,1-1.32,1.11,6.6,6.6,0,0,1-1.6.71A6.69,6.69,0,0,1,273.65,34.51Zm1.7-11.32a3.77,3.77,0,0,0-2.67,1,4.94,4.94,0,0,0-1.35,2.94l-.05.27a20.38,20.38,0,0,0,3.29-.33,7.47,7.47,0,0,0,1.88-.62,1.81,1.81,0,0,0,.83-.78,1.91,1.91,0,0,0,.19-.81,1.53,1.53,0,0,0-.48-1.17A2.33,2.33,0,0,0,275.35,23.19Z"/><path class="cls-2" d="M287.93,34.51a2.29,2.29,0,0,1-1.79-.61,2.42,2.42,0,0,1-.56-1.66,7.19,7.19,0,0,1,.15-1.28l2.47-12.85H284l.37-2.15h6.89l-3.14,16.23.52.18,4.39-4,1.48,1.36-2.12,2.07c-.53.51-1,.94-1.41,1.29a8.3,8.3,0,0,1-1.13.82,4.3,4.3,0,0,1-1,.45A3.31,3.31,0,0,1,287.93,34.51Z"/><path class="cls-2" d="M302.72,34.51a2.28,2.28,0,0,1-1.78-.61,2.42,2.42,0,0,1-.56-1.66,7.19,7.19,0,0,1,.15-1.28L303,18.11h-4.2l.37-2.15h6.88l-3.13,16.23.52.18,4.39-4,1.48,1.36-2.12,2.07q-.79.76-1.41,1.29a9,9,0,0,1-1.13.82,4.72,4.72,0,0,1-1,.45A3.33,3.33,0,0,1,302.72,34.51Z"/><path class="cls-2" d="M317.7,34.51a5.87,5.87,0,0,1-2.22-.39,4.65,4.65,0,0,1-1.62-1.1,4.87,4.87,0,0,1-1-1.7,6.84,6.84,0,0,1-.34-2.24A9.69,9.69,0,0,1,313,25.8a7.09,7.09,0,0,1,1.44-2.47,6.33,6.33,0,0,1,2.19-1.58,6.83,6.83,0,0,1,2.75-.56,5.67,5.67,0,0,1,2.22.4,4.54,4.54,0,0,1,1.62,1.09,4.65,4.65,0,0,1,1,1.72,6.8,6.8,0,0,1,.34,2.22,9.86,9.86,0,0,1-.51,3.28,7.31,7.31,0,0,1-1.45,2.48A6.37,6.37,0,0,1,320.45,34,6.82,6.82,0,0,1,317.7,34.51Zm.17-2.1a3.33,3.33,0,0,0,2.49-.94,4.68,4.68,0,0,0,1.21-2.63l.27-1.63c0-.23.06-.44.09-.64s0-.37,0-.52a2.72,2.72,0,0,0-.73-2.08,2.82,2.82,0,0,0-2-.68,3.35,3.35,0,0,0-2.49.95,4.65,4.65,0,0,0-1.21,2.63l-.27,1.62c0,.23-.06.45-.09.64s0,.37,0,.52a2.76,2.76,0,0,0,.72,2.09A2.82,2.82,0,0,0,317.87,32.41Z"/></g></g></svg>