<svg xmlns="http://www.w3.org/2000/svg" viewBox="0 0 66.04 104.44"><defs><style>.cls-1{fill:none;stroke:#1f1f1f;stroke-miterlimit:10;stroke-width:4px;}</style></defs><g id="Layer_2" data-name="Layer 2"><g id="Layer_11" data-name="Layer 11"><path class="cls-1" d="M1.5,51.7h63a0,0,0,0,1,0,0V73.9a29,29,0,0,1-29,29h-5a29,29,0,0,1-29-29V51.7a0,0,0,0,1,0,0Z"/><path class="cls-1" d="M15,10.79c0,5.39,5.18,5.39,5.18,10.79S15,27,15,32.37s5.18,5.4,5.18,10.8"/><path class="cls-1" d="M35.61,0c0,5.4-5.18,5.4-5.18,10.79s5.18,5.39,5.18,10.79S30.43,27,30.43,32.37s5.18,5.4,5.18,10.8"/><path class="cls-1" d="M47.54,15.15c1.52,1.79,3.54,3.06,3.54,6.43C51.08,27,45.9,27,45.9,32.37s5.18,5.4,5.18,10.8"/></g></g></svg>