<svg xmlns="http://www.w3.org/2000/svg" viewBox="0 0 72.32 102.93"><defs><style>.cls-1,.cls-2{fill:none;stroke:#1f1f1f;stroke-width:3.5px;}.cls-1{stroke-linejoin:round;}.cls-2{stroke-miterlimit:10;}</style></defs><g id="Layer_2" data-name="Layer 2"><g id="Layer_9" data-name="Layer 9"><path class="cls-1" d="M26.27,99.44a27.29,27.29,0,0,1-3.1-.82C5.53,92.8-3.08,70.81,4,49.5s27-33.85,44.67-28a26.77,26.77,0,0,1,3,1.18c-14-2.59-30,10.43-36.61,30.5S13.45,93.17,26.27,99.44Z"/><path class="cls-2" d="M67.91,70.6c-7,21.31-24.57,34.67-39.18,29.85a19,19,0,0,1-2.46-1C13.45,93.17,8.38,73.22,15,53.15S37.56,20.06,51.6,22.65a19.48,19.48,0,0,1,2.58.65C68.79,28.12,74.94,49.3,67.91,70.6Z"/><path class="cls-2" d="M51.6,22.65C51.91,20.56,54,7.92,64,3.09a18.35,18.35,0,0,1,5.27-1.61"/></g></g></svg>