<svg xmlns="http://www.w3.org/2000/svg" viewBox="0 0 144.33 175.88"><defs><style>.cls-1{fill:#1f1f1f;stroke:#1f1f1f;stroke-miterlimit:10;stroke-width:2px;}</style></defs><g id="Layer_2" data-name="Layer 2"><g id="Layer_1-2" data-name="Layer 1"><path class="cls-1" d="M44.67,121.78a111.69,111.69,0,0,1-13.78-.94,152.07,152.07,0,0,1-22.61-4.61l-1.5-.45.29-1.55A153.22,153.22,0,0,1,13.39,92c5.86-15.88,13-26.47,21.26-31.49h0C53.66,49,77.53,49.18,95.47,61l.69.46.09.82c2.23,21.37-8.61,42.64-27.61,54.19C62.82,120,54.79,121.78,44.67,121.78Zm-33.84-8.47c7.45,2,39.89,10,56,.16,17.61-10.7,27.75-30.25,26-50-16.74-10.63-38.77-10.63-56.38.08C20.37,73.33,12.47,105.78,10.83,113.31Z"/><rect class="cls-1" x="-2.55" y="72.31" width="155.94" height="3.5" transform="translate(-27.5 49.97) rotate(-31.3)"/><path class="cls-1" d="M40.81,75.38,39.09,64.73C36.25,47.24,34.38,45.38,16.9,42.54L6.25,40.81,16.9,39.09c17.48-2.84,19.35-4.71,22.19-22.19L40.81,6.25,42.54,16.9c2.84,17.48,4.7,19.35,22.19,22.19l10.65,1.72L64.73,42.54c-17.49,2.84-19.35,4.7-22.19,22.19ZM26.15,40.81c8.9,2.3,12.36,5.77,14.66,14.67,2.31-8.9,5.77-12.37,14.67-14.67-8.9-2.3-12.36-5.76-14.67-14.66C38.51,35.05,35.05,38.51,26.15,40.81Z"/><path class="cls-1" d="M67,169.63,65.29,159c-2.84-17.49-4.71-19.35-22.19-22.19l-10.65-1.73,10.65-1.72c17.48-2.84,19.35-4.71,22.19-22.19L67,100.49l1.73,10.66c2.84,17.48,4.7,19.35,22.19,22.19l10.65,1.72-10.65,1.73c-17.49,2.84-19.35,4.7-22.19,22.19ZM52.35,135.06c8.9,2.3,12.36,5.77,14.66,14.67,2.3-8.9,5.77-12.37,14.67-14.67-8.9-2.3-12.37-5.76-14.67-14.66C64.71,129.3,61.25,132.76,52.35,135.06Z"/></g></g></svg>