<svg width="29" height="34" viewBox="0 0 29 34" fill="none" xmlns="http://www.w3.org/2000/svg">
<path fill-rule="evenodd" clip-rule="evenodd" d="M21.417 10.4949C19.4593 8.91164 17.0177 8.04793 14.5 8.04794L14.4999 5.04794C17.7044 5.04793 20.8118 6.1472 23.3034 8.1622C25.7951 10.1772 27.52 12.986 28.1903 16.1195C28.8606 19.2531 28.4356 22.5217 26.9863 25.3797C25.5371 28.2376 23.1512 30.512 20.2272 31.8228C17.3032 33.1337 14.018 33.4019 10.9201 32.5825C7.82218 31.7631 5.09914 29.9057 3.20563 27.3206C1.31211 24.7354 0.362745 21.579 0.516037 18.3782C0.669329 15.1774 1.916 12.1261 4.0479 9.73378L6.28764 11.7297C4.61258 13.6094 3.63305 16.0068 3.5126 18.5217C3.39216 21.0366 4.13809 23.5167 5.62585 25.5479C7.11361 27.5791 9.25314 29.0384 11.6872 29.6822C14.1213 30.326 16.7025 30.1154 19 29.0854C21.2974 28.0554 23.172 26.2684 24.3107 24.0229C25.4494 21.7773 25.7833 19.2091 25.2567 16.747C24.73 14.285 23.3747 12.0781 21.417 10.4949Z" fill="#1F1F1F"/>
<path fill-rule="evenodd" clip-rule="evenodd" d="M10.5227 6.17314L17.4935 0.474854L19.3922 2.79755L12.4214 8.49584L10.5227 6.17314Z" fill="#1F1F1F"/>
<path fill-rule="evenodd" clip-rule="evenodd" d="M16.1569 13.6L10.481 6.40661L12.8362 4.5483L18.5121 11.7417L16.1569 13.6Z" fill="#1F1F1F"/>
</svg>
