<svg xmlns="http://www.w3.org/2000/svg" viewBox="0 0 280.93 156.93"><defs><style>.cls-1{fill:none;}.cls-1,.cls-2{stroke:#1f1f1f;stroke-miterlimit:10;stroke-width:3px;}.cls-2{fill:#1f1f1f;}</style></defs><g id="Layer_2" data-name="Layer 2"><g id="Layer_1-2" data-name="Layer 1"><path class="cls-1" d="M94.17,112.59c0,2-2.91,3.83-7.89,5.37-.91.28-1.88.55-2.92.81-1.76.43-3.71.83-5.82,1.2a155.66,155.66,0,0,1-18,1.92q-2.91.17-6,.24l-.73,0c-1.64,0-3.3,0-5,0q-4.62,0-9-.18c-3.55-.14-7-.37-10.16-.68l-.27,0c-3.38-.32-6.54-.73-9.42-1.2-1.78-.29-3.45-.61-5-1s-3.23-.78-4.61-1.2c-5-1.55-7.88-3.39-7.88-5.38,0-3.55,9.27-6.65,23.08-8.31A198.34,198.34,0,0,1,47.84,103a198.22,198.22,0,0,1,23.25,1.3C84.9,105.94,94.17,109,94.17,112.59Z"/><path class="cls-1" d="M94.18,145.81c0,5.31-20.75,9.62-46.34,9.62S1.5,151.12,1.5,145.81"/><polyline class="cls-1" points="1.5 145.81 1.5 127.62 1.5 125.06 1.5 112.59"/><polyline class="cls-1" points="94.17 145.81 94.17 127.62 94.17 125.06 94.17 112.59"/><path class="cls-1" d="M279.43,18.7c0,3.14-4,6.07-11.12,8.59-14.33,5.14-41.1,8.6-71.75,8.6s-57.42-3.46-71.77-8.6c-7.06-2.52-11.11-5.45-11.11-8.59,0-9.5,37.1-17.2,82.88-17.2S279.43,9.2,279.43,18.7Z"/><path class="cls-1" d="M268.31,27.29c-14.33,5.14-41.1,8.6-71.75,8.6s-57.42-3.46-71.77-8.6c14.35-5.13,41.11-8.59,71.77-8.59S254,22.16,268.31,27.29Z"/><path class="cls-1" d="M279.43,18.7V84.53a70.89,70.89,0,0,1-70.89,70.9h-24a70.9,70.9,0,0,1-70.9-70.9V18.7"/><path class="cls-2" d="M20.59,117.77A20.48,20.48,0,0,1,19,120.12c-1.78-.29-3.45-.61-5-1A18.55,18.55,0,0,1,15.8,115c2.12-3.68,4.92-6,6.24-5.28S22.71,114.09,20.59,117.77Z"/><path class="cls-2" d="M83.36,118.77c-1.76.43-3.71.83-5.82,1.2a21.22,21.22,0,0,1-2.35-.87c-3.89-1.71-6.54-4.23-5.93-5.63s4.27-1.15,8.16.57C80.57,115.42,82.92,117.35,83.36,118.77Z"/><path class="cls-2" d="M38.85,122c-3.55-.14-7-.37-10.16-.68l-.23-.13c-2.62-1.56-4.19-3.39-3.71-4.49s2.79-1.18,5.61-.37a19.85,19.85,0,0,1,2.55.93C36.07,118.67,38.42,120.6,38.85,122Z"/><path class="cls-2" d="M59.52,121.89q-2.91.17-6,.24c1.71-3.87,4.22-6.52,5.62-5.9C60.27,116.71,60.35,119,59.52,121.89Z"/><line class="cls-1" x1="47.03" y1="96.23" x2="30.36" y2="116.35"/><line class="cls-1" x1="28.46" y1="121.21" x2="28.42" y2="121.32"/><line class="cls-1" x1="58.17" y1="97.78" x2="68.14" y2="121.02"/><path class="cls-2" d="M48,117.43c-.49.13-1,.25-1.54.35-4.18.78-7.79.2-8.07-1.3-.24-1.23,1.86-2.7,4.93-3.63.67-.19,1.38-.37,2.12-.51,4.18-.79,7.79-.21,8.07,1.29C53.76,115,51.39,116.52,48,117.43Z"/><line class="cls-1" x1="52.89" y1="122.2" x2="48" y2="117.43"/><line class="cls-1" x1="43.32" y1="112.85" x2="30.99" y2="100.63"/><line class="cls-1" x1="7.78" y1="117.43" x2="10.09" y2="95.56"/><line class="cls-1" x1="89.73" y1="116.7" x2="84.31" y2="96.69"/></g></g></svg>