<svg xmlns="http://www.w3.org/2000/svg" viewBox="0 0 82.07 313.36"><defs><style>.cls-1,.cls-2{fill:none;}.cls-1,.cls-2,.cls-3{stroke:#1f1f1f;stroke-width:3px;}.cls-1{stroke-linecap:round;stroke-linejoin:round;}.cls-2,.cls-3{stroke-miterlimit:10;}.cls-3{fill:#1f1f1f;}</style></defs><g id="Layer_2" data-name="Layer 2"><g id="Layer_1-2" data-name="Layer 1"><line class="cls-1" x1="1.5" y1="167.08" x2="1.5" y2="157.99"/><line class="cls-1" x1="1.5" y1="303.66" x2="1.5" y2="167.08"/><path class="cls-1" d="M1.5,158c0-42.89,23.61-55.78,27.72-100.57"/><line class="cls-1" x1="80.57" y1="167.08" x2="80.57" y2="157.99"/><line class="cls-1" x1="80.57" y1="303.66" x2="80.57" y2="167.08"/><path class="cls-1" d="M80.57,158c0-42.89-24.43-55.78-28.54-100.57"/><path class="cls-1" d="M80.57,303.66c0,1.5-1.93,2.89-5.3,4.1-6.84,2.45-19.61,4.1-34.24,4.1s-27.39-1.65-34.23-4.1c-3.37-1.21-5.3-2.6-5.3-4.1"/><path class="cls-1" d="M29.07,57.42c-1.79-4.25-1.84-31.83-.13-37.24L52.09,20c1.78,4.8,1.76,33.16-.06,37.47"/><rect class="cls-2" x="27.16" y="1.5" width="26.78" height="11.86" rx="4.38"/><line class="cls-2" x1="32.72" y1="13.36" x2="32.72" y2="21.39"/><path class="cls-2" d="M32.72,21.39s.49,5.54,7.83,5.54,7.83-5.54,7.83-5.54v-8"/><path class="cls-2" d="M79.4,158c0,1.46-1.87,2.81-5.15,4-6.63,2.38-19,4-33.22,4s-26.58-1.6-33.22-4c-3.27-1.17-5.14-2.52-5.14-4,0-4.39,17.17-8,38.36-8S79.4,153.6,79.4,158Z"/><path class="cls-2" d="M79.4,303.66c0,1.45-1.87,2.81-5.15,4-6.63,2.38-19,4-33.22,4s-26.58-1.6-33.22-4c-3.27-1.17-5.14-2.53-5.14-4,0-4.4,17.17-8,38.36-8S79.4,299.26,79.4,303.66Z"/><circle class="cls-3" cx="60.12" cy="264.41" r="0.99"/><circle class="cls-3" cx="29.43" cy="229.37" r="0.99"/><circle class="cls-3" cx="8.56" cy="247.42" r="0.99"/><circle class="cls-3" cx="8.56" cy="196.08" r="0.99"/><circle class="cls-3" cx="43.58" cy="183.91" r="0.99"/><circle class="cls-3" cx="34.15" cy="206.39" r="0.99"/><circle class="cls-3" cx="71.27" cy="199.02" r="0.99"/><circle class="cls-3" cx="14.15" cy="172.82" r="0.99"/><circle class="cls-3" cx="69.29" cy="176.15" r="0.99"/><circle class="cls-3" cx="43.58" cy="157.99" r="0.99"/><circle class="cls-3" cx="58.14" cy="222.55" r="0.99"/><circle class="cls-3" cx="73.77" cy="239.53" r="0.99"/><circle class="cls-3" cx="47.65" cy="246.43" r="0.99"/><circle class="cls-3" cx="23.58" cy="264.41" r="0.99"/><circle class="cls-3" cx="40.9" cy="279.57" r="0.99"/><circle class="cls-3" cx="17.36" cy="290.11" r="0.99"/><circle class="cls-3" cx="40.9" cy="303.66" r="0.99"/><circle class="cls-3" cx="66.45" cy="286.69" r="0.99"/><path class="cls-2" d="M53.94,7.43H65.31L69.39,35.8s.53,15.84-15.45,15.84"/><path class="cls-2" d="M53.41,36.93h2.33a6.36,6.36,0,0,1,5.88,3.77.93.93,0,0,0,.05.1c1.55,3.75,6.56,16.62,0,16.62-4.1,0-3.73-11.58-3.73-11.58"/><path class="cls-2" d="M27.16,7.64H15.79L11.71,36s-.53,15.84,15.45,15.84"/><path class="cls-2" d="M27.69,37.14H25.36a6.35,6.35,0,0,0-5.88,3.77.42.42,0,0,0,0,.1c-1.55,3.74-6.56,16.62,0,16.62,4.09,0,3.72-11.59,3.72-11.59"/></g></g></svg>