<svg width="364" height="143" viewBox="0 0 364 143" fill="none" xmlns="http://www.w3.org/2000/svg">
<g clip-path="url(#clip0_67_91)">
<path d="M151.71 17.09C151.71 19.93 148.04 22.59 141.63 24.88C128.63 29.53 104.38 32.66 76.63 32.66C48.88 32.66 24.63 29.53 11.63 24.88C5.17 22.59 1.5 19.93 1.5 17.09C1.5 8.48 35.12 1.5 76.6 1.5C118.08 1.5 151.71 8.48 151.71 17.09Z" stroke="#1F1F1F" stroke-width="3" stroke-miterlimit="10"/>
<path d="M141.63 24.8801C128.63 29.5301 104.38 32.6601 76.63 32.6601C48.88 32.6601 24.63 29.5301 11.63 24.8801C24.63 20.2201 48.88 17.0901 76.63 17.0901C104.38 17.0901 128.64 20.2201 141.63 24.8801Z" fill="#1F1F1F" stroke="#1F1F1F" stroke-width="3" stroke-miterlimit="10"/>
<path d="M151.7 17.0801V76.7401C151.703 85.1779 150.043 93.5335 146.816 101.33C143.589 109.126 138.857 116.21 132.892 122.178C126.926 128.145 119.843 132.879 112.048 136.108C104.253 139.338 95.8978 141 87.46 141H65.75C57.3114 141.001 48.9551 139.34 41.1587 136.111C33.3623 132.882 26.2785 128.149 20.3119 122.181C14.3454 116.214 9.61301 109.129 6.3852 101.332C3.15739 93.5352 1.49738 85.1787 1.5 76.7401V17.0801" stroke="#1F1F1F" stroke-width="3" stroke-miterlimit="10"/>
<path d="M345.42 76.4301H302.8V140.99H345.42V76.4301Z" stroke="#1F1F1F" stroke-width="3" stroke-miterlimit="10"/>
<path d="M324.11 1.5V76.43" stroke="#1F1F1F" stroke-width="3" stroke-miterlimit="10"/>
<path d="M345.42 76.43C345.42 76.43 359.55 18.34 360.76 13.13C361.41 10.35 363.34 5.32 359.76 1.5" stroke="#1F1F1F" stroke-width="3" stroke-miterlimit="10"/>
<path d="M337.67 76.78C337.67 76.78 348.47 18 349.39 12.7C349.973 8.77087 349.385 4.75703 347.7 1.16003" stroke="#1F1F1F" stroke-width="3" stroke-miterlimit="10"/>
<path d="M330.55 77.66C330.55 77.66 337.06 18.22 337.55 12.9C337.912 9.03147 337.382 5.13143 336 1.5" stroke="#1F1F1F" stroke-width="3" stroke-miterlimit="10"/>
<path d="M302.8 76.6101C302.8 76.6101 288.67 18.5101 287.46 13.3001C286.81 10.5301 284.88 5.49005 288.46 1.68005" stroke="#1F1F1F" stroke-width="3" stroke-miterlimit="10"/>
<path d="M310.55 77C310.55 77 299.75 18.2 298.83 12.93C298.242 8.99759 298.83 4.97911 300.52 1.38" stroke="#1F1F1F" stroke-width="3" stroke-miterlimit="10"/>
<path d="M317.67 77.8301C317.67 77.8301 311.16 18.3901 310.67 13.0701C310.308 9.20479 310.838 5.30803 312.22 1.68005" stroke="#1F1F1F" stroke-width="3" stroke-miterlimit="10"/>
<path d="M265.37 90.0701C265.37 92.0701 262.46 93.9001 257.47 95.4301C249.16 98.0001 235 99.6801 219 99.6801C203 99.6801 188.91 98.0001 180.59 95.4401C175.59 93.9001 172.7 92.0601 172.7 90.0701C172.7 86.5101 181.98 83.4101 195.79 81.7601C211.238 80.0268 226.832 80.0268 242.28 81.7601C256.09 83.4101 265.37 86.5101 265.37 90.0701Z" stroke="#1F1F1F" stroke-width="3" stroke-miterlimit="10"/>
<path d="M265.37 131.38C265.37 136.69 244.62 140.99 219.03 140.99C193.44 140.99 172.69 136.69 172.69 131.38" stroke="#1F1F1F" stroke-width="3" stroke-miterlimit="10"/>
<path d="M172.7 131.37V105.1V102.54V90.0701" stroke="#1F1F1F" stroke-width="3" stroke-miterlimit="10"/>
<path d="M265.37 131.37V105.1V102.54V90.0701" stroke="#1F1F1F" stroke-width="3" stroke-miterlimit="10"/>
<path d="M243.61 83L257.47 95.4701C249.16 98.0001 235 99.68 219 99.68C203 99.68 188.91 98.0001 180.59 95.4401L194.45 83L195.79 81.8001L219.03 60.8L242.28 81.8001L243.61 83Z" fill="#1F1F1F" stroke="#1F1F1F" stroke-width="3" stroke-miterlimit="10"/>
<path d="M222.19 63.2999C223.013 63.2999 223.68 62.6328 223.68 61.8099C223.68 60.9871 223.013 60.3199 222.19 60.3199C221.367 60.3199 220.7 60.987 220.7 61.8099C220.7 62.6329 221.367 63.2999 222.19 63.2999Z" fill="#EEEEEE" stroke="#EEEEEE"/>
<path d="M206.51 90.1C207.333 90.1 208 89.4329 208 88.61C208 87.7871 207.333 87.12 206.51 87.12C205.687 87.12 205.02 87.7871 205.02 88.61C205.02 89.4329 205.687 90.1 206.51 90.1Z" fill="#EEEEEE" stroke="#EEEEEE"/>
<path d="M220.02 88.12C220.843 88.12 221.51 87.4529 221.51 86.63C221.51 85.8071 220.843 85.14 220.02 85.14C219.197 85.14 218.53 85.8071 218.53 86.63C218.53 87.4529 219.197 88.12 220.02 88.12Z" fill="#EEEEEE" stroke="#EEEEEE"/>
<path d="M212.65 65.84C213.473 65.84 214.14 65.1729 214.14 64.35C214.14 63.5271 213.473 62.86 212.65 62.86C211.827 62.86 211.16 63.5271 211.16 64.35C211.16 65.1729 211.827 65.84 212.65 65.84Z" fill="#EEEEEE" stroke="#EEEEEE"/>
<path d="M228.34 68.38C229.163 68.38 229.83 67.7129 229.83 66.89C229.83 66.0671 229.163 65.4 228.34 65.4C227.517 65.4 226.85 66.0671 226.85 66.89C226.85 67.7129 227.517 68.38 228.34 68.38Z" fill="#EEEEEE" stroke="#EEEEEE"/>
<path d="M221.2 74.1701C222.023 74.1701 222.69 73.503 222.69 72.6801C222.69 71.8572 222.023 71.1901 221.2 71.1901C220.377 71.1901 219.71 71.8572 219.71 72.6801C219.71 73.503 220.377 74.1701 221.2 74.1701Z" fill="#EEEEEE" stroke="#EEEEEE"/>
<path d="M196.28 87.13C197.103 87.13 197.77 86.4629 197.77 85.64C197.77 84.8171 197.103 84.15 196.28 84.15C195.457 84.15 194.79 84.8171 194.79 85.64C194.79 86.4629 195.457 87.13 196.28 87.13Z" fill="#EEEEEE" stroke="#EEEEEE"/>
<path d="M186.96 89.11C187.783 89.11 188.45 88.4429 188.45 87.62C188.45 86.7971 187.783 86.13 186.96 86.13C186.137 86.13 185.47 86.7971 185.47 87.62C185.47 88.4429 186.137 89.11 186.96 89.11Z" fill="#EEEEEE" stroke="#EEEEEE"/>
<path d="M194.76 94.5199C195.583 94.5199 196.25 93.8528 196.25 93.0299C196.25 92.207 195.583 91.5399 194.76 91.5399C193.937 91.5399 193.27 92.207 193.27 93.0299C193.27 93.8528 193.937 94.5199 194.76 94.5199Z" fill="#EEEEEE" stroke="#EEEEEE"/>
<path d="M248.27 87.13C249.093 87.13 249.76 86.4629 249.76 85.64C249.76 84.8171 249.093 84.15 248.27 84.15C247.447 84.15 246.78 84.8171 246.78 85.64C246.78 86.4629 247.447 87.13 248.27 87.13Z" fill="#EEEEEE" stroke="#EEEEEE"/>
<path d="M240.86 96.62C241.683 96.62 242.35 95.9529 242.35 95.13C242.35 94.3071 241.683 93.64 240.86 93.64C240.037 93.64 239.37 94.3071 239.37 95.13C239.37 95.9529 240.037 96.62 240.86 96.62Z" fill="#EEEEEE" stroke="#EEEEEE"/>
<path d="M250.77 94.5199C251.593 94.5199 252.26 93.8528 252.26 93.0299C252.26 92.207 251.593 91.5399 250.77 91.5399C249.947 91.5399 249.28 92.207 249.28 93.0299C249.28 93.8528 249.947 94.5199 250.77 94.5199Z" fill="#EEEEEE" stroke="#EEEEEE"/>
<path d="M204.52 98.1C205.343 98.1 206.01 97.4329 206.01 96.61C206.01 95.7871 205.343 95.12 204.52 95.12C203.697 95.12 203.03 95.7871 203.03 96.61C203.03 97.4329 203.697 98.1 204.52 98.1Z" fill="#EEEEEE" stroke="#EEEEEE"/>
<path d="M211.66 73.89C212.483 73.89 213.15 73.2229 213.15 72.4C213.15 71.5771 212.483 70.91 211.66 70.91C210.837 70.91 210.17 71.5771 210.17 72.4C210.17 73.2229 210.837 73.89 211.66 73.89Z" fill="#EEEEEE" stroke="#EEEEEE"/>
<path d="M215.63 97.61C216.453 97.61 217.12 96.9429 217.12 96.12C217.12 95.2971 216.453 94.63 215.63 94.63C214.807 94.63 214.14 95.2971 214.14 96.12C214.14 96.9429 214.807 97.61 215.63 97.61Z" fill="#EEEEEE" stroke="#EEEEEE"/>
<path d="M201.65 76.59C202.473 76.59 203.14 75.9229 203.14 75.1C203.14 74.2771 202.473 73.61 201.65 73.61C200.827 73.61 200.16 74.2771 200.16 75.1C200.16 75.9229 200.827 76.59 201.65 76.59Z" fill="#EEEEEE" stroke="#EEEEEE"/>
<path d="M212.65 81.9501C213.473 81.9501 214.14 81.283 214.14 80.4601C214.14 79.6372 213.473 78.9701 212.65 78.9701C211.827 78.9701 211.16 79.6372 211.16 80.4601C211.16 81.283 211.827 81.9501 212.65 81.9501Z" fill="#EEEEEE" stroke="#EEEEEE"/>
<path d="M228.34 95.5099C229.163 95.5099 229.83 94.8428 229.83 94.0199C229.83 93.197 229.163 92.5299 228.34 92.5299C227.517 92.5299 226.85 93.197 226.85 94.0199C226.85 94.8428 227.517 95.5099 228.34 95.5099Z" fill="#EEEEEE" stroke="#EEEEEE"/>
<path d="M227.91 81.9501C228.733 81.9501 229.4 81.283 229.4 80.4601C229.4 79.6372 228.733 78.9701 227.91 78.9701C227.087 78.9701 226.42 79.6372 226.42 80.4601C226.42 81.283 227.087 81.9501 227.91 81.9501Z" fill="#EEEEEE" stroke="#EEEEEE"/>
<path d="M237.16 88.12C237.983 88.12 238.65 87.4529 238.65 86.63C238.65 85.8071 237.983 85.14 237.16 85.14C236.337 85.14 235.67 85.8071 235.67 86.63C235.67 87.4529 236.337 88.12 237.16 88.12Z" fill="#EEEEEE" stroke="#EEEEEE"/>
<path d="M234.18 77.59C235.003 77.59 235.67 76.9229 235.67 76.1C235.67 75.2771 235.003 74.61 234.18 74.61C233.357 74.61 232.69 75.2771 232.69 76.1C232.69 76.9229 233.357 77.59 234.18 77.59Z" fill="#EEEEEE" stroke="#EEEEEE"/>
</g>
<defs>
<clipPath id="clip0_67_91">
<rect width="363.36" height="142.49" fill="white"/>
</clipPath>
</defs>
</svg>
