<svg xmlns="http://www.w3.org/2000/svg" viewBox="0 0 363.36 142.49"><defs><style>.cls-1{fill:none;}.cls-1,.cls-2{stroke:#1f1f1f;stroke-miterlimit:10;stroke-width:3px;}.cls-2{fill:#1f1f1f;}.cls-3{fill:#f6f2eb;}</style></defs><g id="Layer_2" data-name="Layer 2"><g id="Layer_1-2" data-name="Layer 1"><path class="cls-1" d="M151.71,17.09c0,2.84-3.67,5.5-10.08,7.79-13,4.65-37.25,7.78-65,7.78s-52-3.13-65-7.78C5.17,22.59,1.5,19.93,1.5,17.09,1.5,8.48,35.12,1.5,76.6,1.5S151.71,8.48,151.71,17.09Z"/><path class="cls-2" d="M141.63,24.88c-13,4.65-37.25,7.78-65,7.78s-52-3.13-65-7.78c13-4.66,37.25-7.79,65-7.79S128.64,20.22,141.63,24.88Z"/><path class="cls-1" d="M151.7,17.08V76.74A64.24,64.24,0,0,1,87.46,141H65.75A64.24,64.24,0,0,1,1.5,76.74V17.08"/><rect class="cls-1" x="302.8" y="76.43" width="42.62" height="64.56"/><line class="cls-1" x1="324.11" y1="1.5" x2="324.11" y2="76.43"/><path class="cls-1" d="M345.42,76.43s14.13-58.09,15.34-63.3c.65-2.78,2.58-7.81-1-11.63"/><path class="cls-1" d="M337.67,76.78S348.47,18,349.39,12.7A20.21,20.21,0,0,0,347.7,1.16"/><path class="cls-1" d="M330.55,77.66s6.51-59.44,7-64.76A25.4,25.4,0,0,0,336,1.5"/><path class="cls-1" d="M302.8,76.61s-14.13-58.1-15.34-63.31c-.65-2.77-2.58-7.81,1-11.62"/><path class="cls-1" d="M310.55,77s-10.8-58.8-11.72-64.07a20.16,20.16,0,0,1,1.69-11.55"/><path class="cls-1" d="M317.67,77.83s-6.51-59.44-7-64.76a25.36,25.36,0,0,1,1.55-11.39"/><path class="cls-1" d="M265.37,90.07c0,2-2.91,3.83-7.9,5.36C249.16,98,235,99.68,219,99.68S188.91,98,180.59,95.44c-5-1.54-7.89-3.38-7.89-5.37,0-3.56,9.28-6.66,23.09-8.31a208.47,208.47,0,0,1,46.49,0C256.09,83.41,265.37,86.51,265.37,90.07Z"/><path class="cls-1" d="M265.37,131.38c0,5.31-20.75,9.61-46.34,9.61s-46.34-4.3-46.34-9.61"/><polyline class="cls-1" points="172.7 131.37 172.7 105.1 172.7 102.54 172.7 90.07"/><polyline class="cls-1" points="265.37 131.37 265.37 105.1 265.37 102.54 265.37 90.07"/><path class="cls-2" d="M243.61,83l13.86,12.47C249.16,98,235,99.68,219,99.68S188.91,98,180.59,95.44L194.45,83l1.34-1.2,23.24-21,23.25,21Z"/><circle class="cls-3" cx="222.19" cy="61.81" r="0.99"/><circle class="cls-3" cx="206.51" cy="88.61" r="0.99"/><circle class="cls-3" cx="220.02" cy="86.63" r="0.99"/><circle class="cls-3" cx="212.65" cy="64.35" r="0.99"/><circle class="cls-3" cx="228.34" cy="66.89" r="0.99"/><circle class="cls-3" cx="221.2" cy="72.68" r="0.99"/><circle class="cls-3" cx="196.28" cy="85.64" r="0.99"/><circle class="cls-3" cx="186.96" cy="87.62" r="0.99"/><circle class="cls-3" cx="194.76" cy="93.03" r="0.99"/><circle class="cls-3" cx="248.27" cy="85.64" r="0.99"/><circle class="cls-3" cx="240.86" cy="95.13" r="0.99"/><circle class="cls-3" cx="250.77" cy="93.03" r="0.99"/><circle class="cls-3" cx="204.52" cy="96.61" r="0.99"/><circle class="cls-3" cx="211.66" cy="72.4" r="0.99"/><circle class="cls-3" cx="215.63" cy="96.12" r="0.99"/><circle class="cls-3" cx="201.65" cy="75.1" r="0.99"/><circle class="cls-3" cx="212.65" cy="80.46" r="0.99"/><circle class="cls-3" cx="228.34" cy="94.02" r="0.99"/><circle class="cls-3" cx="227.91" cy="80.46" r="0.99"/><circle class="cls-3" cx="237.16" cy="86.63" r="0.99"/><circle class="cls-3" cx="234.18" cy="76.1" r="0.99"/></g></g></svg>