<svg xmlns="http://www.w3.org/2000/svg" viewBox="0 0 205.35 303.39"><defs><style>.cls-1{fill:none;}.cls-1,.cls-2{stroke:#1f1f1f;stroke-miterlimit:10;stroke-width:3px;}.cls-2{fill:#1f1f1f;}.cls-3{fill:#f6f2eb;}</style></defs><g id="Layer_2" data-name="Layer 2"><g id="Layer_1-2" data-name="Layer 1"><line class="cls-1" x1="1.5" y1="157.1" x2="1.5" y2="148.02"/><line class="cls-1" x1="1.5" y1="293.69" x2="1.5" y2="229.06"/><path class="cls-1" d="M1.5,148c0-42.89,25-57.46,29.1-102.25.67-7.26.88-19.41.75-26.07"/><line class="cls-1" x1="80.57" y1="157.1" x2="80.57" y2="148.02"/><path class="cls-2" d="M80.57,157.1v72c0,1.49-1.93,2.89-5.3,4.1-6.84,2.44-19.61,4.1-34.23,4.1s-27.4-1.66-34.24-4.1c-3.37-1.21-5.3-2.61-5.3-4.1v-72c0,1.5,1.93,2.9,5.3,4.1,6.84,2.46,19.61,4.1,34.24,4.1s27.39-1.64,34.23-4.1C78.64,160,80.57,158.6,80.57,157.1Z"/><line class="cls-1" x1="80.57" y1="293.69" x2="80.57" y2="229.06"/><path class="cls-1" d="M80.57,148c0-42.89-25-57.46-29.1-102.25-.67-7.26-.88-19.41-.75-26.07"/><path class="cls-1" d="M52.45,3.84c0,.42-.55.82-1.51,1.16a32.81,32.81,0,0,1-9.75,1.17A32.86,32.86,0,0,1,31.44,5c-1-.34-1.51-.74-1.51-1.16,0-1.29,5-2.34,11.26-2.34S52.45,2.55,52.45,3.84Z"/><path class="cls-1" d="M52.45,18.82c0,.42-.55.82-1.51,1.17a33.21,33.21,0,0,1-9.75,1.16A33.26,33.26,0,0,1,31.44,20c-1-.35-1.51-.75-1.51-1.17"/><line class="cls-1" x1="29.93" y1="18.82" x2="29.93" y2="3.84"/><line class="cls-1" x1="52.45" y1="18.82" x2="52.45" y2="3.84"/><path class="cls-1" d="M80.57,293.69c0,1.49-1.93,2.89-5.3,4.1-6.84,2.45-19.61,4.1-34.24,4.1s-27.39-1.65-34.23-4.1c-3.37-1.21-5.3-2.61-5.3-4.1"/><path class="cls-3" d="M19.28,199.46a21.59,21.59,0,0,0-5.11-3l1.15-1.57a22.59,22.59,0,0,1,5.15,2.81ZM15,211.1A91.75,91.75,0,0,0,20,202l1.57,1.3c-1.38,3-3.23,6.5-4.78,9.11Zm5.54-19a22,22,0,0,0-5-3.15l1.16-1.52a20.54,20.54,0,0,1,5,3ZM40,195.77v1.6H21.76v-1.6h7.87v-2H23.36v-1.52h6.27v-1.77H22.69V189h6.94v-1.83h2.08V189H39v1.54H31.71v1.77h6.64v1.52H31.71v2Zm-2.16,14.71c0,1.07-.23,1.63-1,1.91a14.09,14.09,0,0,1-4,.31,5.51,5.51,0,0,0-.62-1.77c1.43,0,2.75,0,3.15,0s.53-.11.53-.48v-2.7H26.29v5H24.35V199H37.79Zm-11.5-9.9v2h9.53v-2Zm9.53,5.65v-2.11H26.29v2.11Z"/><path class="cls-3" d="M46.9,199.46a51.33,51.33,0,0,0-4.7-2.79l1.15-1.55c1.52.76,3.63,1.89,4.76,2.62Zm-4.19,11.72a81.74,81.74,0,0,0,4.61-9.08L49,203.28c-1.27,3-3,6.53-4.39,9.11Zm1.68-23.51c1.47.79,3.52,2,4.56,2.73l-1.24,1.69a46,46,0,0,0-4.53-2.93Zm17.21,3v3.76h5.26v18.34h-2v-1.24H52.27v1.32H50.35V194.39h4.79v-3.76h-5.8v-1.92H67.9v1.92Zm.29,11.3c-1.78,0-2.25-.45-2.25-2.22v-3.46H57.08v1a6.48,6.48,0,0,1-3.83,6,5.69,5.69,0,0,0-1-1v2.39h12.6v-2.67h-3Zm-9.62-5.68v5.62c2.53-1.37,3.12-3.17,3.12-4.66v-1Zm12.6,13.39V206.4H52.27v3.24Zm-5.18-19H57v3.76h2.67Zm5.18,5.62H61.29v3.43c0,.48.12.53.76.53h2.28a1.65,1.65,0,0,0,.54-.05Z"/><path class="cls-1" d="M200.15,117.48c0,1.45-1.88,2.81-5.15,4-6.64,2.38-19,4-33.22,4s-26.58-1.6-33.22-4c-3.27-1.17-5.14-2.53-5.14-4,0-4.4,17.17-8,38.36-8S200.15,113.08,200.15,117.48Z"/><path class="cls-1" d="M200.15,153.25c0,1.45-1.88,2.81-5.15,4-6.64,2.38-19,4-33.22,4s-26.58-1.6-33.22-4c-3.27-1.17-5.14-2.53-5.14-4,0-4.4,17.17-8,38.36-8S200.15,148.85,200.15,153.25Z"/><path class="cls-1" d="M200.15,117.48V159a38.37,38.37,0,0,1-38.37,38.37h0A38.36,38.36,0,0,1,123.42,159V117.48"/><path class="cls-1" d="M165.25,290.61V197.36"/><line class="cls-1" x1="158.31" y1="290.61" x2="158.31" y2="197.36"/><path class="cls-1" d="M165.25,284.46c21.61.36,38.6,4.12,38.6,8.7,0,1.59-2,3.08-5.64,4.36-7.28,2.62-20.87,4.37-36.43,4.37s-29.15-1.75-36.43-4.37c-3.58-1.28-5.64-2.77-5.64-4.36,0-4.58,17-8.34,38.6-8.7"/></g></g></svg>