<svg width="206" height="304" viewBox="0 0 206 304" fill="none" xmlns="http://www.w3.org/2000/svg">
<g clip-path="url(#clip0_67_131)">
<path d="M1.5 157.1V148.02" stroke="#EEEEEE" stroke-width="3" stroke-miterlimit="10"/>
<path d="M1.5 293.69V229.06" stroke="#EEEEEE" stroke-width="3" stroke-miterlimit="10"/>
<path d="M1.5 148C1.5 105.11 26.5 90.5401 30.6 45.7501C31.27 38.4901 31.48 26.3401 31.35 19.6801" stroke="#EEEEEE" stroke-width="3" stroke-miterlimit="10"/>
<path d="M80.57 157.1V148.02" stroke="#EEEEEE" stroke-width="3" stroke-miterlimit="10"/>
<path d="M80.57 157.1V229.1C80.57 230.59 78.64 231.99 75.27 233.2C68.43 235.64 55.66 237.3 41.04 237.3C26.42 237.3 13.64 235.64 6.8 233.2C3.43 231.99 1.5 230.59 1.5 229.1V157.1C1.5 158.6 3.43 160 6.8 161.2C13.64 163.66 26.41 165.3 41.04 165.3C55.67 165.3 68.43 163.66 75.27 161.2C78.64 160 80.57 158.6 80.57 157.1Z" fill="#EEEEEE" stroke="#EEEEEE" stroke-width="3" stroke-miterlimit="10"/>
<path d="M80.57 293.69V229.06" stroke="#EEEEEE" stroke-width="3" stroke-miterlimit="10"/>
<path d="M80.57 148C80.57 105.11 55.57 90.5401 51.47 45.7501C50.8 38.4901 50.59 26.3401 50.72 19.6801" stroke="#EEEEEE" stroke-width="3" stroke-miterlimit="10"/>
<path d="M52.45 3.84C52.45 4.26 51.9 4.66 50.94 5C47.7671 5.8769 44.4803 6.27132 41.19 6.17C37.8997 6.27056 34.613 5.87616 31.44 5C30.44 4.66 29.93 4.26 29.93 3.84C29.93 2.55 34.93 1.5 41.19 1.5C47.45 1.5 52.45 2.55 52.45 3.84Z" stroke="#EEEEEE" stroke-width="3" stroke-miterlimit="10"/>
<path d="M52.45 18.8199C52.45 19.2399 51.9 19.6399 50.94 19.9899C47.7654 20.8576 44.4795 21.2485 41.19 21.1499C37.901 21.251 34.6152 20.8635 31.44 19.9999C30.44 19.6499 29.93 19.2499 29.93 18.8299" stroke="#EEEEEE" stroke-width="3" stroke-miterlimit="10"/>
<path d="M29.93 18.82V3.83997" stroke="#EEEEEE" stroke-width="3" stroke-miterlimit="10"/>
<path d="M52.45 18.82V3.83997" stroke="#EEEEEE" stroke-width="3" stroke-miterlimit="10"/>
<path d="M80.57 293.69C80.57 295.18 78.64 296.58 75.27 297.79C68.43 300.24 55.66 301.89 41.03 301.89C26.4 301.89 13.64 300.24 6.8 297.79C3.43 296.58 1.5 295.18 1.5 293.69" stroke="#EEEEEE" stroke-width="3" stroke-miterlimit="10"/>
<path d="M19.187 199.578L19.3138 199.678L19.4042 199.544L20.5942 197.784L20.6754 197.664L20.5583 197.579C18.9606 196.415 17.2178 195.464 15.3741 194.75L15.2669 194.709L15.199 194.801L14.049 196.371L13.9361 196.525L14.1125 196.599C15.9329 197.354 17.6405 198.356 19.187 199.578ZM14.8728 211.02L14.7988 211.139L14.9114 211.221L16.7014 212.531L16.8346 212.629L16.919 212.487C18.4716 209.872 20.324 206.368 21.7063 203.363L21.7544 203.258L21.6656 203.185L20.0956 201.885L19.9476 201.762L19.8646 201.935C18.3735 205.056 16.7069 208.089 14.8728 211.02ZM20.4437 192.215L20.5696 192.32L20.6632 192.186L21.8232 190.516L21.9025 190.401L21.7946 190.314C20.268 189.072 18.5721 188.054 16.7581 187.292L16.6511 187.247L16.5807 187.339L15.4207 188.859L15.3066 189.009L15.4778 189.087C17.2663 189.901 18.9366 190.954 20.4437 192.215ZM40.15 195.77V195.619L39.9989 195.62L31.86 195.679V193.98H38.35H38.5V193.83V192.31V192.16H38.35H31.86V190.69H39H39.15V190.54V189V188.85H39H31.86V187.17V187.02H31.71H29.63H29.48V187.17V188.85H22.69H22.54V189V190.48V190.63H22.69H29.48V192.1H23.36H23.21V192.25V193.77V193.92H23.36H29.48V195.62H21.76H21.61V195.77V197.37V197.52H21.76H40H40.15V197.37V195.77ZM37.99 210.48L37.99 210.479L37.94 198.999L37.9393 198.85H37.79H24.35H24.2V199V212.75V212.9H24.35H26.29H26.44V212.75V207.9H35.75V210.45C35.75 210.626 35.7172 210.688 35.685 210.717C35.6476 210.75 35.5667 210.78 35.37 210.78H35.3676H35.3653H35.3629H35.3604H35.358H35.3555H35.3531H35.3506H35.348H35.3455H35.3429H35.3404H35.3377H35.3351H35.3325H35.3298H35.3271H35.3244H35.3217H35.3189H35.3162H35.3134H35.3106H35.3078H35.3049H35.302H35.2991H35.2962H35.2933H35.2904H35.2874H35.2844H35.2814H35.2784H35.2753H35.2722H35.2692H35.266H35.2629H35.2598H35.2566H35.2534H35.2502H35.247H35.2437H35.2405H35.2372H35.2339H35.2306H35.2272H35.2239H35.2205H35.2171H35.2137H35.2102H35.2068H35.2033H35.1998H35.1963H35.1928H35.1892H35.1856H35.182H35.1784H35.1748H35.1712H35.1675H35.1638H35.1601H35.1564H35.1527H35.1489H35.1451H35.1413H35.1375H35.1337H35.1298H35.126H35.1221H35.1182H35.1143H35.1103H35.1064H35.1024H35.0984H35.0944H35.0904H35.0863H35.0822H35.0782H35.0741H35.0699H35.0658H35.0617H35.0575H35.0533H35.0491H35.0449H35.0406H35.0364H35.0321H35.0278H35.0235H35.0191H35.0148H35.0104H35.0061H35.0017H34.9972H34.9928H34.9884H34.9839H34.9794H34.9749H34.9704H34.9659H34.9613H34.9567H34.9522H34.9475H34.9429H34.9383H34.9336H34.929H34.9243H34.9196H34.9149H34.9101H34.9054H34.9006H34.8958H34.891H34.8862H34.8814H34.8765H34.8717H34.8668H34.8619H34.857H34.8521H34.8471H34.8422H34.8372H34.8322H34.8272H34.8221H34.8171H34.8121H34.807H34.8019H34.7968H34.7917H34.7865H34.7814H34.7762H34.771H34.7659H34.7606H34.7554H34.7502H34.7449H34.7396H34.7344H34.7291H34.7237H34.7184H34.7131H34.7077H34.7023H34.6969H34.6915H34.6861H34.6807H34.6752H34.6697H34.6643H34.6588H34.6532H34.6477H34.6422H34.6366H34.6311H34.6255H34.6199H34.6143H34.6086H34.603H34.5973H34.5917H34.586H34.5803H34.5746H34.5688H34.5631H34.5574H34.5516H34.5458H34.54H34.5342H34.5284H34.5225H34.5167H34.5108H34.5049H34.499H34.4931H34.4872H34.4813H34.4753H34.4694H34.4634H34.4574H34.4514H34.4454H34.4394H34.4333H34.4273H34.4212H34.4151H34.409H34.4029H34.3968H34.3907H34.3845H34.3784H34.3722H34.366H34.3598H34.3536H34.3474H34.3412H34.3349H34.3286H34.3224H34.3161H34.3098H34.3035H34.2971H34.2908H34.2845H34.2781H34.2717H34.2653H34.2589H34.2525H34.2461H34.2397H34.2332H34.2268H34.2203H34.2138H34.2073H34.2008H34.1943H34.1878H34.1812H34.1747H34.1681H34.1615H34.1549H34.1483H34.1417H34.1351H34.1285H34.1218H34.1152H34.1085H34.1018H34.0951H34.0884H34.0817H34.075H34.0682H34.0615H34.0547H34.048H34.0412H34.0344H34.0276H34.0208H34.0139H34.0071H34.0003H33.9934H33.9865H33.9797H33.9728H33.9659H33.959H33.952H33.9451H33.9382H33.9312H33.9242H33.9173H33.9103H33.9033H33.8963H33.8893H33.8822H33.8752H33.8681H33.8611H33.854H33.8469H33.8399H33.8328H33.8257H33.8185H33.8114H33.8043H33.7971H33.79H33.7828H33.7756H33.7684H33.7613H33.754H33.7468H33.7396H33.7324H33.7251H33.7179H33.7106H33.7034H33.6961H33.6888H33.6815H33.6742H33.6669H33.6595H33.6522H33.6449H33.6375H33.6301H33.6228H33.6154H33.608H33.6006H33.5932H33.5858H33.5784H33.5709H33.5635H33.556H33.5486H33.5411H33.5336H33.5262H33.5187H33.5112H33.5037H33.4961H33.4886H33.4811H33.4735H33.466H33.4584H33.4509H33.4433H33.4357H33.4281H33.4205H33.4129H33.4053H33.3977H33.3901H33.3824H33.3748H33.3671H33.3595H33.3518H33.3441H33.3364H33.3287H33.3211H33.3133H33.3056H33.2979H33.2902H33.2824H33.2747H33.267H33.2592H33.2514H33.2437H33.2359H33.2281H33.2203H33.2125H33.2047H33.1969H33.1891H33.1813H33.1734H33.1656H33.1577H33.1499H33.142H33.1342H33.1263H33.1184H33.1105H33.1026H33.0947H33.0868H33.0789H33.071H33.0631H33.0551H33.0472H33.0393H33.0313H33.0233H33.0154H33.0074H32.9994H32.9915H32.9835H32.9755H32.9675H32.9595H32.9515H32.9435H32.9354H32.9274H32.9194H32.9114H32.9033H32.8953H32.8872H32.8792H32.8711H32.863H32.8549H32.8469H32.8388H32.8307H32.8226H32.8145H32.8064H32.7983H32.7902H32.782H32.7739H32.7658H32.7576H32.7495H32.7414H32.7332H32.725H32.7169H32.7087H32.7005H32.6924H32.6842H32.676H32.6678H32.6596H32.6514H32.6432H32.635H32.6268H32.6186H32.6104H32.6022H32.5939H32.5857H32.5775H32.5692H32.561H32.5527H32.5445H32.5362H32.528H32.5197H32.5114H32.5032H32.4949H32.4866H32.4783H32.4701H32.4618H32.4535H32.4452H32.4369H32.4286H32.4203H32.412H32.4036H32.3953H32.387H32.3787H32.3704H32.362H32.3537H32.3454H32.337H32.3287H32.3203H32.312H32.3036H32.2953H32.2869H32.2786H32.2702H32.2618H32.2535H32.2451H32.2367H32.2284H32.22H31.9648L32.0889 211.003C32.3869 211.538 32.5909 212.121 32.692 212.725L32.7117 212.842L32.8302 212.85C34.1857 212.939 35.5471 212.833 36.8727 212.536L36.8822 212.534L36.8912 212.531C37.3056 212.38 37.5891 212.147 37.763 211.798C37.9326 211.458 37.99 211.022 37.99 210.48ZM35.72 202.43H26.49V200.73H35.72V202.43ZM26.44 204.27H35.72V206.08H26.44V204.27Z" fill="#1F1F1F" stroke="#1F1F1F" stroke-width="0.3"/>
<path d="M46.8167 199.585L46.9384 199.666L47.0227 199.546L48.2327 197.826L48.3225 197.699L48.1914 197.614C47.0542 196.879 44.938 195.746 43.4171 194.986L43.3045 194.93L43.2295 195.031L42.0795 196.581L41.975 196.722L42.1304 196.803C43.7408 197.646 45.3051 198.575 46.8167 199.585ZM42.5808 211.104L42.5073 211.229L42.6294 211.307L44.5294 212.517L44.6655 212.603L44.7421 212.461C46.1339 209.878 47.866 206.343 49.1381 203.339L49.1854 203.227L49.0862 203.157L47.4062 201.977L47.2554 201.871L47.1823 202.041C45.8383 205.154 44.3015 208.181 42.5808 211.104ZM44.461 187.538L44.3518 187.479L44.2736 187.575L43.0636 189.065L42.9518 189.203L43.1061 189.291C44.667 190.175 46.1747 191.15 47.6213 192.211L47.7422 192.3L47.8309 192.179L49.071 190.489L49.1616 190.365L49.0362 190.277C47.9892 189.542 45.9333 188.329 44.461 187.538ZM67.01 194.43V194.28H66.86H61.75V190.819L67.901 190.78L68.05 190.779V190.63V188.71V188.56H67.9H49.34H49.19V188.71V190.63V190.78H49.34H54.99V194.24H50.35H50.2V194.39V212.85V213H50.35H52.27H52.42V212.85V211.68H64.71V212.77V212.92H64.86H66.86H67.01V212.77V194.43ZM61.85 202.16H64.7V204.53H52.4V202.608C52.668 202.842 52.913 203.101 53.1316 203.382L53.2039 203.475L53.3113 203.427C54.4924 202.898 55.4927 202.035 56.1891 200.944C56.8852 199.853 57.2471 198.583 57.23 197.289V196.44H59.49V199.75C59.49 200.636 59.6042 201.25 59.9924 201.631C60.3259 201.958 60.8324 202.085 61.5346 202.113L61.4878 202.16H61.85ZM64.3409 200.11L64.3409 200.11H64.33H62.05C61.8902 200.11 61.7706 200.107 61.6792 200.096C61.5866 200.085 61.5388 200.067 61.5126 200.05C61.4762 200.026 61.44 199.976 61.44 199.73V196.45H64.72V200.09C64.5952 200.113 64.4678 200.12 64.3409 200.11ZM55.24 196.402V197.25C55.24 197.975 55.0967 198.77 54.6487 199.55C54.2281 200.283 53.5339 201.01 52.42 201.654V196.438L55.24 196.402ZM52.42 206.55H64.72V209.53L52.42 209.491V206.55ZM57.15 194.29V190.83H59.5392L59.5208 194.29H57.15Z" fill="#1F1F1F" stroke="#1F1F1F" stroke-width="0.3"/>
<path d="M200.15 117.48C200.15 118.93 198.27 120.29 195 121.48C188.36 123.86 176 125.48 161.78 125.48C147.56 125.48 135.2 123.88 128.56 121.48C125.29 120.31 123.42 118.95 123.42 117.48C123.42 113.08 140.59 109.48 161.78 109.48C182.97 109.48 200.15 113.08 200.15 117.48Z" stroke="#EEEEEE" stroke-width="3" stroke-miterlimit="10"/>
<path d="M200.15 153.25C200.15 154.7 198.27 156.06 195 157.25C188.36 159.63 176 161.25 161.78 161.25C147.56 161.25 135.2 159.65 128.56 157.25C125.29 156.08 123.42 154.72 123.42 153.25C123.42 148.85 140.59 145.25 161.78 145.25C182.97 145.25 200.15 148.85 200.15 153.25Z" stroke="#EEEEEE" stroke-width="3" stroke-miterlimit="10"/>
<path d="M200.15 117.48V159C200.15 169.176 196.107 178.936 188.912 186.132C181.716 193.327 171.956 197.37 161.78 197.37C156.742 197.37 151.753 196.377 147.098 194.449C142.443 192.521 138.214 189.694 134.652 186.131C131.09 182.568 128.264 178.338 126.337 173.683C124.41 169.028 123.419 164.038 123.42 159V117.48" stroke="#EEEEEE" stroke-width="3" stroke-miterlimit="10"/>
<path d="M165.25 290.61V197.36" stroke="#EEEEEE" stroke-width="3" stroke-miterlimit="10"/>
<path d="M158.31 290.61V197.36" stroke="#EEEEEE" stroke-width="3" stroke-miterlimit="10"/>
<path d="M165.25 284.46C186.86 284.82 203.85 288.58 203.85 293.16C203.85 294.75 201.85 296.24 198.21 297.52C190.93 300.14 177.34 301.89 161.78 301.89C146.22 301.89 132.63 300.14 125.35 297.52C121.77 296.24 119.71 294.75 119.71 293.16C119.71 288.58 136.71 284.82 158.31 284.46" stroke="#EEEEEE" stroke-width="3" stroke-miterlimit="10"/>
</g>
<defs>
<clipPath id="clip0_67_131">
<rect width="205.35" height="303.39" fill="white"/>
</clipPath>
</defs>
</svg>
