<svg xmlns="http://www.w3.org/2000/svg" viewBox="0 0 182.92 149.26"><defs><style>.cls-1,.cls-2{fill:none;}.cls-1,.cls-2,.cls-3{stroke:#1f1f1f;stroke-width:2px;}.cls-1{stroke-linejoin:round;}.cls-2,.cls-3{stroke-miterlimit:10;}.cls-3{fill:#f6f2eb;}.cls-4{fill:#1f1f1f;}</style></defs><g id="Layer_2" data-name="Layer 2"><g id="Layer_1-2" data-name="Layer 1"><path class="cls-1" d="M129.53,33.25l-.62,0a31.26,31.26,0,0,1-4.08-9,14.22,14.22,0,0,0-2.5-5.58,6.44,6.44,0,0,0-1.43-1.3,9.61,9.61,0,0,1,5.39-1.73,3.24,3.24,0,0,1,.44,0,10.36,10.36,0,0,1,2.58.31,7,7,0,0,0-2.65,2.5h0c-.08.14-.17.29-.24.44a9.32,9.32,0,0,0-.93,4.27C125.49,26,127.48,29.91,129.53,33.25Z"/><path class="cls-1" d="M146.88,17.42a7.7,7.7,0,0,0-2.58,3.06,19.07,19.07,0,0,0-1.38,3.83,29.86,29.86,0,0,1-3.54,8.13l-.7.07c1.89-3.17,3.6-6.76,3.6-9.3a10.32,10.32,0,0,0-.42-3,7.19,7.19,0,0,0-1.34-2.51.08.08,0,0,0,0,0,7,7,0,0,0-2-1.67,11.06,11.06,0,0,1,1.94-.29l.64,0A10,10,0,0,1,146.88,17.42Z"/><path class="cls-1" d="M126.29,15.7a8.65,8.65,0,0,0-2.63-4.65"/><line class="cls-1" x1="133.88" y1="14.91" x2="133.86" y2="7.54"/><path class="cls-1" d="M142.65,11.05a5.58,5.58,0,0,0-2.25,4.65,10.72,10.72,0,0,0,.11,2"/><path class="cls-1" d="M130.69,15.4s.29-9.26-2.43-11.2"/><path class="cls-1" d="M137.08,15.4s-.32-7.31,2.08-9.18"/><path class="cls-1" d="M73.21,32.34l-.56-.06a33.76,33.76,0,0,1-5.73-11.36.57.57,0,0,0,0-.14c-.86-3.3-2.11-5.56-3.89-6.73a9.57,9.57,0,0,1,5.38-1.73,3.39,3.39,0,0,1,.45,0,10.71,10.71,0,0,1,2.57.3,7,7,0,0,0-2.64,2.5h0a9,9,0,0,0-1.18,4.71,6.58,6.58,0,0,0,.06.87C68.07,24.15,71,29,73.21,32.34Z"/><path class="cls-1" d="M89,14a9.35,9.35,0,0,0-3.39,5c-.2.59-.39,1.22-.56,1.89a34.17,34.17,0,0,1-6.17,11.94l-.44,0c2.49-3.62,6-9.36,6-13,0-.24,0-.48,0-.71a8.09,8.09,0,0,0-1.74-4.81,7.11,7.11,0,0,0-2.06-1.69,9.46,9.46,0,0,1,1.94-.29l.64,0A9.94,9.94,0,0,1,89,14Z"/><path class="cls-1" d="M65.75,7.66a8.76,8.76,0,0,1,2.62,4.66,12.68,12.68,0,0,1,.38,2.78"/><line class="cls-1" x1="75.97" y1="11.53" x2="75.95" y2="4.16"/><path class="cls-1" d="M82.61,14.3s-.91-4.69,2.13-6.64"/><path class="cls-1" d="M72.78,12s.29-9.25-2.44-11.2"/><path class="cls-1" d="M79.17,12s-.32-7.31,2.08-9.17"/><path class="cls-2" d="M181.92,18.4c0,2.84-3.66,5.5-10.07,7.79a102.67,102.67,0,0,1-16.62,4.11,9.82,9.82,0,0,0,2.48-5.11,9.46,9.46,0,0,0,0-2.65c-.5-3.85-3.56-5.87-6.93-6.07a6.27,6.27,0,0,0-3.93,1,7.7,7.7,0,0,0-2.58,3.06,19.07,19.07,0,0,0-1.38,3.83,29.86,29.86,0,0,1-3.54,8.13l-.7.07c1.89-3.17,3.6-6.76,3.6-9.3a10.32,10.32,0,0,0-.42-3,7.19,7.19,0,0,0-1.34-2.51.08.08,0,0,0,0,0,7,7,0,0,0-2-1.67,8.07,8.07,0,0,0-1.38-.59,10.41,10.41,0,0,0-3.2-.48,10.3,10.3,0,0,0-3.19.48,7.08,7.08,0,0,0-1.38.59,10.36,10.36,0,0,0-2.58-.31,3.24,3.24,0,0,0-.44,0,9.61,9.61,0,0,0-5.39,1.73,6.26,6.26,0,0,0-4-1,7.82,7.82,0,0,0-4.89,2c-1.56,1.45-2.44,3.7-2,6.75.54,3.7,3.34,6.53,6.85,8.65-3.3.09-6.67.14-10.09.14-7,0-13.76-.2-20.18-.57C92.58,31.24,99,27.59,99.79,21.8a8.92,8.92,0,0,0-.09-3.33c-.74-3.41-3.63-5.19-6.8-5.38A6.24,6.24,0,0,0,89,14a9.35,9.35,0,0,0-3.39,5c-.2.59-.39,1.22-.56,1.89a34.17,34.17,0,0,1-6.17,11.94l-.44,0c2.49-3.62,6-9.36,6-13,0-.24,0-.48,0-.71a8.09,8.09,0,0,0-1.74-4.81,7.11,7.11,0,0,0-2.06-1.69,8.47,8.47,0,0,0-1.38-.6,10.87,10.87,0,0,0-6.39,0,7.44,7.44,0,0,0-1.39.59,7,7,0,0,0-2.64,2.5h0a9,9,0,0,0-1.18,4.71,6.58,6.58,0,0,0,.06.87c.44,3.46,3.32,8.3,5.58,11.65l-.56-.06a33.76,33.76,0,0,1-5.73-11.36.57.57,0,0,0,0-.14c-.86-3.3-2.11-5.56-3.89-6.73a6.27,6.27,0,0,0-4-1c-4.08.24-7.71,3.13-6.89,8.71a8.49,8.49,0,0,0,.33,1.43c.94,3,3.39,5.31,6.37,7.15a104.86,104.86,0,0,1-17.07-4.19c-6.4-2.29-10.06-5-10.06-7.79,0-6,16.42-11.24,40.46-13.83,1.24-.14,2.5-.26,3.77-.38,1.48-.14,3-.27,4.51-.39,8.2-.64,17.08-1,26.36-1C148.29,2.81,181.92,9.79,181.92,18.4Z"/><path class="cls-2" d="M99.79,21.8c-.84,5.79-7.21,9.44-13.15,11.61-2.66-.15-5.27-.34-7.8-.55A34.17,34.17,0,0,0,85,20.92c.17-.67.36-1.3.56-1.89A9.35,9.35,0,0,1,89,14a6.24,6.24,0,0,1,3.94-.95c3.17.19,6.06,2,6.8,5.38A8.92,8.92,0,0,1,99.79,21.8Z"/><path class="cls-2" d="M84.37,19.82c0,3.64-3.48,9.38-6,13-1.77-.14-3.5-.31-5.19-.48C71,29,68.07,24.15,67.63,20.69a6.58,6.58,0,0,1-.06-.87,9,9,0,0,1,1.18-4.71h0a7,7,0,0,1,2.64-2.5A7.44,7.44,0,0,1,72.78,12a10.87,10.87,0,0,1,6.39,0,8.47,8.47,0,0,1,1.38.6,7.11,7.11,0,0,1,2.06,1.69,8.09,8.09,0,0,1,1.74,4.81C84.36,19.34,84.37,19.58,84.37,19.82Z"/><path class="cls-2" d="M72.65,32.28c-4.94-.53-9.56-1.17-13.79-1.9h0c-3-1.84-5.43-4.18-6.37-7.15a8.49,8.49,0,0,1-.33-1.43C51.33,16.22,55,13.33,59,13.09a6.27,6.27,0,0,1,4,1c1.78,1.17,3,3.43,3.89,6.73a.57.57,0,0,1,0,.14A33.76,33.76,0,0,0,72.65,32.28Z"/><path class="cls-2" d="M58.85,30.38a104.86,104.86,0,0,1-17.07-4.19,87.69,87.69,0,0,1,10.7-3C53.42,26.2,55.87,28.54,58.85,30.38Z"/><path class="cls-2" d="M73.21,32.34l-.56-.06a33.76,33.76,0,0,1-5.73-11.36.57.57,0,0,0,0-.14l.75-.09C68.07,24.15,71,29,73.21,32.34Z"/><path class="cls-2" d="M85.57,19c-.2.59-.39,1.22-.56,1.89a34.17,34.17,0,0,1-6.17,11.94l-.44,0c2.49-3.62,6-9.36,6-13,0-.24,0-.48,0-.71Z"/><path class="cls-2" d="M142.28,23.21c0,2.54-1.71,6.13-3.6,9.3-3,.29-6,.54-9.15.74-2-3.34-4-7.3-4-10a9.32,9.32,0,0,1,.93-4.27c.07-.15.16-.3.24-.44h0a7,7,0,0,1,2.65-2.5,7.08,7.08,0,0,1,1.38-.59,10.3,10.3,0,0,1,3.19-.48,10.41,10.41,0,0,1,3.2.48,8.07,8.07,0,0,1,1.38.59,7,7,0,0,1,2,1.67.08.08,0,0,1,0,0,7.19,7.19,0,0,1,1.34,2.51A10.32,10.32,0,0,1,142.28,23.21Z"/><path class="cls-2" d="M128.91,33.29c-3.88.25-7.89.44-12,.55-3.51-2.12-6.31-5-6.85-8.65-.44-3.05.44-5.3,2-6.75a7.82,7.82,0,0,1,4.89-2,6.26,6.26,0,0,1,4,1,6.44,6.44,0,0,1,1.43,1.3,14.22,14.22,0,0,1,2.5,5.58A31.26,31.26,0,0,0,128.91,33.29Z"/><path class="cls-2" d="M116.91,33.84c-3.3.09-6.67.14-10.09.14-7,0-13.76-.2-20.18-.57C92.58,31.24,99,27.59,99.79,21.8a8.92,8.92,0,0,0-.09-3.33c2.34,0,4.72-.07,7.12-.07,1.76,0,3.51,0,5.24,0-1.56,1.45-2.44,3.7-2,6.75C110.6,28.89,113.4,31.72,116.91,33.84Z"/><path class="cls-2" d="M157.71,25.19a9.82,9.82,0,0,1-2.48,5.11c-4.8.85-10.12,1.57-15.85,2.14a29.86,29.86,0,0,0,3.54-8.13,19.07,19.07,0,0,1,1.38-3.83,7.7,7.7,0,0,1,2.58-3.06,6.27,6.27,0,0,1,3.93-1c3.37.2,6.43,2.22,6.93,6.07A9.46,9.46,0,0,1,157.71,25.19Z"/><path class="cls-2" d="M141.86,20.2l2.44.28a19.07,19.07,0,0,0-1.38,3.83,29.86,29.86,0,0,1-3.54,8.13l-.7.07c1.89-3.17,3.6-6.76,3.6-9.3A10.32,10.32,0,0,0,141.86,20.2Z"/><path class="cls-2" d="M171.85,26.19a102.67,102.67,0,0,1-16.62,4.11,9.82,9.82,0,0,0,2.48-5.11,9.46,9.46,0,0,0,0-2.65A95.7,95.7,0,0,1,171.85,26.19Z"/><path class="cls-2" d="M181.92,18.4V78.06a64.24,64.24,0,0,1-64.25,64.24H96A64.24,64.24,0,0,1,31.72,78.06V18.4c0,2.84,3.66,5.5,10.06,7.79a104.86,104.86,0,0,0,17.07,4.19h0c4.23.73,8.85,1.37,13.79,1.9l.56.06c1.69.17,3.42.34,5.19.48l.44,0c2.53.21,5.14.4,7.8.55,6.42.37,13.19.57,20.18.57,3.42,0,6.79,0,10.09-.14,4.11-.11,8.12-.3,12-.55l.62,0c3.14-.2,6.2-.45,9.15-.74l.7-.07c5.73-.57,11.05-1.29,15.85-2.14a102.67,102.67,0,0,0,16.62-4.11C178.26,23.9,181.92,21.24,181.92,18.4Z"/><path class="cls-3" d="M58.62,92.2c9.25,1.91,7.72,13,7.72,13s7.73,8.7,1.42,15.09c-5.74,5.82-30.37-5.68-30.37-5.68S48.89,90.19,58.62,92.2Z"/><path class="cls-3" d="M64.47,129.92c1,9.39-10,11.38-10,11.38s-5.88,10-13.91,6c-7.31-3.66-4-30.64-4-30.64S63.38,120.05,64.47,129.92Z"/><path class="cls-3" d="M20.94,86.11c4.67-8.21,14.79-3.32,14.79-3.32s10.66-4.65,14.79,3.32c3.76,7.25-14.79,27.13-14.79,27.13S16,94.74,20.94,86.11Z"/><path class="cls-2" d="M20.94,86.11c4.67-8.21,14.79-3.32,14.79-3.32s10.66-4.65,14.79,3.32c3.76,7.25-14.79,27.13-14.79,27.13S16,94.74,20.94,86.11Z"/><path class="cls-2" d="M30.4,147.14c-8.6,3.89-13.91-6-13.91-6s-11.36-2.5-10-11.38c1.22-8.07,27.91-13.25,27.91-13.25S39.45,143.05,30.4,147.14Z"/><path class="cls-2" d="M3.5,120.06c-6.36-7,1.42-15.09,1.42-15.09s-1.14-11.57,7.72-13c8.06-1.33,21.23,22.45,21.23,22.45S10.19,127.41,3.5,120.06Z"/><path class="cls-4" d="M35.8,128.44a1.21,1.21,0,0,1-1.19-.9,3.25,3.25,0,0,0-3.13-2.33,3.18,3.18,0,0,0-2,.68,1.25,1.25,0,0,1-.75.27,1.34,1.34,0,0,1-1.05-.56,1.19,1.19,0,0,1-.13-1.12,3.26,3.26,0,0,0-3.06-4.34h-.14a1.25,1.25,0,0,1-.69-2.28,3.25,3.25,0,0,0,0-5.36,1.21,1.21,0,0,1-.49-1.39,1.2,1.2,0,0,1,1.18-.88h.14a3.25,3.25,0,0,0,3.06-4.33,1.19,1.19,0,0,1,.13-1.12,1.31,1.31,0,0,1,1.05-.56,1.19,1.19,0,0,1,.75.27,3.24,3.24,0,0,0,5.1-1.65,1.21,1.21,0,0,1,1.19-.9,1.23,1.23,0,0,1,1.2.89,3.23,3.23,0,0,0,5.09,1.66,1.23,1.23,0,0,1,.75-.27,1.29,1.29,0,0,1,1,.56,1.19,1.19,0,0,1,.14,1.12,3.29,3.29,0,0,0,.4,3,3.25,3.25,0,0,0,2.65,1.37h.14a1.25,1.25,0,0,1,.7,2.27,3.24,3.24,0,0,0,0,5.36,1.25,1.25,0,0,1-.7,2.28h-.14a3.25,3.25,0,0,0-3,4.34,1.19,1.19,0,0,1-.14,1.12,1.31,1.31,0,0,1-1,.56,1.23,1.23,0,0,1-.75-.27,3.14,3.14,0,0,0-2-.68A3.23,3.23,0,0,0,37,127.54,1.22,1.22,0,0,1,35.8,128.44Z"/><path class="cls-4" d="M35.8,103a.21.21,0,0,1,.24.18,4.23,4.23,0,0,0,4.08,3.05,4.18,4.18,0,0,0,2.58-.89.24.24,0,0,1,.14-.06.32.32,0,0,1,.23.13s.06.09,0,.21a4.25,4.25,0,0,0,4,5.67h.14a.24.24,0,0,1,.13.45,4.25,4.25,0,0,0,0,7,.21.21,0,0,1,.1.27.22.22,0,0,1-.24.18h-.13a4.26,4.26,0,0,0-3.46,1.8,4.21,4.21,0,0,0-.53,3.87c0,.12,0,.17,0,.21a.3.3,0,0,1-.23.14.22.22,0,0,1-.14-.07A4.24,4.24,0,0,0,36,127.26a.21.21,0,0,1-.24.18.21.21,0,0,1-.23-.18,4.25,4.25,0,0,0-6.67-2.17c-.08.07-.12.07-.14.07a.3.3,0,0,1-.23-.14s-.05-.09,0-.21a4.25,4.25,0,0,0-4-5.67h-.13a.21.21,0,0,1-.23-.18.2.2,0,0,1,.09-.27,4.25,4.25,0,0,0,0-7,.21.21,0,0,1-.09-.28.2.2,0,0,1,.23-.17h.13a4.25,4.25,0,0,0,4-5.67.21.21,0,0,1,0-.21.32.32,0,0,1,.23-.13.22.22,0,0,1,.14.06,4.24,4.24,0,0,0,6.67-2.16.21.21,0,0,1,.23-.18m0-2a2.19,2.19,0,0,0-2.15,1.61h0a2.24,2.24,0,0,1-3.53,1.15,2.22,2.22,0,0,0-1.36-.48,2.26,2.26,0,0,0-2.13,3,2.24,2.24,0,0,1-2.11,3h-.13a2.25,2.25,0,0,0-1.27,4.1,2.24,2.24,0,0,1,0,3.71,2.25,2.25,0,0,0,1.27,4.1h.13a2.25,2.25,0,0,1,2.11,3,2.27,2.27,0,0,0,2.13,3,2.22,2.22,0,0,0,1.36-.48,2.25,2.25,0,0,1,3.53,1.14,2.24,2.24,0,0,0,4.31,0,2.24,2.24,0,0,1,2.16-1.61,2.2,2.2,0,0,1,1.36.47,2.24,2.24,0,0,0,1.36.48,2.26,2.26,0,0,0,2.13-3,2.25,2.25,0,0,1,2.11-3h.14a2.25,2.25,0,0,0,1.26-4.1h0a2.25,2.25,0,0,1,0-3.71h0a2.25,2.25,0,0,0-1.26-4.1h-.14a2.25,2.25,0,0,1-2.11-3,2.24,2.24,0,0,0-3.49-2.53,2.2,2.2,0,0,1-1.36.47A2.25,2.25,0,0,1,38,102.56h0A2.21,2.21,0,0,0,35.8,101Z"/><path class="cls-1" d="M37.58,101.93c1-4,2.34-8,4.3-10.05"/><path class="cls-1" d="M32,104.11c1.71,3.74,3.38,8.07,3.57,11.08a92.21,92.21,0,0,1,2-13.26"/><path class="cls-1" d="M28.14,96.47s2,3.45,3.88,7.64"/><path class="cls-1" d="M45.13,108.09a7.79,7.79,0,0,1,3.27-1"/><path class="cls-1" d="M44.24,103.72c-5.52,3.62-8.65,11.47-8.65,11.47s5.23-4.93,9.54-7.1"/><path class="cls-1" d="M50.17,101.93a10,10,0,0,0-5.93,1.79"/><path class="cls-1" d="M35.59,115.19s-3.77-4.7-7.45-5.33"/><path class="cls-1" d="M13.45,107c11.42-2.36,22.14,9,22.14,9s12-10.59,23.57-7.51"/><circle class="cls-1" cx="12.54" cy="107.24" r="2.22"/><circle class="cls-1" cx="42.71" cy="91.41" r="2.35"/><circle class="cls-1" cx="61.5" cy="109.05" r="2.34"/><line class="cls-2" x1="35.73" y1="82.79" x2="35.73" y2="94.48"/><line class="cls-2" x1="65.97" y1="105.43" x2="61.5" y2="106.71"/><line class="cls-2" x1="4.92" y1="104.97" x2="9.74" y2="106.22"/><line class="cls-2" x1="16.49" y1="141.13" x2="22.14" y2="133.94"/><line class="cls-2" x1="54.45" y1="141.3" x2="48.4" y2="133.68"/></g></g></svg>