<svg width="183" height="150" viewBox="0 0 183 150" fill="none" xmlns="http://www.w3.org/2000/svg">
<g clip-path="url(#clip0_67_154)">
<path d="M129.53 33.25H128.91C127.081 30.4853 125.704 27.4474 124.83 24.25C124.411 22.2308 123.558 20.3268 122.33 18.67C121.921 18.1673 121.439 17.729 120.9 17.37C122.482 16.2653 124.36 15.6625 126.29 15.64C126.437 15.6301 126.584 15.6301 126.73 15.64C127.6 15.6347 128.466 15.7388 129.31 15.95C128.222 16.5349 127.307 17.3974 126.66 18.45C126.58 18.59 126.49 18.74 126.42 18.89C125.776 20.2196 125.457 21.6831 125.49 23.16C125.49 26 127.48 29.91 129.53 33.25Z" stroke="#EEEEEE" stroke-width="2" stroke-linejoin="round"/>
<path d="M146.88 17.42C145.765 18.1948 144.875 19.2504 144.3 20.48C143.705 21.7038 143.242 22.9878 142.92 24.31C142.151 27.1811 140.958 29.9213 139.38 32.44L138.68 32.51C140.57 29.34 142.28 25.75 142.28 23.21C142.288 22.1948 142.147 21.1839 141.86 20.21C141.585 19.2925 141.129 18.4391 140.52 17.7C139.964 17.0231 139.285 16.4566 138.52 16.03C139.157 15.8761 139.806 15.7791 140.46 15.74H141.1C143.154 15.6931 145.172 16.2797 146.88 17.42Z" stroke="#EEEEEE" stroke-width="2" stroke-linejoin="round"/>
<path d="M126.29 15.7C125.926 13.9114 125.005 12.2837 123.66 11.05" stroke="#EEEEEE" stroke-width="2" stroke-linejoin="round"/>
<path d="M133.88 14.91L133.86 7.54004" stroke="#EEEEEE" stroke-width="2" stroke-linejoin="round"/>
<path d="M142.65 11.05C141.928 11.5864 141.346 12.2893 140.955 13.099C140.563 13.9087 140.373 14.801 140.4 15.7C140.374 16.3687 140.411 17.0383 140.51 17.7" stroke="#EEEEEE" stroke-width="2" stroke-linejoin="round"/>
<path d="M130.69 15.4001C130.69 15.4001 130.98 6.14007 128.26 4.20007" stroke="#EEEEEE" stroke-width="2" stroke-linejoin="round"/>
<path d="M137.08 15.4001C137.08 15.4001 136.76 8.09009 139.16 6.22009" stroke="#EEEEEE" stroke-width="2" stroke-linejoin="round"/>
<path d="M73.21 32.3401L72.65 32.2801C70.0373 28.8908 68.0928 25.0357 66.92 20.9201C66.9258 20.8736 66.9258 20.8266 66.92 20.7801C66.06 17.4801 64.81 15.2201 63.03 14.0501C64.6083 12.945 66.4834 12.342 68.41 12.3201C68.5599 12.3101 68.7102 12.3101 68.86 12.3201C69.7257 12.3159 70.5886 12.4166 71.43 12.6201C70.3452 13.2064 69.4345 14.0688 68.79 15.1201C67.9726 16.5523 67.5644 18.1816 67.61 19.8301C67.6108 20.1211 67.6308 20.4117 67.67 20.7001C68.07 24.1501 71 29.0001 73.21 32.3401Z" stroke="#EEEEEE" stroke-width="2" stroke-linejoin="round"/>
<path d="M89.0001 14.0001C87.348 15.2457 86.1557 17.0042 85.6101 19.0001C85.4101 19.5901 85.2201 20.2201 85.0501 20.8901C83.8041 25.2393 81.7069 29.2978 78.8801 32.8301H78.4401C80.9301 29.2101 84.4401 23.4701 84.4401 19.8301C84.4401 19.5901 84.4401 19.3501 84.4401 19.1201C84.3955 17.3708 83.785 15.683 82.7001 14.3101C82.126 13.622 81.4271 13.0486 80.6401 12.6201C81.2749 12.4564 81.9251 12.3593 82.5801 12.3301H83.2201C85.273 12.2763 87.2922 12.8597 89.0001 14.0001Z" stroke="#EEEEEE" stroke-width="2" stroke-linejoin="round"/>
<path d="M65.75 7.66003C67.0876 8.90242 68.0036 10.5316 68.37 12.32C68.5991 13.2298 68.7266 14.1622 68.75 15.1" stroke="#EEEEEE" stroke-width="2" stroke-linejoin="round"/>
<path d="M75.9701 11.53L75.9501 4.16003" stroke="#EEEEEE" stroke-width="2" stroke-linejoin="round"/>
<path d="M82.61 14.3C82.61 14.3 81.7 9.61003 84.74 7.66003" stroke="#EEEEEE" stroke-width="2" stroke-linejoin="round"/>
<path d="M72.7801 12C72.7801 12 73.0701 2.75005 70.3401 0.800049" stroke="#EEEEEE" stroke-width="2" stroke-linejoin="round"/>
<path d="M79.1701 12.0001C79.1701 12.0001 78.8501 4.69008 81.2501 2.83008" stroke="#EEEEEE" stroke-width="2" stroke-linejoin="round"/>
<path d="M181.92 18.4C181.92 21.24 178.26 23.9 171.85 26.19C166.434 28.0203 160.875 29.3951 155.23 30.3C156.542 28.8782 157.405 27.1005 157.71 25.19C157.834 24.3111 157.834 23.419 157.71 22.54C157.21 18.69 154.15 16.67 150.78 16.47C149.395 16.3588 148.013 16.7105 146.85 17.47C145.735 18.2448 144.845 19.3004 144.27 20.53C143.675 21.7538 143.212 23.0378 142.89 24.36C142.121 27.2311 140.928 29.9713 139.35 32.49L138.65 32.56C140.54 29.39 142.25 25.8 142.25 23.26C142.258 22.2448 142.117 21.2339 141.83 20.26C141.555 19.3424 141.099 18.4891 140.49 17.75C139.934 17.0731 139.255 16.5066 138.49 16.08C138.049 15.8409 137.587 15.6434 137.11 15.49C136.075 15.1642 134.995 15.0022 133.91 15.01C132.828 15.0015 131.752 15.1635 130.72 15.49C130.24 15.6372 129.778 15.835 129.34 16.08C128.496 15.8688 127.63 15.7647 126.76 15.77C126.614 15.76 126.467 15.76 126.32 15.77C124.39 15.7924 122.512 16.3953 120.93 17.5C119.748 16.7245 118.338 16.3721 116.93 16.5C115.117 16.5792 113.389 17.2862 112.04 18.5C110.48 19.95 109.6 22.2 110.04 25.25C110.58 28.95 113.38 31.78 116.89 33.9C113.59 33.99 110.22 34.04 106.8 34.04C99.8 34.04 93.0401 33.84 86.6201 33.47C92.5801 31.24 99.0001 27.59 99.7901 21.8C99.9694 20.6942 99.9389 19.5645 99.7 18.47C98.96 15.06 96.0701 13.28 92.9001 13.09C91.5354 12.9566 90.1648 13.2764 89 14C87.3479 15.2457 86.1557 17.0042 85.6101 19C85.4101 19.59 85.2201 20.22 85.0501 20.89C83.8041 25.2392 81.7069 29.2977 78.88 32.83H78.4401C80.9301 29.21 84.4401 23.47 84.4401 19.83C84.4401 19.59 84.4401 19.35 84.4401 19.12C84.3955 17.3707 83.785 15.683 82.7 14.31C82.126 13.6219 81.4271 13.0485 80.64 12.62C80.1988 12.3795 79.7369 12.1787 79.2601 12.02C77.1782 11.3798 74.9519 11.3798 72.8701 12.02C72.3879 12.169 71.9222 12.3667 71.4801 12.61C70.3952 13.1963 69.4845 14.0587 68.84 15.11C68.0226 16.5423 67.6144 18.1716 67.6601 19.82C67.6608 20.111 67.6808 20.4017 67.7201 20.69C68.1601 24.15 71.0401 28.99 73.3001 32.34L72.74 32.28C70.1273 28.8907 68.1828 25.0356 67.0101 20.92C67.0158 20.8735 67.0158 20.8265 67.0101 20.78C66.1501 17.48 64.9 15.22 63.12 14.05C61.9376 13.2753 60.528 12.9229 59.12 13.05C55.04 13.29 51.41 16.18 52.23 21.76C52.2986 22.2453 52.409 22.7238 52.5601 23.19C53.5001 26.19 55.95 28.5 58.93 30.34C53.1328 29.4235 47.4228 28.0219 41.8601 26.15C35.4601 23.86 31.8 21.15 31.8 18.36C31.8 12.36 48.2201 7.12001 72.2601 4.53001C73.5001 4.39001 74.76 4.27001 76.03 4.15001C77.51 4.01001 79.0301 3.88001 80.5401 3.76001C88.7401 3.12001 97.6201 2.76001 106.9 2.76001C148.29 2.81001 181.92 9.79001 181.92 18.4Z" stroke="#EEEEEE" stroke-width="2" stroke-miterlimit="10"/>
<path d="M99.7901 21.8001C98.9501 27.5901 92.5801 31.2401 86.6401 33.4101C83.9801 33.2601 81.3701 33.0701 78.8401 32.8601C81.6634 29.327 83.7572 25.2685 85.0001 20.9201C85.1701 20.2501 85.3601 19.6201 85.5601 19.0301C86.1129 17.0163 87.3239 15.2456 89.0001 14.0001C90.1711 13.2539 91.5576 12.9196 92.9401 13.0501C96.1101 13.2401 99.0001 15.0501 99.7401 18.4301C99.9708 19.5401 99.9877 20.6838 99.7901 21.8001Z" stroke="#EEEEEE" stroke-width="2" stroke-miterlimit="10"/>
<path d="M84.3701 19.8201C84.3701 23.4601 80.8901 29.2001 78.3701 32.8201C76.6001 32.6801 74.8701 32.5101 73.1801 32.3401C71.0001 29.0001 68.0701 24.1501 67.6301 20.6901C67.5909 20.4017 67.5708 20.1111 67.5701 19.8201C67.5245 18.1716 67.9327 16.5423 68.7501 15.1101C69.3945 14.0587 70.3053 13.1963 71.3901 12.6101C71.8314 12.3599 72.2972 12.1555 72.7801 12.0001C74.862 11.3598 77.0882 11.3598 79.1701 12.0001C79.647 12.1587 80.1088 12.3595 80.5501 12.6001C81.3371 13.0285 82.0361 13.6019 82.6101 14.2901C83.695 15.663 84.3056 17.3507 84.3501 19.1001C84.3601 19.3401 84.3701 19.5801 84.3701 19.8201Z" stroke="#EEEEEE" stroke-width="2" stroke-miterlimit="10"/>
<path d="M72.6501 32.2801C67.7101 31.7501 63.0901 31.1101 58.8601 30.3801C55.8601 28.5401 53.4301 26.2001 52.4901 23.2301C52.339 22.7639 52.2286 22.2854 52.1601 21.8001C51.3301 16.2201 55.0001 13.3301 59.0001 13.0901C60.408 12.963 61.8176 13.3154 63.0001 14.0901C64.7801 15.2601 66.0001 17.5201 66.8901 20.8201C66.8958 20.8666 66.8958 20.9136 66.8901 20.9601C68.0766 25.0639 70.0312 28.9052 72.6501 32.2801Z" stroke="#EEEEEE" stroke-width="2" stroke-miterlimit="10"/>
<path d="M58.85 30.3801C53.0528 29.4636 47.3427 28.062 41.78 26.1901C45.2797 24.9648 48.8535 23.9628 52.48 23.1901C53.42 26.2001 55.87 28.5401 58.85 30.3801Z" stroke="#EEEEEE" stroke-width="2" stroke-miterlimit="10"/>
<path d="M73.21 32.3401L72.65 32.2801C70.0373 28.8908 68.0928 25.0357 66.92 20.9201C66.9258 20.8736 66.9258 20.8266 66.92 20.7801L67.67 20.6901C68.07 24.1501 71 29.0001 73.21 32.3401Z" stroke="#EEEEEE" stroke-width="2" stroke-miterlimit="10"/>
<path d="M85.57 19C85.37 19.59 85.18 20.22 85.01 20.89C83.7641 25.2392 81.6668 29.2977 78.84 32.83H78.4C80.89 29.21 84.4 23.47 84.4 19.83C84.4 19.59 84.4 19.35 84.4 19.12L85.57 19Z" stroke="#EEEEEE" stroke-width="2" stroke-miterlimit="10"/>
<path d="M142.28 23.21C142.28 25.75 140.57 29.34 138.68 32.51C135.68 32.8 132.68 33.05 129.53 33.25C127.53 29.91 125.53 25.95 125.53 23.25C125.497 21.7731 125.816 20.3096 126.46 18.98C126.53 18.83 126.62 18.68 126.7 18.54C127.347 17.4874 128.262 16.6249 129.35 16.04C129.788 15.795 130.25 15.5973 130.73 15.45C131.762 15.1235 132.838 14.9615 133.92 14.97C135.005 14.9623 136.085 15.1242 137.12 15.45C137.597 15.6034 138.059 15.8009 138.5 16.04C139.265 16.4666 139.944 17.0331 140.5 17.71C141.109 18.4491 141.565 19.3025 141.84 20.22C142.133 21.1897 142.281 22.1972 142.28 23.21Z" stroke="#EEEEEE" stroke-width="2" stroke-miterlimit="10"/>
<path d="M128.91 33.29C125.03 33.54 121.02 33.73 116.91 33.84C113.4 31.72 110.6 28.84 110.06 25.19C109.62 22.14 110.5 19.89 112.06 18.44C113.409 17.2262 115.137 16.5192 116.95 16.44C118.358 16.3121 119.768 16.6645 120.95 17.44C121.489 17.7989 121.971 18.2372 122.38 18.74C123.608 20.3967 124.461 22.3007 124.88 24.32C125.742 27.5039 127.102 30.5313 128.91 33.29Z" stroke="#EEEEEE" stroke-width="2" stroke-miterlimit="10"/>
<path d="M116.91 33.84C113.61 33.93 110.24 33.98 106.82 33.98C99.82 33.98 93.06 33.78 86.64 33.41C92.58 31.24 99 27.59 99.79 21.8C99.9694 20.6942 99.9389 19.5645 99.7 18.47C102.04 18.47 104.42 18.4 106.82 18.4C108.58 18.4 110.33 18.4 112.06 18.4C110.5 19.85 109.62 22.1 110.06 25.15C110.6 28.89 113.4 31.72 116.91 33.84Z" stroke="#EEEEEE" stroke-width="2" stroke-miterlimit="10"/>
<path d="M157.71 25.19C157.405 27.1005 156.542 28.8782 155.23 30.3C150.43 31.15 145.11 31.87 139.38 32.44C140.958 29.9213 142.151 27.1811 142.92 24.31C143.242 22.9878 143.705 21.7038 144.3 20.48C144.875 19.2504 145.765 18.1948 146.88 17.42C148.043 16.6606 149.425 16.3088 150.81 16.42C154.18 16.62 157.24 18.64 157.74 22.49C157.859 23.3868 157.849 24.2961 157.71 25.19Z" stroke="#EEEEEE" stroke-width="2" stroke-miterlimit="10"/>
<path d="M141.86 20.2001L144.3 20.4801C143.705 21.7038 143.242 22.9878 142.92 24.3101C142.151 27.1812 140.958 29.9214 139.38 32.4401L138.68 32.5101C140.57 29.3401 142.28 25.7501 142.28 23.2101C142.289 22.1915 142.148 21.1772 141.86 20.2001Z" stroke="#EEEEEE" stroke-width="2" stroke-miterlimit="10"/>
<path d="M171.85 26.19C166.434 28.0204 160.875 29.3951 155.23 30.3C156.542 28.8782 157.405 27.1005 157.71 25.19C157.834 24.3111 157.834 23.419 157.71 22.54C162.509 23.3948 167.237 24.615 171.85 26.19Z" stroke="#EEEEEE" stroke-width="2" stroke-miterlimit="10"/>
<path d="M181.92 18.4V78.06C181.92 86.497 180.258 94.8513 177.029 102.646C173.8 110.441 169.067 117.523 163.101 123.488C157.135 129.453 150.052 134.185 142.257 137.413C134.462 140.641 126.107 142.301 117.67 142.3H96.0001C87.5606 142.305 79.2028 140.648 71.4042 137.422C63.6057 134.196 56.5192 129.464 50.5497 123.499C44.5802 117.533 39.8448 110.449 36.6139 102.653C33.383 94.8563 31.7201 86.4995 31.7201 78.06V18.4C31.7201 21.24 35.3801 23.9 41.7801 26.19C47.3428 28.062 53.0529 29.4635 58.8501 30.38C63.0801 31.11 67.7001 31.75 72.6401 32.28L73.2001 32.34C74.8901 32.51 76.6201 32.68 78.3901 32.82H78.8301C81.3601 33.03 83.9701 33.22 86.6301 33.37C93.0501 33.74 99.8201 33.94 106.81 33.94C110.23 33.94 113.6 33.94 116.9 33.8C121.01 33.69 125.02 33.5 128.9 33.25H129.52C132.66 33.05 135.72 32.8 138.67 32.51L139.37 32.44C145.1 31.87 150.42 31.15 155.22 30.3C160.865 29.3951 166.424 28.0204 171.84 26.19C178.26 23.9 181.92 21.24 181.92 18.4Z" stroke="#EEEEEE" stroke-width="2" stroke-miterlimit="10"/>
<path d="M58.62 92.2C67.87 94.11 66.34 105.2 66.34 105.2C66.34 105.2 74.07 113.9 67.76 120.29C62.02 126.11 37.39 114.61 37.39 114.61C37.39 114.61 48.89 90.19 58.62 92.2Z" fill="#1F1F1F" stroke="#EEEEEE" stroke-width="2" stroke-miterlimit="10"/>
<path d="M64.4701 129.92C65.4701 139.31 54.4701 141.3 54.4701 141.3C54.4701 141.3 48.5901 151.3 40.5601 147.3C33.2501 143.64 36.5601 116.66 36.5601 116.66C36.5601 116.66 63.3801 120.05 64.4701 129.92Z" fill="#1F1F1F" stroke="#EEEEEE" stroke-width="2" stroke-miterlimit="10"/>
<path d="M20.94 86.11C25.61 77.9 35.73 82.79 35.73 82.79C35.73 82.79 46.39 78.14 50.52 86.11C54.28 93.36 35.73 113.24 35.73 113.24C35.73 113.24 16 94.74 20.94 86.11Z" stroke="#1F1F1F" stroke-width="2" stroke-miterlimit="10"/>
<path d="M20.94 86.11C25.61 77.9 35.73 82.79 35.73 82.79C35.73 82.79 46.39 78.14 50.52 86.11C54.28 93.36 35.73 113.24 35.73 113.24C35.73 113.24 16 94.74 20.94 86.11Z" fill="#1F1F1F" stroke="#EEEEEE" stroke-width="2" stroke-miterlimit="10"/>
<path d="M30.4 147.14C21.8 151.03 16.49 141.14 16.49 141.14C16.49 141.14 5.13 138.64 6.49 129.76C7.71 121.69 34.4 116.51 34.4 116.51C34.4 116.51 39.45 143.05 30.4 147.14Z" stroke="#EEEEEE" stroke-width="2" stroke-miterlimit="10"/>
<path d="M3.50004 120.06C-2.85996 113.06 4.92004 104.97 4.92004 104.97C4.92004 104.97 3.78004 93.4 12.64 91.97C20.7 90.64 33.87 114.42 33.87 114.42C33.87 114.42 10.19 127.41 3.50004 120.06Z" stroke="#EEEEEE" stroke-width="2" stroke-miterlimit="10"/>
<path d="M35.8004 127.94L35.8093 127.94C35.9696 127.943 36.1264 127.893 36.2546 127.796C36.3829 127.7 36.4754 127.564 36.5175 127.409L36.5194 127.402L36.5216 127.395C36.7555 126.626 37.2314 125.953 37.8786 125.476C38.5243 125.001 39.3059 124.746 40.1077 124.75C40.9465 124.738 41.7636 125.017 42.4208 125.538L42.4227 125.54C42.5444 125.637 42.6941 125.693 42.8496 125.7C42.9657 125.69 43.0785 125.656 43.1802 125.599C43.2873 125.539 43.3794 125.455 43.4495 125.355L43.4526 125.35L43.4526 125.35C43.5188 125.257 43.5609 125.149 43.5751 125.036C43.5893 124.922 43.5751 124.807 43.5338 124.701L43.5288 124.688L43.529 124.688C43.3294 124.128 43.266 123.528 43.3438 122.939C43.4217 122.349 43.6386 121.786 43.9768 121.297C44.3149 120.808 44.7646 120.406 45.2886 120.125C45.8126 119.844 46.396 119.691 46.9905 119.68L47 119.68V119.68H47.1382C47.2973 119.679 47.4519 119.627 47.5795 119.532C47.7076 119.437 47.8019 119.303 47.8488 119.15C47.8956 118.998 47.8925 118.834 47.84 118.683C47.7876 118.533 47.6887 118.403 47.5577 118.313C47.5574 118.313 47.557 118.312 47.5567 118.312L47.84 117.9C47.4028 117.603 47.0448 117.204 46.7975 116.736C46.5501 116.269 46.4208 115.749 46.4208 115.22C46.4208 114.692 46.5501 114.171 46.7975 113.704C47.0448 113.237 47.4028 112.837 47.84 112.54L35.8004 127.94ZM35.8004 127.94L35.7916 127.94C35.6329 127.943 35.4779 127.892 35.3514 127.797C35.2248 127.701 35.1339 127.565 35.0933 127.412L35.0935 127.412L35.0895 127.399C34.8597 126.62 34.3834 125.937 33.7321 125.452C33.0819 124.968 32.2923 124.708 31.4817 124.71M35.8004 127.94L31.4817 124.71M23.9431 118.272C24.4451 117.928 24.8557 117.466 25.1394 116.928C25.4232 116.389 25.5715 115.789 25.5715 115.18C25.5715 114.571 25.4232 113.971 25.1394 113.433C24.8557 112.894 24.445 112.432 23.9428 112.088L23.9429 112.088L23.9328 112.081C23.8017 111.996 23.7025 111.87 23.6505 111.722C23.5985 111.575 23.5967 111.414 23.6452 111.265L23.6488 111.254L23.6519 111.243C23.6933 111.093 23.7835 110.962 23.9081 110.869C24.0328 110.776 24.1848 110.727 24.3402 110.73L24.3402 110.73H24.35L24.49 110.73L24.4908 110.73C25.0899 110.729 25.68 110.585 26.2117 110.309C26.7435 110.033 27.2014 109.634 27.5471 109.144C27.8929 108.655 28.1164 108.09 28.1989 107.497C28.2815 106.903 28.2206 106.299 28.0216 105.734L28.0183 105.725L28.0147 105.716C27.9726 105.61 27.9574 105.495 27.9706 105.381C27.9837 105.268 28.0248 105.16 28.0901 105.066C28.1633 104.961 28.2602 104.875 28.373 104.815C28.4842 104.756 28.6076 104.723 28.7335 104.72C28.8902 104.722 29.0416 104.777 29.1628 104.877L29.1627 104.877L29.173 104.885C29.6546 105.259 30.2205 105.511 30.8215 105.616C31.4225 105.722 32.0402 105.679 32.6208 105.491C33.2014 105.304 33.7272 104.976 34.1524 104.539C34.5775 104.101 34.8891 103.566 35.06 102.98L35.0601 102.98L35.0633 102.968C35.104 102.815 35.1948 102.679 35.3214 102.584C35.4479 102.488 35.6029 102.437 35.7616 102.44L35.7694 102.44L35.7773 102.44C35.9375 102.438 36.094 102.488 36.2227 102.584C36.3514 102.679 36.4451 102.814 36.4894 102.968C36.6573 103.555 36.9665 104.091 37.3901 104.53C37.8137 104.97 38.3386 105.299 38.9189 105.488C39.4992 105.677 40.117 105.721 40.7182 105.616C41.3194 105.511 41.8857 105.26 42.3672 104.885L42.3672 104.885L42.3726 104.88C42.4949 104.782 42.6452 104.726 42.8015 104.72C42.9173 104.729 43.0299 104.762 43.1313 104.819C43.2375 104.879 43.3286 104.962 43.3973 105.062L43.3972 105.062L43.4026 105.07C43.4688 105.163 43.5109 105.271 43.5251 105.384C43.5393 105.498 43.5251 105.613 43.4838 105.719L43.4836 105.719L43.4795 105.731C43.2741 106.302 43.2087 106.914 43.2889 107.515C43.3691 108.116 43.5925 108.69 43.9403 109.187L43.9421 109.189C44.2885 109.678 44.7469 110.076 45.2789 110.351C45.8109 110.626 46.401 110.77 46.9998 110.77H47H47.135C47.2916 110.774 47.4432 110.826 47.5685 110.92C47.6948 111.015 47.7878 111.148 47.8344 111.299C47.881 111.45 47.8786 111.612 47.8278 111.761C47.7773 111.91 47.6817 112.038 47.5544 112.13L23.66 117.86M23.9431 118.272C23.943 118.272 23.9429 118.272 23.9428 118.272L23.66 117.86M23.9431 118.272C23.9431 118.272 23.9432 118.272 23.9432 118.272L23.66 117.86M23.9431 118.272C23.812 118.362 23.713 118.492 23.6603 118.642C23.6076 118.792 23.6041 118.955 23.6502 119.107C23.6963 119.26 23.7896 119.393 23.9167 119.489C24.043 119.584 24.1961 119.637 24.3541 119.64M23.66 117.86C23.4414 118.01 23.2763 118.226 23.1885 118.476C23.1007 118.727 23.0948 118.998 23.1716 119.252C23.2484 119.506 23.404 119.729 23.6159 119.889C23.8277 120.048 24.0848 120.136 24.35 120.14M24.3541 119.64H24.35V120.14M24.3541 119.64H24.49H24.4924C25.0917 119.643 25.6816 119.789 26.213 120.066C26.7443 120.343 27.2017 120.744 27.5471 121.233C27.8924 121.723 28.1157 122.288 28.1982 122.882C28.2808 123.476 28.2203 124.08 28.0217 124.646L28.0184 124.655L28.0147 124.665C27.9726 124.771 27.9574 124.885 27.9706 124.999C27.9836 125.111 28.0241 125.219 28.0884 125.312M24.3541 119.64C24.3551 119.64 24.3562 119.64 24.3572 119.64L24.35 120.14M24.35 120.14L28.0884 125.312M28.0884 125.312C28.0879 125.311 28.0873 125.31 28.0867 125.309L27.68 125.6M28.0884 125.312L24.49 120.14C25.0096 120.143 25.521 120.269 25.9817 120.51C26.4424 120.75 26.839 121.097 27.1384 121.522C27.4378 121.946 27.6314 122.436 27.703 122.951C27.7746 123.466 27.7221 123.99 27.55 124.48C27.4774 124.663 27.4512 124.861 27.4739 125.056C27.4966 125.252 27.5674 125.439 27.68 125.6M28.0884 125.312C28.089 125.312 28.0895 125.313 28.0901 125.314L27.68 125.6M28.0884 125.312C28.1635 125.416 28.2614 125.501 28.3747 125.562C28.4851 125.621 28.6072 125.654 28.7321 125.66M27.68 125.6C27.8 125.768 27.9573 125.906 28.1394 126.003C28.3215 126.1 28.5237 126.154 28.73 126.16M28.73 126.16L28.7195 125.66C28.7237 125.66 28.7279 125.66 28.7321 125.66M28.73 126.16L28.7449 125.66C28.7406 125.66 28.7363 125.66 28.7321 125.66M28.73 126.16C29.0028 126.154 29.2662 126.06 29.48 125.89C30.0497 125.442 30.7553 125.202 31.48 125.21C32.1836 125.207 32.8692 125.433 33.4336 125.853C33.998 126.273 34.4108 126.865 34.61 127.54L31.4817 124.71M28.7321 125.66C28.8912 125.654 29.0445 125.597 29.1695 125.498L29.1709 125.497C29.8293 124.979 30.6444 124.702 31.4817 124.71" fill="#EEEEEE" stroke="#EEEEEE"/>
<mask id="path-36-inside-1_67_154" fill="white">
<path d="M35.8 103C35.8276 102.996 35.8558 102.997 35.8829 103.004C35.91 103.011 35.9355 103.023 35.9578 103.04C35.9802 103.056 35.999 103.077 36.0131 103.102C36.0272 103.126 36.0363 103.152 36.04 103.18C36.2964 104.063 36.8333 104.838 37.5694 105.388C38.3056 105.938 39.2009 106.234 40.12 106.23C41.0554 106.23 41.9638 105.917 42.7 105.34C42.7389 105.305 42.7881 105.284 42.84 105.28C42.8854 105.284 42.9294 105.298 42.9691 105.32C43.0087 105.343 43.0431 105.373 43.07 105.41C43.07 105.41 43.13 105.5 43.07 105.62C42.8429 106.261 42.7728 106.947 42.8655 107.62C42.9582 108.293 43.2111 108.935 43.603 109.49C43.9948 110.045 44.5141 110.499 45.1174 110.812C45.7207 111.125 46.3903 111.289 47.07 111.29H47.21C47.2644 111.287 47.3184 111.302 47.363 111.333C47.4075 111.365 47.4401 111.411 47.4552 111.463C47.4703 111.515 47.4672 111.571 47.4462 111.622C47.4253 111.672 47.3878 111.714 47.34 111.74C46.7728 112.131 46.3091 112.653 45.9887 113.263C45.6683 113.873 45.5009 114.551 45.5009 115.24C45.5009 115.929 45.6683 116.607 45.9887 117.217C46.3091 117.827 46.7728 118.349 47.34 118.74C47.3879 118.764 47.425 118.805 47.4436 118.855C47.4622 118.905 47.4609 118.961 47.44 119.01C47.4302 119.065 47.4 119.114 47.3554 119.147C47.3109 119.181 47.2554 119.196 47.2 119.19H47.07C46.3916 119.193 45.7237 119.358 45.1219 119.671C44.5201 119.984 44.0017 120.436 43.61 120.99C43.2156 121.544 42.9613 122.186 42.869 122.86C42.7767 123.534 42.8491 124.22 43.08 124.86C43.08 124.98 43.08 125.03 43.08 125.07C43.0552 125.11 43.0215 125.143 42.9816 125.167C42.9417 125.192 42.8966 125.206 42.85 125.21C42.7963 125.205 42.7465 125.18 42.71 125.14C42.1663 124.707 41.5245 124.414 40.841 124.287C40.1575 124.16 39.4533 124.204 38.7904 124.413C38.1276 124.623 37.5264 124.992 37.0398 125.488C36.5532 125.985 36.1961 126.593 36 127.26C35.9963 127.288 35.9872 127.314 35.9731 127.339C35.959 127.363 35.9402 127.384 35.9178 127.4C35.8955 127.417 35.87 127.429 35.8429 127.436C35.8158 127.443 35.7876 127.444 35.76 127.44C35.7058 127.446 35.6515 127.43 35.6086 127.397C35.5657 127.363 35.5375 127.314 35.53 127.26C35.3353 126.597 34.9819 125.992 34.5005 125.496C34.0191 125.001 33.4241 124.63 32.7672 124.416C32.1102 124.203 31.411 124.152 30.7302 124.27C30.0494 124.387 29.4075 124.669 28.86 125.09C28.78 125.16 28.74 125.16 28.72 125.16C28.6734 125.156 28.6284 125.142 28.5884 125.117C28.5485 125.093 28.5148 125.06 28.49 125.02C28.49 125.02 28.44 124.93 28.49 124.81C28.7171 124.169 28.7872 123.484 28.6945 122.81C28.6018 122.137 28.3489 121.496 27.957 120.94C27.5652 120.385 27.0459 119.931 26.4426 119.618C25.8393 119.305 25.1697 119.141 24.49 119.14H24.36C24.3058 119.146 24.2515 119.13 24.2086 119.097C24.1657 119.063 24.1375 119.014 24.13 118.96C24.118 118.936 24.1108 118.911 24.1089 118.884C24.1069 118.858 24.1102 118.831 24.1186 118.806C24.127 118.781 24.1402 118.758 24.1576 118.738C24.1751 118.718 24.1963 118.702 24.22 118.69C24.7872 118.299 25.251 117.777 25.5713 117.167C25.8917 116.557 26.0591 115.879 26.0591 115.19C26.0591 114.501 25.8917 113.823 25.5713 113.213C25.251 112.603 24.7872 112.081 24.22 111.69C24.1713 111.664 24.1346 111.621 24.1178 111.568C24.101 111.516 24.1054 111.459 24.13 111.41C24.1337 111.384 24.1426 111.358 24.1562 111.335C24.1698 111.312 24.1878 111.292 24.2092 111.277C24.2307 111.261 24.255 111.249 24.2809 111.243C24.3068 111.237 24.3337 111.236 24.36 111.24H24.49C25.1697 111.239 25.8393 111.075 26.4426 110.762C27.0459 110.449 27.5652 109.995 27.957 109.44C28.3489 108.885 28.6018 108.243 28.6945 107.57C28.7872 106.897 28.7171 106.211 28.49 105.57C28.4716 105.538 28.4619 105.502 28.4619 105.465C28.4619 105.428 28.4716 105.392 28.49 105.36C28.5169 105.323 28.5513 105.293 28.591 105.27C28.6306 105.248 28.6746 105.234 28.72 105.23C28.7723 105.233 28.822 105.254 28.86 105.29C29.406 105.714 30.0474 105.998 30.7283 106.117C31.4091 106.237 32.1088 106.188 32.7665 105.975C33.4241 105.762 34.0197 105.391 34.5013 104.895C34.983 104.4 35.3361 103.794 35.53 103.13C35.5375 103.076 35.5657 103.027 35.6086 102.994C35.6515 102.96 35.7058 102.944 35.76 102.95M35.76 100.95C35.2737 100.942 34.7985 101.095 34.4092 101.387C34.0199 101.678 33.7387 102.091 33.61 102.56C33.5091 102.912 33.3232 103.235 33.0687 103.498C32.8143 103.762 32.499 103.959 32.1505 104.073C31.8021 104.186 31.4311 104.213 31.0701 104.149C30.7091 104.086 30.3691 103.935 30.08 103.71C29.6927 103.403 29.2141 103.234 28.72 103.23C28.3601 103.231 28.0056 103.318 27.686 103.483C27.3664 103.649 27.091 103.888 26.8827 104.182C26.6743 104.475 26.539 104.814 26.4881 105.17C26.4372 105.527 26.4722 105.89 26.59 106.23C26.7121 106.568 26.7508 106.931 26.703 107.288C26.6551 107.645 26.5221 107.984 26.3151 108.279C26.1081 108.573 25.8333 108.813 25.5138 108.979C25.1944 109.144 24.8398 109.231 24.48 109.23H24.35C23.8714 109.232 23.4059 109.387 23.0213 109.672C22.6367 109.957 22.353 110.357 22.2113 110.814C22.0697 111.271 22.0776 111.762 22.2338 112.214C22.39 112.667 22.6865 113.058 23.08 113.33C23.3832 113.535 23.6314 113.812 23.803 114.135C23.9747 114.458 24.0644 114.819 24.0644 115.185C24.0644 115.551 23.9747 115.912 23.803 116.235C23.6314 116.558 23.3832 116.835 23.08 117.04C22.6865 117.312 22.39 117.703 22.2338 118.156C22.0776 118.608 22.0697 119.099 22.2113 119.556C22.353 120.013 22.6367 120.413 23.0213 120.698C23.4059 120.983 23.8714 121.138 24.35 121.14H24.48C24.839 121.142 25.1924 121.23 25.5106 121.396C25.8288 121.562 26.1026 121.802 26.3091 122.096C26.5156 122.389 26.6489 122.728 26.6978 123.084C26.7466 123.439 26.7097 123.802 26.59 124.14C26.4745 124.48 26.4413 124.843 26.4932 125.198C26.5451 125.553 26.6806 125.891 26.8885 126.184C27.0964 126.477 27.3708 126.716 27.6892 126.883C28.0076 127.049 28.3609 127.137 28.72 127.14C29.2141 127.136 29.6927 126.967 30.08 126.66C30.3692 126.437 30.7084 126.288 31.0682 126.225C31.4279 126.163 31.7975 126.189 32.145 126.301C32.4925 126.413 32.8075 126.608 33.0627 126.87C33.318 127.131 33.5058 127.45 33.61 127.8C33.743 128.269 34.0254 128.682 34.4144 128.976C34.8033 129.27 35.2775 129.429 35.765 129.429C36.2525 129.429 36.7267 129.27 37.1157 128.976C37.5046 128.682 37.787 128.269 37.92 127.8C38.0567 127.334 38.3413 126.924 38.7309 126.634C39.1206 126.344 39.5941 126.188 40.08 126.19C40.5732 126.19 41.0522 126.355 41.44 126.66C41.828 126.966 42.3062 127.134 42.8 127.14C43.1599 127.139 43.5144 127.052 43.834 126.887C44.1536 126.721 44.429 126.482 44.6374 126.188C44.8457 125.895 44.981 125.556 45.0319 125.2C45.0828 124.843 45.0479 124.48 44.93 124.14C44.8103 123.802 44.7734 123.439 44.8223 123.084C44.8711 122.728 45.0044 122.389 45.2109 122.096C45.4175 121.802 45.6913 121.562 46.0095 121.396C46.3277 121.23 46.681 121.142 47.04 121.14H47.18C47.6578 121.136 48.1218 120.979 48.5048 120.694C48.8878 120.408 49.1699 120.008 49.3102 119.551C49.4506 119.094 49.4419 118.605 49.2855 118.153C49.129 117.702 48.8329 117.312 48.44 117.04C48.1389 116.833 47.8926 116.556 47.7225 116.233C47.5523 115.91 47.4634 115.55 47.4634 115.185C47.4634 114.82 47.5523 114.46 47.7225 114.137C47.8926 113.814 48.1389 113.537 48.44 113.33C48.8329 113.058 49.129 112.668 49.2855 112.217C49.4419 111.765 49.4506 111.276 49.3102 110.819C49.1699 110.362 48.8878 109.962 48.5048 109.676C48.1218 109.391 47.6578 109.234 47.18 109.23H47.04C46.681 109.228 46.3277 109.141 46.0095 108.974C45.6913 108.808 45.4175 108.568 45.2109 108.274C45.0044 107.981 44.8711 107.642 44.8223 107.286C44.7734 106.931 44.8103 106.569 44.93 106.23C45.0979 105.772 45.1117 105.272 44.9694 104.806C44.8271 104.339 44.5364 103.932 44.1416 103.645C43.7467 103.359 43.2692 103.21 42.7816 103.22C42.294 103.229 41.823 103.398 41.44 103.7C41.0522 104.005 40.5732 104.17 40.08 104.17C39.6082 104.154 39.1535 103.99 38.7802 103.701C38.407 103.412 38.134 103.013 38 102.56C37.8569 102.094 37.5635 101.688 37.1656 101.406C36.7676 101.123 36.2875 100.981 35.8 101L35.76 100.95Z"/>
</mask>
<path d="M35.8 103C35.8276 102.996 35.8558 102.997 35.8829 103.004C35.91 103.011 35.9355 103.023 35.9578 103.04C35.9802 103.056 35.999 103.077 36.0131 103.102C36.0272 103.126 36.0363 103.152 36.04 103.18C36.2964 104.063 36.8333 104.838 37.5694 105.388C38.3056 105.938 39.2009 106.234 40.12 106.23C41.0554 106.23 41.9638 105.917 42.7 105.34C42.7389 105.305 42.7881 105.284 42.84 105.28C42.8854 105.284 42.9294 105.298 42.9691 105.32C43.0087 105.343 43.0431 105.373 43.07 105.41C43.07 105.41 43.13 105.5 43.07 105.62C42.8429 106.261 42.7728 106.947 42.8655 107.62C42.9582 108.293 43.2111 108.935 43.603 109.49C43.9948 110.045 44.5141 110.499 45.1174 110.812C45.7207 111.125 46.3903 111.289 47.07 111.29H47.21C47.2644 111.287 47.3184 111.302 47.363 111.333C47.4075 111.365 47.4401 111.411 47.4552 111.463C47.4703 111.515 47.4672 111.571 47.4462 111.622C47.4253 111.672 47.3878 111.714 47.34 111.74C46.7728 112.131 46.3091 112.653 45.9887 113.263C45.6683 113.873 45.5009 114.551 45.5009 115.24C45.5009 115.929 45.6683 116.607 45.9887 117.217C46.3091 117.827 46.7728 118.349 47.34 118.74C47.3879 118.764 47.425 118.805 47.4436 118.855C47.4622 118.905 47.4609 118.961 47.44 119.01C47.4302 119.065 47.4 119.114 47.3554 119.147C47.3109 119.181 47.2554 119.196 47.2 119.19H47.07C46.3916 119.193 45.7237 119.358 45.1219 119.671C44.5201 119.984 44.0017 120.436 43.61 120.99C43.2156 121.544 42.9613 122.186 42.869 122.86C42.7767 123.534 42.8491 124.22 43.08 124.86C43.08 124.98 43.08 125.03 43.08 125.07C43.0552 125.11 43.0215 125.143 42.9816 125.167C42.9417 125.192 42.8966 125.206 42.85 125.21C42.7963 125.205 42.7465 125.18 42.71 125.14C42.1663 124.707 41.5245 124.414 40.841 124.287C40.1575 124.16 39.4533 124.204 38.7904 124.413C38.1276 124.623 37.5264 124.992 37.0398 125.488C36.5532 125.985 36.1961 126.593 36 127.26C35.9963 127.288 35.9872 127.314 35.9731 127.339C35.959 127.363 35.9402 127.384 35.9178 127.4C35.8955 127.417 35.87 127.429 35.8429 127.436C35.8158 127.443 35.7876 127.444 35.76 127.44C35.7058 127.446 35.6515 127.43 35.6086 127.397C35.5657 127.363 35.5375 127.314 35.53 127.26C35.3353 126.597 34.9819 125.992 34.5005 125.496C34.0191 125.001 33.4241 124.63 32.7672 124.416C32.1102 124.203 31.411 124.152 30.7302 124.27C30.0494 124.387 29.4075 124.669 28.86 125.09C28.78 125.16 28.74 125.16 28.72 125.16C28.6734 125.156 28.6284 125.142 28.5884 125.117C28.5485 125.093 28.5148 125.06 28.49 125.02C28.49 125.02 28.44 124.93 28.49 124.81C28.7171 124.169 28.7872 123.484 28.6945 122.81C28.6018 122.137 28.3489 121.496 27.957 120.94C27.5652 120.385 27.0459 119.931 26.4426 119.618C25.8393 119.305 25.1697 119.141 24.49 119.14H24.36C24.3058 119.146 24.2515 119.13 24.2086 119.097C24.1657 119.063 24.1375 119.014 24.13 118.96C24.118 118.936 24.1108 118.911 24.1089 118.884C24.1069 118.858 24.1102 118.831 24.1186 118.806C24.127 118.781 24.1402 118.758 24.1576 118.738C24.1751 118.718 24.1963 118.702 24.22 118.69C24.7872 118.299 25.251 117.777 25.5713 117.167C25.8917 116.557 26.0591 115.879 26.0591 115.19C26.0591 114.501 25.8917 113.823 25.5713 113.213C25.251 112.603 24.7872 112.081 24.22 111.69C24.1713 111.664 24.1346 111.621 24.1178 111.568C24.101 111.516 24.1054 111.459 24.13 111.41C24.1337 111.384 24.1426 111.358 24.1562 111.335C24.1698 111.312 24.1878 111.292 24.2092 111.277C24.2307 111.261 24.255 111.249 24.2809 111.243C24.3068 111.237 24.3337 111.236 24.36 111.24H24.49C25.1697 111.239 25.8393 111.075 26.4426 110.762C27.0459 110.449 27.5652 109.995 27.957 109.44C28.3489 108.885 28.6018 108.243 28.6945 107.57C28.7872 106.897 28.7171 106.211 28.49 105.57C28.4716 105.538 28.4619 105.502 28.4619 105.465C28.4619 105.428 28.4716 105.392 28.49 105.36C28.5169 105.323 28.5513 105.293 28.591 105.27C28.6306 105.248 28.6746 105.234 28.72 105.23C28.7723 105.233 28.822 105.254 28.86 105.29C29.406 105.714 30.0474 105.998 30.7283 106.117C31.4091 106.237 32.1088 106.188 32.7665 105.975C33.4241 105.762 34.0197 105.391 34.5013 104.895C34.983 104.4 35.3361 103.794 35.53 103.13C35.5375 103.076 35.5657 103.027 35.6086 102.994C35.6515 102.96 35.7058 102.944 35.76 102.95M35.76 100.95C35.2737 100.942 34.7985 101.095 34.4092 101.387C34.0199 101.678 33.7387 102.091 33.61 102.56C33.5091 102.912 33.3232 103.235 33.0687 103.498C32.8143 103.762 32.499 103.959 32.1505 104.073C31.8021 104.186 31.4311 104.213 31.0701 104.149C30.7091 104.086 30.3691 103.935 30.08 103.71C29.6927 103.403 29.2141 103.234 28.72 103.23C28.3601 103.231 28.0056 103.318 27.686 103.483C27.3664 103.649 27.091 103.888 26.8827 104.182C26.6743 104.475 26.539 104.814 26.4881 105.17C26.4372 105.527 26.4722 105.89 26.59 106.23C26.7121 106.568 26.7508 106.931 26.703 107.288C26.6551 107.645 26.5221 107.984 26.3151 108.279C26.1081 108.573 25.8333 108.813 25.5138 108.979C25.1944 109.144 24.8398 109.231 24.48 109.23H24.35C23.8714 109.232 23.4059 109.387 23.0213 109.672C22.6367 109.957 22.353 110.357 22.2113 110.814C22.0697 111.271 22.0776 111.762 22.2338 112.214C22.39 112.667 22.6865 113.058 23.08 113.33C23.3832 113.535 23.6314 113.812 23.803 114.135C23.9747 114.458 24.0644 114.819 24.0644 115.185C24.0644 115.551 23.9747 115.912 23.803 116.235C23.6314 116.558 23.3832 116.835 23.08 117.04C22.6865 117.312 22.39 117.703 22.2338 118.156C22.0776 118.608 22.0697 119.099 22.2113 119.556C22.353 120.013 22.6367 120.413 23.0213 120.698C23.4059 120.983 23.8714 121.138 24.35 121.14H24.48C24.839 121.142 25.1924 121.23 25.5106 121.396C25.8288 121.562 26.1026 121.802 26.3091 122.096C26.5156 122.389 26.6489 122.728 26.6978 123.084C26.7466 123.439 26.7097 123.802 26.59 124.14C26.4745 124.48 26.4413 124.843 26.4932 125.198C26.5451 125.553 26.6806 125.891 26.8885 126.184C27.0964 126.477 27.3708 126.716 27.6892 126.883C28.0076 127.049 28.3609 127.137 28.72 127.14C29.2141 127.136 29.6927 126.967 30.08 126.66C30.3692 126.437 30.7084 126.288 31.0682 126.225C31.4279 126.163 31.7975 126.189 32.145 126.301C32.4925 126.413 32.8075 126.608 33.0627 126.87C33.318 127.131 33.5058 127.45 33.61 127.8C33.743 128.269 34.0254 128.682 34.4144 128.976C34.8033 129.27 35.2775 129.429 35.765 129.429C36.2525 129.429 36.7267 129.27 37.1157 128.976C37.5046 128.682 37.787 128.269 37.92 127.8C38.0567 127.334 38.3413 126.924 38.7309 126.634C39.1206 126.344 39.5941 126.188 40.08 126.19C40.5732 126.19 41.0522 126.355 41.44 126.66C41.828 126.966 42.3062 127.134 42.8 127.14C43.1599 127.139 43.5144 127.052 43.834 126.887C44.1536 126.721 44.429 126.482 44.6374 126.188C44.8457 125.895 44.981 125.556 45.0319 125.2C45.0828 124.843 45.0479 124.48 44.93 124.14C44.8103 123.802 44.7734 123.439 44.8223 123.084C44.8711 122.728 45.0044 122.389 45.2109 122.096C45.4175 121.802 45.6913 121.562 46.0095 121.396C46.3277 121.23 46.681 121.142 47.04 121.14H47.18C47.6578 121.136 48.1218 120.979 48.5048 120.694C48.8878 120.408 49.1699 120.008 49.3102 119.551C49.4506 119.094 49.4419 118.605 49.2855 118.153C49.129 117.702 48.8329 117.312 48.44 117.04C48.1389 116.833 47.8926 116.556 47.7225 116.233C47.5523 115.91 47.4634 115.55 47.4634 115.185C47.4634 114.82 47.5523 114.46 47.7225 114.137C47.8926 113.814 48.1389 113.537 48.44 113.33C48.8329 113.058 49.129 112.668 49.2855 112.217C49.4419 111.765 49.4506 111.276 49.3102 110.819C49.1699 110.362 48.8878 109.962 48.5048 109.676C48.1218 109.391 47.6578 109.234 47.18 109.23H47.04C46.681 109.228 46.3277 109.141 46.0095 108.974C45.6913 108.808 45.4175 108.568 45.2109 108.274C45.0044 107.981 44.8711 107.642 44.8223 107.286C44.7734 106.931 44.8103 106.569 44.93 106.23C45.0979 105.772 45.1117 105.272 44.9694 104.806C44.8271 104.339 44.5364 103.932 44.1416 103.645C43.7467 103.359 43.2692 103.21 42.7816 103.22C42.294 103.229 41.823 103.398 41.44 103.7C41.0522 104.005 40.5732 104.17 40.08 104.17C39.6082 104.154 39.1535 103.99 38.7802 103.701C38.407 103.412 38.134 103.013 38 102.56C37.8569 102.094 37.5635 101.688 37.1656 101.406C36.7676 101.123 36.2875 100.981 35.8 101L35.76 100.95Z" fill="#EEEEEE"/>
<path d="M36.04 103.18L35.0487 103.311L35.0586 103.386L35.0797 103.459L36.04 103.18ZM40.12 106.23L40.1204 105.23L40.1158 105.23L40.12 106.23ZM42.7 105.34L43.3169 106.127L43.3417 106.108L43.3652 106.087L42.7 105.34ZM42.84 105.28L42.9288 104.284L42.8435 104.276L42.7581 104.283L42.84 105.28ZM43.07 105.41L43.9021 104.855L43.8902 104.838L43.8776 104.82L43.07 105.41ZM43.07 105.62L42.1756 105.173L42.148 105.228L42.1275 105.286L43.07 105.62ZM47.07 111.29L47.0687 112.29H47.07V111.29ZM47.21 111.29V112.29H47.2405L47.2709 112.288L47.21 111.29ZM47.34 111.74L46.8593 110.863L46.8146 110.888L46.7727 110.917L47.34 111.74ZM47.34 118.74L46.7727 119.564L46.8315 119.604L46.8954 119.636L47.34 118.74ZM47.44 119.01L46.5192 118.62L46.4754 118.723L46.4556 118.834L47.44 119.01ZM47.2 119.19L47.3065 118.196L47.2534 118.19H47.2V119.19ZM47.07 119.19V118.19L47.0658 118.19L47.07 119.19ZM43.61 120.99L44.4248 121.57L44.4264 121.567L43.61 120.99ZM43.08 124.86L44.08 124.86L44.08 124.685L44.0206 124.521L43.08 124.86ZM43.08 125.07L43.928 125.6L44.08 125.357V125.07H43.08ZM42.85 125.21L42.7502 126.205L42.8407 126.214L42.9313 126.207L42.85 125.21ZM42.71 125.14L43.4461 124.463L43.3937 124.406L43.3332 124.358L42.71 125.14ZM36 127.26L35.0406 126.978L35.0188 127.052L35.0087 127.129L36 127.26ZM35.76 127.44L35.9115 126.452L35.7838 126.432L35.6553 126.446L35.76 127.44ZM35.53 127.26L36.5205 127.123L36.5103 127.049L36.4895 126.978L35.53 127.26ZM28.86 125.09L28.2501 124.298L28.2252 124.317L28.2015 124.337L28.86 125.09ZM28.72 125.16L28.6387 126.157L28.6793 126.16H28.72V125.16ZM28.49 125.02L29.29 124.42L27.642 125.55L28.49 125.02ZM28.49 124.81L29.4131 125.195L29.4235 125.17L29.4325 125.144L28.49 124.81ZM24.49 119.14L24.4914 118.14H24.49V119.14ZM24.36 119.14V118.14H24.3075L24.2553 118.146L24.36 119.14ZM24.13 118.96L25.1205 118.823L25.0975 118.657L25.0216 118.507L24.13 118.96ZM24.22 118.69L24.6616 119.587L24.7271 119.555L24.7873 119.514L24.22 118.69ZM24.22 111.69L24.7873 110.867L24.7382 110.833L24.6854 110.805L24.22 111.69ZM24.13 111.41L25.0239 111.858L25.0979 111.711L25.1205 111.547L24.13 111.41ZM24.36 111.24L24.2006 112.227L24.2798 112.24H24.36V111.24ZM24.49 111.24L24.49 112.24L24.4914 112.24L24.49 111.24ZM28.49 105.57L29.4325 105.236L29.4019 105.149L29.356 105.07L28.49 105.57ZM28.4619 105.465L29.4619 105.465L28.4619 105.465ZM28.49 105.36L27.6825 104.77L27.6508 104.814L27.624 104.86L28.49 105.36ZM28.72 105.23L28.7714 104.231L28.7012 104.228L28.6312 104.234L28.72 105.23ZM28.86 105.29L28.1723 106.016L28.2079 106.05L28.2468 106.08L28.86 105.29ZM35.53 103.13L36.4899 103.41L36.5104 103.34L36.5205 103.267L35.53 103.13ZM35.76 100.95L36.5409 100.325L36.2473 99.9584L35.7774 99.9502L35.76 100.95ZM33.61 102.56L34.5714 102.836L34.5743 102.825L33.61 102.56ZM30.08 103.71L29.4589 104.494L29.4654 104.499L30.08 103.71ZM28.72 103.23L28.7285 102.23L28.7176 102.23L28.72 103.23ZM26.59 106.23L25.6451 106.558L25.6493 106.569L26.59 106.23ZM24.48 109.23L24.4813 108.23H24.48V109.23ZM24.35 109.23L24.35 108.23L24.3453 108.23L24.35 109.23ZM23.08 113.33L22.5108 114.152L22.5195 114.158L23.08 113.33ZM23.08 117.04L22.5194 116.212L22.5109 116.218L23.08 117.04ZM24.35 121.14L24.3453 122.14H24.35V121.14ZM24.48 121.14L24.485 120.14H24.48V121.14ZM26.59 124.14L25.6471 123.807L25.6431 123.818L26.59 124.14ZM28.72 127.14L28.7115 128.14L28.72 128.14L28.7285 128.14L28.72 127.14ZM30.08 126.66L29.4695 125.868L29.4589 125.876L30.08 126.66ZM33.61 127.8L34.5721 127.527L34.5684 127.515L33.61 127.8ZM37.92 127.8L36.9603 127.519L36.958 127.527L37.92 127.8ZM40.08 126.19L40.0754 127.19L40.0804 127.19L40.08 126.19ZM41.44 126.66L42.0587 125.874L42.0578 125.874L41.44 126.66ZM42.8 127.14L42.7885 128.14L42.8024 128.14L42.8 127.14ZM44.93 124.14L45.8749 123.813L45.8728 123.807L44.93 124.14ZM47.04 121.14L47.04 120.14L47.035 120.14L47.04 121.14ZM47.18 121.14V122.14L47.1891 122.14L47.18 121.14ZM48.44 117.04L49.0091 116.218L49.0059 116.216L48.44 117.04ZM48.44 113.33L49.006 114.154L49.0091 114.152L48.44 113.33ZM47.18 109.23L47.1891 108.23H47.18V109.23ZM47.04 109.23L47.035 110.23H47.04V109.23ZM44.93 106.23L43.991 105.886L43.9872 105.897L44.93 106.23ZM41.44 103.7L42.0578 104.486L42.0591 104.485L41.44 103.7ZM40.08 104.17L40.0456 105.169L40.0626 105.17L40.0796 105.17L40.08 104.17ZM38 102.56L38.9589 102.276L38.956 102.267L38 102.56ZM35.8 101L35.0191 101.625L35.3347 102.019L35.8395 101.999L35.8 101ZM35.9515 103.988C35.8476 104.004 35.7416 103.999 35.6397 103.974L36.1261 102.034C35.97 101.995 35.8076 101.987 35.6485 102.012L35.9515 103.988ZM35.6397 103.974C35.5378 103.948 35.442 103.903 35.3578 103.84L36.5578 102.24C36.429 102.143 36.2822 102.073 36.1261 102.034L35.6397 103.974ZM35.3578 103.84C35.2738 103.777 35.2031 103.697 35.15 103.607L36.8761 102.596C36.7948 102.457 36.6866 102.336 36.5578 102.24L35.3578 103.84ZM35.15 103.607C35.0969 103.516 35.0625 103.416 35.0487 103.311L37.0313 103.049C37.0102 102.889 36.9574 102.735 36.8761 102.596L35.15 103.607ZM35.0797 103.459C35.3967 104.55 36.0605 105.509 36.9707 106.189L38.1682 104.587C37.606 104.167 37.1961 103.575 37.0003 102.901L35.0797 103.459ZM36.9707 106.189C37.8808 106.869 38.9879 107.235 40.1242 107.23L40.1158 105.23C39.414 105.233 38.7303 105.007 38.1682 104.587L36.9707 106.189ZM40.1196 107.23C41.2788 107.23 42.4045 106.842 43.3169 106.127L42.0832 104.553C41.5231 104.992 40.832 105.23 40.1204 105.23L40.1196 107.23ZM43.3652 106.087C43.242 106.196 43.0864 106.263 42.9219 106.277L42.7581 104.283C42.4898 104.305 42.2359 104.414 42.0348 104.593L43.3652 106.087ZM42.7512 106.276C42.6548 106.267 42.5613 106.238 42.477 106.191L43.4611 104.45C43.2975 104.357 43.116 104.301 42.9288 104.284L42.7512 106.276ZM42.477 106.191C42.3926 106.143 42.3195 106.078 42.2625 106L43.8776 104.82C43.7668 104.669 43.6248 104.542 43.4611 104.45L42.477 106.191ZM43.07 105.41C42.238 105.965 42.2377 105.964 42.2374 105.964C42.2373 105.964 42.237 105.963 42.2368 105.963C42.2364 105.962 42.236 105.962 42.2356 105.961C42.2349 105.96 42.2341 105.959 42.2333 105.958C42.2318 105.955 42.2302 105.953 42.2287 105.951C42.2257 105.946 42.2226 105.941 42.2196 105.936C42.2136 105.926 42.2077 105.916 42.2019 105.906C42.1903 105.886 42.1789 105.864 42.1681 105.84C42.1468 105.793 42.1256 105.735 42.1119 105.666C42.0822 105.518 42.0924 105.339 42.1756 105.173L43.9644 106.067C44.1076 105.781 44.1178 105.497 44.0731 105.274C44.0519 105.168 44.0195 105.08 43.9888 105.012C43.9733 104.978 43.9576 104.948 43.943 104.922C43.9357 104.909 43.9285 104.897 43.9217 104.886C43.9183 104.88 43.9149 104.875 43.9116 104.87C43.91 104.867 43.9084 104.865 43.9068 104.863C43.906 104.861 43.9052 104.86 43.9044 104.859C43.904 104.858 43.9036 104.858 43.9032 104.857C43.903 104.857 43.9027 104.856 43.9026 104.856C43.9023 104.856 43.9021 104.855 43.07 105.41ZM42.1275 105.286C41.8469 106.077 41.7603 106.924 41.8749 107.756L43.8562 107.483C43.7852 106.969 43.8389 106.444 44.0125 105.954L42.1275 105.286ZM41.8749 107.756C41.9894 108.588 42.3018 109.38 42.7858 110.066L44.4201 108.914C44.1205 108.489 43.9271 107.998 43.8562 107.483L41.8749 107.756ZM42.7858 110.066C43.2699 110.753 43.9114 111.313 44.6566 111.699L45.5782 109.924C45.1169 109.685 44.7197 109.338 44.4201 108.914L42.7858 110.066ZM44.6566 111.699C45.4018 112.086 46.229 112.289 47.0687 112.29L47.0714 110.29C46.5516 110.289 46.0395 110.164 45.5782 109.924L44.6566 111.699ZM47.07 112.29H47.21V110.29H47.07V112.29ZM47.2709 112.288C47.0985 112.299 46.9277 112.25 46.7866 112.151L47.9394 110.516C47.7091 110.354 47.4304 110.275 47.1491 110.292L47.2709 112.288ZM46.7866 112.151C46.6455 112.051 46.5424 111.906 46.4945 111.741L48.4159 111.185C48.3377 110.915 48.1696 110.679 47.9394 110.516L46.7866 112.151ZM46.4945 111.741C46.4465 111.575 46.4566 111.397 46.5229 111.238L48.3696 112.006C48.4778 111.745 48.4941 111.456 48.4159 111.185L46.4945 111.741ZM46.5229 111.238C46.5892 111.078 46.7078 110.946 46.8593 110.863L47.8208 112.617C48.0679 112.481 48.2614 112.266 48.3696 112.006L46.5229 111.238ZM46.7727 110.917C46.0721 111.399 45.4992 112.045 45.1034 112.798L46.8739 113.728C47.1189 113.262 47.4735 112.862 47.9073 112.564L46.7727 110.917ZM45.1034 112.798C44.7077 113.551 44.5009 114.389 44.5009 115.24H46.5009C46.5009 114.713 46.6289 114.195 46.8739 113.728L45.1034 112.798ZM44.5009 115.24C44.5009 116.091 44.7077 116.929 45.1034 117.682L46.8739 116.752C46.6289 116.286 46.5009 115.767 46.5009 115.24H44.5009ZM45.1034 117.682C45.4992 118.435 46.0721 119.081 46.7727 119.564L47.9073 117.917C47.4735 117.618 47.1189 117.218 46.8739 116.752L45.1034 117.682ZM46.8954 119.636C46.7151 119.546 46.5757 119.391 46.5058 119.203L48.3813 118.508C48.2742 118.219 48.0608 117.981 47.7846 117.844L46.8954 119.636ZM46.5058 119.203C46.4359 119.014 46.4407 118.805 46.5192 118.62L48.3608 119.4C48.4811 119.116 48.4884 118.797 48.3813 118.508L46.5058 119.203ZM46.4556 118.834C46.4904 118.64 46.5975 118.466 46.7554 118.347L47.9554 119.947C48.2024 119.762 48.37 119.49 48.4244 119.186L46.4556 118.834ZM46.7554 118.347C46.9134 118.229 47.1103 118.175 47.3065 118.196L47.0935 120.184C47.4004 120.217 47.7085 120.133 47.9554 119.947L46.7554 118.347ZM47.2 118.19H47.07V120.19H47.2V118.19ZM47.0658 118.19C46.2282 118.194 45.4035 118.397 44.6604 118.784L45.5834 120.558C46.044 120.318 46.5551 120.192 47.0742 120.19L47.0658 118.19ZM44.6604 118.784C43.9173 119.17 43.2773 119.729 42.7936 120.413L44.4264 121.567C44.7262 121.144 45.1229 120.798 45.5834 120.558L44.6604 118.784ZM42.7953 120.41C42.3071 121.096 41.9925 121.89 41.8783 122.724L43.8598 122.996C43.9301 122.482 44.124 121.992 44.4248 121.57L42.7953 120.41ZM41.8783 122.724C41.764 123.558 41.8536 124.408 42.1394 125.199L44.0206 124.521C43.8446 124.033 43.7894 123.509 43.8598 122.996L41.8783 122.724ZM42.08 124.86C42.08 125.02 42.08 124.99 42.08 125.07H44.08C44.08 124.99 44.08 125.02 44.08 124.86L42.08 124.86ZM42.232 124.54C42.2898 124.448 42.3685 124.37 42.4617 124.313L43.5015 126.021C43.6746 125.916 43.8206 125.772 43.928 125.6L42.232 124.54ZM42.4617 124.313C42.5548 124.256 42.66 124.222 42.7687 124.213L42.9313 126.207C43.1332 126.19 43.3285 126.127 43.5015 126.021L42.4617 124.313ZM42.9498 124.215C43.1401 124.234 43.3167 124.322 43.4461 124.463L41.9739 125.817C42.1763 126.037 42.4526 126.175 42.7502 126.205L42.9498 124.215ZM43.3332 124.358C42.6613 123.823 41.868 123.461 41.0233 123.304L40.6586 125.27C41.1809 125.367 41.6714 125.591 42.0868 125.922L43.3332 124.358ZM41.0233 123.304C40.1786 123.147 39.3084 123.201 38.4892 123.46L39.0917 125.367C39.5982 125.207 40.1363 125.174 40.6586 125.27L41.0233 123.304ZM38.4892 123.46C37.67 123.718 36.927 124.175 36.3256 124.788L37.7539 126.188C38.1258 125.809 38.5852 125.527 39.0917 125.367L38.4892 123.46ZM36.3256 124.788C35.7243 125.402 35.283 126.154 35.0406 126.978L36.9594 127.542C37.1092 127.033 37.3821 126.568 37.7539 126.188L36.3256 124.788ZM35.0087 127.129C35.0225 127.024 35.0569 126.924 35.11 126.833L36.8361 127.844C36.9174 127.705 36.9702 127.551 36.9913 127.391L35.0087 127.129ZM35.11 126.833C35.1631 126.743 35.2337 126.664 35.3178 126.6L36.5178 128.2C36.6466 128.104 36.7548 127.983 36.8361 127.844L35.11 126.833ZM35.3178 126.6C35.4018 126.537 35.4976 126.492 35.5997 126.466L36.0861 128.406C36.2424 128.367 36.3891 128.297 36.5178 128.2L35.3178 126.6ZM35.5997 126.466C35.7016 126.441 35.8076 126.436 35.9115 126.452L35.6085 128.428C35.7676 128.453 35.93 128.445 36.0861 128.406L35.5997 126.466ZM35.6553 126.446C35.8592 126.424 36.0635 126.483 36.2249 126.609L34.9923 128.184C35.2395 128.378 35.5524 128.467 35.8647 128.435L35.6553 126.446ZM36.2249 126.609C36.3863 126.735 36.4924 126.92 36.5205 127.123L34.5395 127.397C34.5826 127.708 34.745 127.991 34.9923 128.184L36.2249 126.609ZM36.4895 126.978C36.2489 126.159 35.8124 125.412 35.2177 124.799L33.7833 126.193C34.1514 126.572 34.4216 127.035 34.5705 127.542L36.4895 126.978ZM35.2177 124.799C34.623 124.187 33.8881 123.729 33.0765 123.465L32.4578 125.367C32.9602 125.531 33.4151 125.814 33.7833 126.193L35.2177 124.799ZM33.0765 123.465C32.265 123.201 31.4013 123.139 30.5603 123.284L30.9001 125.255C31.4207 125.165 31.9554 125.204 32.4578 125.367L33.0765 123.465ZM30.5603 123.284C29.7193 123.429 28.9263 123.777 28.2501 124.298L29.47 125.882C29.8886 125.56 30.3795 125.345 30.9001 125.255L30.5603 123.284ZM28.2015 124.337C28.22 124.321 28.2883 124.265 28.405 124.219C28.4662 124.195 28.532 124.178 28.6003 124.169C28.6668 124.159 28.7205 124.16 28.72 124.16V126.16C28.7835 126.16 28.9406 126.157 29.13 126.083C29.2917 126.02 29.42 125.929 29.5185 125.843L28.2015 124.337ZM28.8013 124.163C28.9101 124.172 29.0152 124.206 29.1084 124.263L28.0685 125.971C28.2415 126.077 28.4368 126.14 28.6387 126.157L28.8013 124.163ZM29.1084 124.263C29.2016 124.32 29.2802 124.398 29.338 124.49L27.642 125.55C27.7494 125.722 27.8954 125.866 28.0685 125.971L29.1084 124.263ZM28.49 125.02C29.3642 124.534 29.3644 124.535 29.3646 124.535C29.3647 124.535 29.3649 124.536 29.3651 124.536C29.3654 124.537 29.3657 124.537 29.366 124.538C29.3667 124.539 29.3673 124.54 29.3679 124.541C29.3691 124.543 29.3704 124.546 29.3716 124.548C29.374 124.553 29.3764 124.557 29.3788 124.562C29.3835 124.571 29.3881 124.58 29.3926 124.59C29.4016 124.609 29.4102 124.629 29.4181 124.65C29.4339 124.691 29.4484 124.74 29.4577 124.796C29.477 124.911 29.4719 125.054 29.4131 125.195L27.5669 124.425C27.4581 124.687 27.4531 124.934 27.4849 125.124C27.5003 125.217 27.5242 125.296 27.5478 125.358C27.5597 125.39 27.5718 125.418 27.5833 125.442C27.589 125.454 27.5947 125.466 27.6001 125.476C27.6029 125.482 27.6055 125.487 27.6082 125.492C27.6095 125.494 27.6108 125.496 27.612 125.499C27.6127 125.5 27.6133 125.501 27.614 125.502C27.6143 125.503 27.6146 125.503 27.6149 125.504C27.6151 125.504 27.6153 125.505 27.6154 125.505C27.6156 125.505 27.6159 125.506 28.49 125.02ZM29.4325 125.144C29.7131 124.353 29.7997 123.506 29.6852 122.674L27.7039 122.947C27.7748 123.462 27.7211 123.986 27.5475 124.476L29.4325 125.144ZM29.6852 122.674C29.5706 121.842 29.2582 121.05 28.7742 120.364L27.1399 121.517C27.4396 121.941 27.6329 122.432 27.7039 122.947L29.6852 122.674ZM28.7742 120.364C28.2901 119.678 27.6486 119.118 26.9034 118.731L25.9818 120.506C26.4431 120.745 26.8403 121.092 27.1399 121.517L28.7742 120.364ZM26.9034 118.731C26.1582 118.344 25.331 118.141 24.4914 118.14L24.4887 120.14C25.0084 120.141 25.5205 120.266 25.9818 120.506L26.9034 118.731ZM24.49 118.14H24.36V120.14H24.49V118.14ZM24.2553 118.146C24.4592 118.124 24.6635 118.183 24.8249 118.309L23.5923 119.884C23.8396 120.078 24.1524 120.167 24.4647 120.135L24.2553 118.146ZM24.8249 118.309C24.9863 118.435 25.0924 118.62 25.1205 118.823L23.1395 119.097C23.1826 119.408 23.345 119.691 23.5923 119.884L24.8249 118.309ZM25.0216 118.507C25.0696 118.602 25.0983 118.705 25.1061 118.81L23.1116 118.958C23.1234 119.117 23.1665 119.271 23.2384 119.413L25.0216 118.507ZM25.1061 118.81C25.114 118.916 25.1008 119.022 25.0673 119.122L23.1699 118.49C23.1197 118.641 23.0999 118.8 23.1116 118.958L25.1061 118.81ZM25.0673 119.122C25.0338 119.223 24.9807 119.316 24.9111 119.396L23.4042 118.08C23.2998 118.2 23.2201 118.339 23.1699 118.49L25.0673 119.122ZM24.9111 119.396C24.8414 119.475 24.7566 119.54 24.6616 119.587L23.7784 117.793C23.6359 117.863 23.5087 117.961 23.4042 118.08L24.9111 119.396ZM24.7873 119.514C25.4879 119.031 26.0608 118.385 26.4566 117.632L24.6861 116.702C24.4411 117.168 24.0865 117.568 23.6527 117.867L24.7873 119.514ZM26.4566 117.632C26.8523 116.879 27.0591 116.041 27.0591 115.19H25.0591C25.0591 115.717 24.9311 116.236 24.6861 116.702L26.4566 117.632ZM27.0591 115.19C27.0591 114.339 26.8523 113.501 26.4566 112.748L24.6861 113.678C24.9311 114.145 25.0591 114.663 25.0591 115.19H27.0591ZM26.4566 112.748C26.0608 111.995 25.4879 111.349 24.7873 110.867L23.6527 112.514C24.0865 112.812 24.4411 113.212 24.6861 113.678L26.4566 112.748ZM24.6854 110.805C24.8685 110.901 25.0065 111.066 25.0698 111.262L23.1658 111.874C23.2627 112.176 23.4741 112.428 23.7546 112.575L24.6854 110.805ZM25.0698 111.262C25.1331 111.459 25.1167 111.673 25.0239 111.858L23.2361 110.962C23.094 111.245 23.0688 111.573 23.1658 111.874L25.0698 111.262ZM25.1205 111.547C25.1059 111.653 25.0704 111.754 25.0159 111.846L23.2964 110.825C23.2147 110.962 23.1614 111.115 23.1395 111.273L25.1205 111.547ZM25.0159 111.846C24.9615 111.938 24.8893 112.017 24.8036 112.081L23.6148 110.472C23.4863 110.567 23.378 110.687 23.2964 110.825L25.0159 111.846ZM24.8036 112.081C24.7179 112.144 24.6204 112.19 24.5169 112.215L24.045 110.271C23.8897 110.309 23.7434 110.377 23.6148 110.472L24.8036 112.081ZM24.5169 112.215C24.4134 112.24 24.3058 112.244 24.2006 112.227L24.5195 110.253C24.3616 110.227 24.2003 110.234 24.045 110.271L24.5169 112.215ZM24.36 112.24H24.49V110.24H24.36V112.24ZM24.4914 112.24C25.331 112.239 26.1582 112.036 26.9034 111.649L25.9818 109.874C25.5205 110.114 25.0084 110.239 24.4887 110.24L24.4914 112.24ZM26.9034 111.649C27.6486 111.263 28.2901 110.703 28.7742 110.016L27.1399 108.864C26.8403 109.288 26.4431 109.635 25.9818 109.874L26.9034 111.649ZM28.7742 110.016C29.2582 109.33 29.5706 108.538 29.6852 107.706L27.7039 107.433C27.6329 107.948 27.4396 108.439 27.1399 108.864L28.7742 110.016ZM29.6852 107.706C29.7997 106.874 29.7131 106.027 29.4325 105.236L27.5475 105.904C27.7211 106.394 27.7748 106.919 27.7039 107.433L29.6852 107.706ZM29.356 105.07C29.4254 105.19 29.4619 105.326 29.4619 105.465L27.4619 105.465C27.4619 105.677 27.5178 105.886 27.624 106.07L29.356 105.07ZM29.4619 105.465C29.4619 105.604 29.4254 105.74 29.356 105.86L27.624 104.86C27.5178 105.044 27.4619 105.253 27.4619 105.465L29.4619 105.465ZM29.2976 105.95C29.2404 106.028 29.1673 106.093 29.083 106.141L28.0989 104.4C27.9353 104.492 27.7933 104.618 27.6825 104.77L29.2976 105.95ZM29.083 106.141C28.9987 106.188 28.9052 106.217 28.8088 106.226L28.6312 104.234C28.444 104.251 28.2626 104.307 28.0989 104.4L29.083 106.141ZM28.6686 106.229C28.4832 106.219 28.3071 106.144 28.1723 106.016L29.5478 104.564C29.3368 104.364 29.0615 104.246 28.7714 104.231L28.6686 106.229ZM28.2468 106.08C28.9215 106.604 29.7142 106.955 30.5556 107.102L30.9009 105.132C30.3806 105.041 29.8905 104.824 29.4733 104.5L28.2468 106.08ZM30.5556 107.102C31.3971 107.25 32.2618 107.189 33.0745 106.926L32.4584 105.023C31.9558 105.186 31.4212 105.223 30.9009 105.132L30.5556 107.102ZM33.0745 106.926C33.8873 106.663 34.6233 106.205 35.2186 105.592L33.7841 104.199C33.416 104.577 32.9609 104.861 32.4584 105.023L33.0745 106.926ZM35.2186 105.592C35.8139 104.979 36.2503 104.23 36.4899 103.41L34.5701 102.85C34.422 103.357 34.1521 103.82 33.7841 104.199L35.2186 105.592ZM36.5205 103.267C36.4924 103.471 36.3863 103.655 36.2249 103.781L34.9923 102.206C34.745 102.4 34.5826 102.682 34.5395 102.993L36.5205 103.267ZM36.2249 103.781C36.0635 103.907 35.8592 103.966 35.6553 103.945L35.8647 101.956C35.5524 101.923 35.2395 102.012 34.9923 102.206L36.2249 103.781ZM35.7774 99.9502C35.0691 99.9379 34.3768 100.162 33.8098 100.586L35.0086 102.187C35.2201 102.029 35.4784 101.945 35.7426 101.95L35.7774 99.9502ZM33.8098 100.586C33.2428 101.011 32.8332 101.612 32.6457 102.295L34.5743 102.825C34.6443 102.57 34.7971 102.346 35.0086 102.187L33.8098 100.586ZM32.6487 102.285C32.5928 102.48 32.4899 102.658 32.3491 102.804L33.7884 104.193C34.1565 103.811 34.4253 103.345 34.5713 102.836L32.6487 102.285ZM32.3491 102.804C32.2082 102.95 32.0337 103.059 31.8408 103.122L32.4603 105.024C32.9643 104.859 33.4203 104.574 33.7884 104.193L32.3491 102.804ZM31.8408 103.122C31.6479 103.185 31.4425 103.199 31.2427 103.164L30.8975 105.134C31.4196 105.226 31.9563 105.188 32.4603 105.024L31.8408 103.122ZM31.2427 103.164C31.0428 103.129 30.8546 103.046 30.6946 102.921L29.4654 104.499C29.8836 104.825 30.3753 105.043 30.8975 105.134L31.2427 103.164ZM30.7011 102.926C30.1394 102.481 29.4452 102.236 28.7285 102.23L28.7115 104.23C28.9831 104.232 29.2461 104.325 29.4589 104.494L30.7011 102.926ZM28.7176 102.23C28.1985 102.231 27.6871 102.357 27.2261 102.595L28.1459 104.371C28.3241 104.279 28.5217 104.231 28.7224 104.23L28.7176 102.23ZM27.2261 102.595C26.7651 102.834 26.3678 103.179 26.0673 103.603L27.698 104.761C27.8142 104.597 27.9678 104.463 28.1459 104.371L27.2261 102.595ZM26.0673 103.603C25.7667 104.026 25.5716 104.515 25.4982 105.029L27.4781 105.312C27.5065 105.113 27.5819 104.924 27.698 104.761L26.0673 103.603ZM25.4982 105.029C25.4248 105.543 25.4751 106.067 25.6451 106.557L27.5349 105.903C27.4692 105.713 27.4497 105.51 27.4781 105.312L25.4982 105.029ZM25.6493 106.569C25.7169 106.757 25.7384 106.958 25.7119 107.155L27.6941 107.421C27.7633 106.905 27.7073 106.38 27.5307 105.891L25.6493 106.569ZM25.7119 107.155C25.6854 107.352 25.6117 107.54 25.4971 107.703L27.133 108.854C27.4324 108.428 27.6249 107.937 27.6941 107.421L25.7119 107.155ZM25.4971 107.703C25.3826 107.866 25.2304 107.999 25.0536 108.091L25.9741 109.866C26.4361 109.627 26.8336 109.28 27.133 108.854L25.4971 107.703ZM25.0536 108.091C24.8768 108.183 24.6804 108.23 24.4813 108.23L24.4787 110.23C24.9992 110.231 25.5121 110.106 25.9741 109.866L25.0536 108.091ZM24.48 108.23H24.35V110.23H24.48V108.23ZM24.3453 108.23C23.6539 108.233 22.9816 108.457 22.4261 108.868L23.6166 110.476C23.8302 110.317 24.0888 110.231 24.3547 110.23L24.3453 108.23ZM22.4261 108.868C21.8705 109.28 21.4607 109.858 21.2561 110.518L23.1666 111.11C23.2452 110.856 23.4029 110.634 23.6166 110.476L22.4261 108.868ZM21.2561 110.518C21.0516 111.179 21.0629 111.887 21.2886 112.541L23.179 111.888C23.0923 111.637 23.0879 111.364 23.1666 111.11L21.2561 110.518ZM21.2886 112.541C21.5142 113.194 21.9424 113.759 22.5109 114.152L23.6492 112.508C23.4305 112.356 23.2658 112.139 23.179 111.888L21.2886 112.541ZM22.5195 114.158C22.6873 114.272 22.8247 114.425 22.9197 114.604L24.6864 113.666C24.4382 113.199 24.0791 112.799 23.6406 112.502L22.5195 114.158ZM22.9197 114.604C23.0147 114.783 23.0644 114.982 23.0644 115.185H25.0644C25.0644 114.656 24.9346 114.134 24.6864 113.666L22.9197 114.604ZM23.0644 115.185C23.0644 115.388 23.0147 115.587 22.9197 115.766L24.6864 116.704C24.9346 116.236 25.0644 115.715 25.0644 115.185H23.0644ZM22.9197 115.766C22.8247 115.945 22.6873 116.098 22.5195 116.212L23.6406 117.868C24.0791 117.571 24.4382 117.172 24.6864 116.704L22.9197 115.766ZM22.5109 116.218C21.9424 116.611 21.5142 117.176 21.2886 117.829L23.179 118.482C23.2658 118.231 23.4305 118.014 23.6492 117.862L22.5109 116.218ZM21.2886 117.829C21.0629 118.483 21.0516 119.191 21.2561 119.852L23.1666 119.26C23.0879 119.006 23.0923 118.733 23.179 118.482L21.2886 117.829ZM21.2561 119.852C21.4607 120.512 21.8705 121.09 22.4261 121.502L23.6166 119.895C23.4029 119.736 23.2452 119.514 23.1666 119.26L21.2561 119.852ZM22.4261 121.502C22.9816 121.913 23.6539 122.137 24.3453 122.14L24.3547 120.14C24.0888 120.139 23.8302 120.053 23.6166 119.895L22.4261 121.502ZM24.35 122.14H24.48V120.14H24.35V122.14ZM24.475 122.14C24.6744 122.141 24.8707 122.19 25.0475 122.282L25.9736 120.509C25.514 120.269 25.0036 120.143 24.485 120.14L24.475 122.14ZM25.0475 122.282C25.2243 122.374 25.3764 122.508 25.4911 122.671L27.127 121.52C26.8287 121.096 26.4332 120.75 25.9736 120.509L25.0475 122.282ZM25.4911 122.671C25.6059 122.834 25.6799 123.022 25.7071 123.22L27.6884 122.948C27.6179 122.434 27.4254 121.944 27.127 121.52L25.4911 122.671ZM25.7071 123.22C25.7342 123.417 25.7137 123.619 25.6472 123.807L27.5328 124.473C27.7057 123.984 27.759 123.461 27.6884 122.948L25.7071 123.22ZM25.6431 123.818C25.4767 124.308 25.429 124.831 25.5037 125.343L27.4827 125.054C27.4537 124.855 27.4723 124.652 27.5369 124.462L25.6431 123.818ZM25.5037 125.343C25.5784 125.854 25.7736 126.341 26.0731 126.763L27.7039 125.605C27.5875 125.442 27.5118 125.252 27.4827 125.054L25.5037 125.343ZM26.0731 126.763C26.3726 127.185 26.7679 127.53 27.2266 127.769L28.1519 125.996C27.9737 125.903 27.8202 125.769 27.7039 125.605L26.0731 126.763ZM27.2266 127.769C27.6852 128.008 28.1941 128.136 28.7115 128.14L28.7285 126.14C28.5276 126.138 28.33 126.089 28.1519 125.996L27.2266 127.769ZM28.7285 128.14C29.4452 128.134 30.1394 127.889 30.7011 127.444L29.4589 125.876C29.2461 126.045 28.9831 126.138 28.7115 126.14L28.7285 128.14ZM30.6905 127.452C30.8512 127.328 31.0396 127.245 31.2395 127.211L30.8969 125.24C30.3772 125.331 29.8873 125.546 29.4695 125.868L30.6905 127.452ZM31.2395 127.211C31.4393 127.176 31.6447 127.19 31.8377 127.253L32.4524 125.349C31.9504 125.187 31.4165 125.15 30.8969 125.24L31.2395 127.211ZM31.8377 127.253C32.0308 127.315 32.2058 127.423 32.3475 127.568L33.7779 126.171C33.4092 125.793 32.9543 125.512 32.4524 125.349L31.8377 127.253ZM32.3475 127.568C32.4893 127.714 32.5937 127.891 32.6516 128.085L34.5684 127.515C34.4179 127.009 34.1466 126.548 33.7779 126.171L32.3475 127.568ZM32.648 128.073C32.8404 128.751 33.2488 129.348 33.8114 129.774L35.0173 128.178C34.802 128.015 34.6457 127.787 34.5721 127.527L32.648 128.073ZM33.8114 129.774C34.3739 130.199 35.0599 130.429 35.765 130.429V128.429C35.4951 128.429 35.2326 128.341 35.0173 128.178L33.8114 129.774ZM35.765 130.429C36.4702 130.429 37.1561 130.199 37.7186 129.774L36.5127 128.178C36.2974 128.341 36.0349 128.429 35.765 128.429V130.429ZM37.7186 129.774C38.2812 129.348 38.6896 128.751 38.8821 128.073L36.958 127.527C36.8843 127.787 36.728 128.015 36.5127 128.178L37.7186 129.774ZM38.8796 128.081C38.9553 127.823 39.1129 127.597 39.3285 127.436L38.1333 125.832C37.5697 126.252 37.1581 126.844 36.9604 127.519L38.8796 128.081ZM39.3285 127.436C39.5442 127.275 39.8064 127.189 40.0754 127.19L40.0847 125.19C39.3818 125.187 38.6969 125.412 38.1333 125.832L39.3285 127.436ZM40.0804 127.19C40.3494 127.19 40.6107 127.28 40.8222 127.446L42.0578 125.874C41.4936 125.431 40.797 125.19 40.0796 125.19L40.0804 127.19ZM40.8213 127.446C41.3826 127.888 42.0742 128.132 42.7885 128.14L42.8115 126.14C42.5381 126.137 42.2735 126.044 42.0587 125.874L40.8213 127.446ZM42.8024 128.14C43.3216 128.139 43.8329 128.014 44.2939 127.775L43.3741 125.999C43.1959 126.091 42.9983 126.14 42.7976 126.14L42.8024 128.14ZM44.2939 127.775C44.7549 127.536 45.1522 127.191 45.4527 126.767L43.822 125.609C43.7058 125.773 43.5523 125.907 43.3741 125.999L44.2939 127.775ZM45.4527 126.767C45.7533 126.344 45.9484 125.855 46.0218 125.341L44.0419 125.058C44.0135 125.257 43.9381 125.446 43.822 125.609L45.4527 126.767ZM46.0218 125.341C46.0952 124.827 46.0449 124.303 45.8749 123.813L43.9851 124.467C44.0508 124.657 44.0703 124.86 44.0419 125.058L46.0218 125.341ZM45.8728 123.807C45.8063 123.619 45.7858 123.417 45.813 123.22L43.8316 122.948C43.761 123.461 43.8143 123.984 43.9872 124.473L45.8728 123.807ZM45.813 123.22C45.8401 123.022 45.9141 122.834 46.0289 122.671L44.393 121.52C44.0947 121.944 43.9022 122.434 43.8316 122.948L45.813 123.22ZM46.0289 122.671C46.1436 122.508 46.2957 122.374 46.4725 122.282L45.5464 120.509C45.0868 120.75 44.6913 121.096 44.393 121.52L46.0289 122.671ZM46.4725 122.282C46.6493 122.19 46.8456 122.141 47.045 122.14L47.035 120.14C46.5164 120.143 46.006 120.269 45.5464 120.509L46.4725 122.282ZM47.04 122.14H47.18V120.14H47.04V122.14ZM47.1891 122.14C47.8792 122.134 48.5495 121.908 49.1027 121.495L47.9069 119.892C47.6941 120.051 47.4363 120.138 47.1709 120.14L47.1891 122.14ZM49.1027 121.495C49.6559 121.083 50.0634 120.505 50.2661 119.845L48.3544 119.257C48.2764 119.511 48.1197 119.733 47.9069 119.892L49.1027 121.495ZM50.2661 119.845C50.4689 119.185 50.4563 118.478 50.2303 117.826L48.3406 118.481C48.4275 118.732 48.4323 119.004 48.3544 119.257L50.2661 119.845ZM50.2303 117.826C50.0043 117.174 49.5766 116.611 49.0091 116.218L47.8709 117.862C48.0892 118.013 48.2537 118.23 48.3406 118.481L50.2303 117.826ZM49.0059 116.216C48.8387 116.101 48.7018 115.947 48.6073 115.767L46.8376 116.699C47.0834 117.166 47.4391 117.566 47.8741 117.864L49.0059 116.216ZM48.6073 115.767C48.5128 115.588 48.4634 115.388 48.4634 115.185H46.4634C46.4634 115.713 46.5918 116.232 46.8376 116.699L48.6073 115.767ZM48.4634 115.185C48.4634 114.982 48.5128 114.782 48.6073 114.603L46.8376 113.671C46.5918 114.138 46.4634 114.657 46.4634 115.185H48.4634ZM48.6073 114.603C48.7018 114.423 48.8387 114.269 49.0059 114.154L47.8741 112.506C47.4391 112.804 47.0834 113.204 46.8376 113.671L48.6073 114.603ZM49.0091 114.152C49.5766 113.76 50.0043 113.196 50.2303 112.544L48.3406 111.889C48.2537 112.14 48.0892 112.357 47.8709 112.508L49.0091 114.152ZM50.2303 112.544C50.4563 111.892 50.4689 111.185 50.2661 110.525L48.3544 111.113C48.4323 111.366 48.4275 111.638 48.3406 111.889L50.2303 112.544ZM50.2661 110.525C50.0634 109.866 49.6559 109.287 49.1027 108.875L47.9069 110.478C48.1197 110.637 48.2764 110.859 48.3544 111.113L50.2661 110.525ZM49.1027 108.875C48.5495 108.462 47.8792 108.236 47.1891 108.23L47.1709 110.23C47.4363 110.232 47.6941 110.319 47.9069 110.478L49.1027 108.875ZM47.18 108.23H47.04V110.23H47.18V108.23ZM47.045 108.23C46.8456 108.229 46.6493 108.18 46.4725 108.088L45.5464 109.861C46.006 110.101 46.5164 110.227 47.035 110.23L47.045 108.23ZM46.4725 108.088C46.2957 107.996 46.1436 107.862 46.0289 107.699L44.393 108.85C44.6913 109.274 45.0868 109.621 45.5464 109.861L46.4725 108.088ZM46.0289 107.699C45.9141 107.536 45.8401 107.348 45.813 107.15L43.8316 107.422C43.9022 107.936 44.0947 108.426 44.393 108.85L46.0289 107.699ZM45.813 107.15C45.7858 106.953 45.8063 106.751 45.8728 106.563L43.9872 105.897C43.8143 106.386 43.761 106.909 43.8316 107.422L45.813 107.15ZM45.8689 106.574C46.1117 105.912 46.1317 105.188 45.9259 104.514L44.0129 105.097C44.0917 105.356 44.084 105.632 43.9911 105.886L45.8689 106.574ZM45.9259 104.514C45.72 103.839 45.2996 103.25 44.7285 102.836L43.5547 104.455C43.7732 104.614 43.9341 104.839 44.0129 105.097L45.9259 104.514ZM44.7285 102.836C44.1574 102.422 43.4667 102.206 42.7615 102.22L42.8018 104.219C43.0717 104.214 43.3361 104.297 43.5547 104.455L44.7285 102.836ZM42.7615 102.22C42.0562 102.234 41.3748 102.478 40.8209 102.915L42.0591 104.485C42.2711 104.318 42.5319 104.225 42.8018 104.219L42.7615 102.22ZM40.8222 102.914C40.6107 103.08 40.3494 103.17 40.0804 103.17L40.0796 105.17C40.797 105.17 41.4936 104.93 42.0578 104.486L40.8222 102.914ZM40.1144 103.171C39.8523 103.162 39.5997 103.07 39.3923 102.91L38.1681 104.491C38.7073 104.909 39.3641 105.146 40.0456 105.169L40.1144 103.171ZM39.3923 102.91C39.185 102.749 39.0333 102.528 38.9589 102.276L37.0411 102.844C37.2347 103.498 37.629 104.074 38.1681 104.491L39.3923 102.91ZM38.956 102.267C38.7482 101.589 38.322 101 37.744 100.59L36.5871 102.221C36.805 102.376 36.9656 102.598 37.044 102.853L38.956 102.267ZM37.744 100.59C37.166 100.18 36.4686 99.9729 35.7605 100.001L35.8395 101.999C36.1064 101.989 36.3692 102.067 36.5871 102.221L37.744 100.59ZM36.5809 100.375L36.5409 100.325L34.9791 101.575L35.0191 101.625L36.5809 100.375Z" fill="#EEEEEE" mask="url(#path-36-inside-1_67_154)"/>
<path d="M37.5801 101.93C38.5801 97.93 39.9201 93.93 41.8801 91.88" stroke="#EEEEEE" stroke-width="2" stroke-linejoin="round"/>
<path d="M32 104.11C33.71 107.85 35.38 112.18 35.57 115.19C35.914 110.727 36.5824 106.296 37.57 101.93" stroke="#EEEEEE" stroke-width="2" stroke-linejoin="round"/>
<path d="M28.14 96.4701C28.14 96.4701 30.14 99.9201 32.02 104.11" stroke="#EEEEEE" stroke-width="2" stroke-linejoin="round"/>
<path d="M45.13 108.09C46.1325 107.519 47.2494 107.177 48.4 107.09" stroke="#EEEEEE" stroke-width="2" stroke-linejoin="round"/>
<path d="M44.2401 103.72C38.7201 107.34 35.5901 115.19 35.5901 115.19C35.5901 115.19 40.8201 110.26 45.1301 108.09" stroke="#EEEEEE" stroke-width="2" stroke-linejoin="round"/>
<path d="M50.17 101.93C48.0537 101.884 45.9774 102.511 44.24 103.72" stroke="#EEEEEE" stroke-width="2" stroke-linejoin="round"/>
<path d="M35.59 115.19C35.59 115.19 31.82 110.49 28.14 109.86" stroke="#EEEEEE" stroke-width="2" stroke-linejoin="round"/>
<path d="M13.4501 107C24.8701 104.64 35.5901 116 35.5901 116C35.5901 116 47.5901 105.41 59.1601 108.49" stroke="#EEEEEE" stroke-width="2" stroke-linejoin="round"/>
<path d="M12.5401 109.46C13.7661 109.46 14.7601 108.466 14.7601 107.24C14.7601 106.014 13.7661 105.02 12.5401 105.02C11.314 105.02 10.3201 106.014 10.3201 107.24C10.3201 108.466 11.314 109.46 12.5401 109.46Z" stroke="#EEEEEE" stroke-width="2" stroke-linejoin="round"/>
<path d="M42.71 93.7601C44.0079 93.7601 45.06 92.7079 45.06 91.4101C45.06 90.1122 44.0079 89.0601 42.71 89.0601C41.4121 89.0601 40.36 90.1122 40.36 91.4101C40.36 92.7079 41.4121 93.7601 42.71 93.7601Z" stroke="#EEEEEE" stroke-width="2" stroke-linejoin="round"/>
<path d="M61.5 111.39C62.7924 111.39 63.84 110.342 63.84 109.05C63.84 107.758 62.7924 106.71 61.5 106.71C60.2077 106.71 59.16 107.758 59.16 109.05C59.16 110.342 60.2077 111.39 61.5 111.39Z" stroke="#EEEEEE" stroke-width="2" stroke-linejoin="round"/>
<path d="M35.73 82.79V94.48" stroke="#EEEEEE" stroke-width="2" stroke-miterlimit="10"/>
<path d="M65.97 105.43L61.5 106.71" stroke="#EEEEEE" stroke-width="2" stroke-miterlimit="10"/>
<path d="M4.92004 104.97L9.74004 106.22" stroke="#EEEEEE" stroke-width="2" stroke-miterlimit="10"/>
<path d="M16.49 141.13L22.14 133.94" stroke="#EEEEEE" stroke-width="2" stroke-miterlimit="10"/>
<path d="M54.45 141.3L48.4 133.68" stroke="#EEEEEE" stroke-width="2" stroke-miterlimit="10"/>
</g>
<defs>
<clipPath id="clip0_67_154">
<rect width="182.92" height="149.26" fill="white"/>
</clipPath>
</defs>
</svg>
