<svg xmlns="http://www.w3.org/2000/svg" viewBox="0 0 266.24 142.49"><defs><style>.cls-1{fill:none;stroke:#1f1f1f;stroke-miterlimit:10;stroke-width:3px;}</style></defs><g id="Layer_2" data-name="Layer 2"><g id="Layer_1-2" data-name="Layer 1"><path class="cls-1" d="M151.71,17.09c0,2.84-3.67,5.5-10.08,7.79-13,4.65-37.25,7.78-65,7.78s-52-3.13-65-7.78C5.17,22.59,1.5,19.93,1.5,17.09,1.5,8.48,35.12,1.5,76.6,1.5S151.71,8.48,151.71,17.09Z"/><path class="cls-1" d="M141.63,24.88c-13,4.65-37.25,7.78-65,7.78s-52-3.13-65-7.78c13-4.66,37.25-7.79,65-7.79S128.64,20.22,141.63,24.88Z"/><path class="cls-1" d="M151.7,17.08V76.74A64.24,64.24,0,0,1,87.46,141H65.75A64.24,64.24,0,0,1,1.5,76.74V17.08"/><path class="cls-1" d="M173.51,87a31.16,31.16,0,0,1,2.29,6.17c-2.4-1.16-3.73-2.44-3.73-3.78A3.21,3.21,0,0,1,173.51,87Z"/><path class="cls-1" d="M212.71,79.87c1.23,0,2.47-.06,3.74-.07A43.38,43.38,0,0,0,215,88.07C214.26,85.35,213.48,82.47,212.71,79.87Z"/><path class="cls-1" d="M230.24,98.69c-3.12.18-6.37.28-9.71.31-1.88-6.69-.92-13.42,1-19.19,2.45,0,4.85.11,7.17.22C228.28,85.55,228.26,93,230.24,98.69Z"/><path class="cls-1" d="M239.4,80.84c.56,4.79,1.29,10.67,1.45,17-2.1.24-4.3.45-6.58.62-2.47-5-1.93-12.55-1-18.13Q236.44,80.53,239.4,80.84Z"/><path class="cls-1" d="M243.86,81.38l1.36.18a9.47,9.47,0,0,0-.58,2.9C244.36,83.43,244.1,82.39,243.86,81.38Z"/><path class="cls-1" d="M256.38,83.89c-1.61,4.06-3.19,8.91-2.95,11.8-2.27.54-4.83,1-7.64,1.46a11,11,0,0,0,.46-4.9c0-.15,0-.3,0-.45-.16-2.86,1.19-6.36,2.92-9.59A68.48,68.48,0,0,1,256.38,83.89Z"/><path class="cls-1" d="M264.74,89.4c0,1.77-2.33,3.44-6.41,4.87a40.41,40.41,0,0,1,2-9C263.17,86.55,264.74,87.94,264.74,89.4Z"/><path class="cls-1" d="M264.74,130.71c0,5.31-20.75,9.61-46.34,9.61s-46.34-4.3-46.34-9.61"/><polyline class="cls-1" points="172.07 130.71 172.07 104.43 172.07 101.88 172.07 89.4"/><polyline class="cls-1" points="264.74 130.71 264.74 104.43 264.74 101.88 264.74 89.4"/><path class="cls-1" d="M181.64,95.25c-.59-.15-1.14-.32-1.68-.48a29.91,29.91,0,0,1-4.16-1.59A31.16,31.16,0,0,0,173.51,87c-1.35-3-3.14-6.44-5-9.86-.88-1.63-1.77-3.25-2.63-4.79-3.33-6-6.21-10.79-6.21-10.79L163.9,59a43.15,43.15,0,0,1,5.91,7.88c.6,1,1.1,2,1.54,2.88.82,1.69,1.43,3.24,2.09,4.84a55.56,55.56,0,0,0,2.36,5.16A48.69,48.69,0,0,1,178,84.68s0,0,0,0,0,.09,0,.12a.08.08,0,0,1,0,.05C179.88,89.61,181.54,95,181.64,95.25Z"/><path class="cls-1" d="M181.64,95.26h0"/><polyline class="cls-1" points="165.9 72.36 158 75.35 158 81.26 168.52 77.15"/><path class="cls-1" d="M199.6,98.18a130.75,130.75,0,0,1-13.55-1.89c-.44-1.29-2.35-7-3.86-12.88,1.19-.32,2.47-.61,3.83-.89-1.3-4.88-2.43-10.16-2.43-10.16l-3.3.74-3.31.74-3.54.79c-.66-1.6-1.27-3.15-2.09-4.84,0,0,2.3-.62,5.13-1.27,1.21-.28,2.52-.56,3.79-.8,2.73-.53,5.25-.86,6.14-.53,1.51.57,3.65,8.48,5.74,14.3,1,2.86,2,5.21,3,6C197.94,89.69,199.6,98.18,199.6,98.18Z"/><path class="cls-1" d="M186.05,96.29c-1.59-.33-3.06-.67-4.41-1-.1-.3-1.76-5.64-3.61-10.38a.08.08,0,0,0,0-.05s0-.07,0-.12,0,0,0,0c-.39-1.16-2.39-7.37-1-10.84l3.31-.74a57.64,57.64,0,0,0,1.9,10.31C183.7,89.26,185.61,95,186.05,96.29Z"/><path class="cls-1" d="M186,82.52c1,3.89,2.17,7.52,2.92,8,1.69,1.12,3.6,6.83,3.6,6.83"/><path class="cls-1" d="M180.29,73.1c0-.26,0-.5,0-.74"/><path class="cls-1" d="M186.14,96.56l-.09-.27"/><path class="cls-1" d="M176.48,68.53a33.22,33.22,0,0,0-3-9.49L178,57.35l2.23,10.37"/><path class="cls-1" d="M210.74,57.91s-.63,6-1.29,13.46c-.25,2.76-.5,5.72-.72,8.63-.72,9.27-1.17,18.1-.38,18.78-3-.14-6-.34-8.75-.6,0,0-1.66-8.49-4.47-10.74-.93-.74-1.95-3.09-3-6,1-.14,2-.28,3-.4,2.85-.34,5.91-.63,9.12-.84.08-1.94.2-3.9.32-5.81.6-9.13,1.5-17.09,1.5-17.09Z"/><path class="cls-1" d="M204.85,98.18c-.87-3.84-.89-10.81-.57-17.93"/><path class="cls-1" d="M217.63,99c-1.38,0-2.74,0-4.09,0-1.76,0-3.5-.1-5.19-.18-.79-.68-.34-9.51.38-18.78.22-2.91.47-5.87.72-8.63.88,1.11,2.06,4.48,3.25,8.5h0c.77,2.6,1.55,5.48,2.26,8.2h0C216.44,93.75,217.58,98.73,217.63,99Z"/><path class="cls-1" d="M217.64,99h0"/><path class="cls-1" d="M213.54,99c-3-10.42-3.16-16-4.81-19"/><path class="cls-1" d="M205.15,67.06c-2.23-3.94-5.56-11.3-5.56-11.3l-5.39,2.38s7.7,9.85,10.39,16.3"/><path class="cls-1" d="M221.53,79.81c-1.92,5.77-2.88,12.5-1,19.19h-2.9c0-.27-1.19-5.25-2.66-10.92h0a43.38,43.38,0,0,1,1.48-8.27,69.24,69.24,0,0,1,9-19.37l4.78,3.14A56.08,56.08,0,0,0,221.53,79.81Z"/><line class="cls-1" x1="220.53" y1="99.01" x2="220.53" y2="99"/><path class="cls-1" d="M234.27,98.43c-1.31.1-2.66.19-4,.26-2-5.7-2-13.14-1.54-18.66.34-4.47.94-7.67.94-7.67l5.23.62a68,68,0,0,0-1.61,7.32C232.34,85.88,231.8,93.44,234.27,98.43Z"/><path class="cls-1" d="M243.09,74.44a22.61,22.61,0,0,0,.77,6.94c.24,1,.5,2.05.78,3.08a58.33,58.33,0,0,1,1.57,7.34c0,.15,0,.3,0,.45a11,11,0,0,1-.46,4.9c-1.57.24-3.22.46-4.94.66-.16-6.3-.89-12.18-1.45-17a53.21,53.21,0,0,1-.65-9.47c.45-4.51,4.93-10.94,4.93-10.94L249.21,64A15.19,15.19,0,0,0,243.09,74.44Z"/><path class="cls-1" d="M255.78,72.36a66.3,66.3,0,0,0-6.65,9.85c-1.73,3.23-3.08,6.73-2.92,9.59a58.33,58.33,0,0,0-1.57-7.34,9.47,9.47,0,0,1,.58-2.9c1.73-5.18,6.83-12.16,6.83-12.16Z"/><path class="cls-1" d="M263.25,78.37a52.87,52.87,0,0,0-2.89,6.94,40.41,40.41,0,0,0-2,9c-.47.17-1,.33-1.49.49-1,.32-2.18.63-3.41.93-.24-2.89,1.34-7.74,2.95-11.8,1.56-3.91,3.14-7.08,3.14-7.08Z"/></g></g></svg>