<svg xmlns="http://www.w3.org/2000/svg" viewBox="0 0 171.23 320.88"><defs><style>.cls-1,.cls-3{fill:none;stroke:#1f1f1f;stroke-linejoin:round;stroke-width:3px;}.cls-2{fill:#1d1d1b;}.cls-3{stroke-linecap:square;}</style></defs><g id="Layer_2" data-name="Layer 2"><g id="Layer_1-2" data-name="Layer 1"><polyline class="cls-1" points="96.64 78.35 1.5 114.51 1.5 115.17 1.5 291.84 47.66 319.38 147.9 281.26 147.9 104.6 147.9 103.93 103.85 77.67"/><polyline class="cls-1" points="147.9 104.6 47.66 142.69 1.5 115.18"/><line class="cls-1" x1="47.66" y1="142.69" x2="47.66" y2="319.38"/><path class="cls-2" d="M64,240.12c0,.55,0,1.29-.09,2.13a41.79,41.79,0,0,0,4.48-2.6l0,2.21c-1.32.81-3,1.73-4.58,2.52,0,.92-.05,1.84-.05,2.66v.79a25.58,25.58,0,0,1,4.74-2.56c3.4-1.31,6-.48,6,2.43,0,2.7-1.57,5.2-4.92,7.29a25.55,25.55,0,0,1-2.89,1.47l-.82-2a15.49,15.49,0,0,0,2.73-1.22c1.91-1.11,3.58-2.75,3.58-4.66,0-1.75-1.58-2.12-3.65-1.32a22.11,22.11,0,0,0-4.67,2.56c0,1.88.09,3.76.09,4.67,0,2.42-.89,3.47-2.23,4-2,.77-5,.12-5-2.06,0-1.94,2.34-4.88,5-7.08v-1.41c0-.8,0-1.66,0-2.53-.57.26-1.07.48-1.5.64-1.39.54-2.26.83-3,1.05l-.07-2.16a27.31,27.31,0,0,0,3-1c.48-.19,1-.42,1.58-.68,0-1,0-1.85,0-2.26a13.35,13.35,0,0,0-.14-1.75l2.51-1C64.13,238.75,64.06,239.55,64,240.12ZM61.1,256.29a1.3,1.3,0,0,0,.78-1.35c0-.73-.05-2-.07-3.5-1.67,1.46-2.85,3.09-2.85,4S60.33,256.59,61.1,256.29Zm15.29-16.92-1.12,2.24A22.26,22.26,0,0,0,70,240.28l1-2.11A27.07,27.07,0,0,1,76.39,239.37Z"/><path class="cls-2" d="M81.74,236.25a49.61,49.61,0,0,0,.16,5.05c.34,3.43,1.28,5.47,2.8,4.88,1.14-.44,2.15-3.3,2.67-5.57l1.8,1.41c-1.44,4.44-2.85,6.32-4.51,7-2.3.89-4.42-.47-5-6.2-.22-1.91-.25-4.62-.25-6a10.28,10.28,0,0,0-.18-2.07l2.78-1A21.22,21.22,0,0,0,81.74,236.25Zm16,3.43-2.34,1.82c-.39-3.75-1.69-8.27-4-10.1l2.26-1.62C95.73,231.6,97.42,236.13,97.71,239.68Z"/><path class="cls-2" d="M104.46,225.83c-.12,2.55-.28,7.84-.28,11,0,2.4,1.49,2.64,3.47,1.87,4-1.55,6.38-4.71,8-7.76l1.62,1.33a19.5,19.5,0,0,1-9.69,8.82c-3.46,1.35-5.78.78-5.78-3,0-3.21.22-9.14.22-11.31a11.63,11.63,0,0,0-.25-2.53l2.92-1.1A21.69,21.69,0,0,0,104.46,225.83Z"/><path class="cls-2" d="M122.5,220.51a49,49,0,0,0,.16,5c.34,3.4,1.28,5.43,2.8,4.84,1.14-.44,2.15-3.29,2.67-5.54l1.8,1.4c-1.44,4.41-2.85,6.29-4.51,6.93-2.3.89-4.42-.45-5-6.14a57,57,0,0,1-.25-6,10,10,0,0,0-.18-2l2.78-1A21.06,21.06,0,0,0,122.5,220.51Zm16,3.37-2.34,1.81c-.39-3.72-1.69-8.21-4-10l2.26-1.61C136.49,215.85,138.18,220.35,138.47,223.88Z"/><path class="cls-2" d="M58.14,275.07c-.33.45-.65.87-1,1.24a11.62,11.62,0,0,0-1.6-.66A17.61,17.61,0,0,0,59,270.37l1.92-.19c-.19.47-.4.93-.65,1.41l9.92-3.87v1.73l-1.56.61v2.11l2.15-.84v1.74l-2.15.84V276l1.92-.75V277l-14.36,5.62v-1.75l2-.77V278l-2.22.87v-1.75l2.22-.87Zm-2.38,11.24a13.35,13.35,0,0,0,1.85-3.89l1.9-.29a14.53,14.53,0,0,1-1.89,4.21Zm4.11-10.73,1.19-.46V273l-1.19.47Zm0,3.85,1.19-.46v-2.1l-1.19.46Zm2.51,1.48a18.66,18.66,0,0,1,.42,2.92l-1.92,1a18.88,18.88,0,0,0-.31-3ZM63.92,274v-2.11l-1.22.48v2.11Zm-1.22,2.23v2.09l1.22-.47v-2.1Zm3,3.32a12.85,12.85,0,0,1,1,2.69l-2,1.15a13.11,13.11,0,0,0-.84-2.8Zm1.12-8.79-1.25.49v2.11l1.25-.49Zm0,3.86-1.25.49v2.1l1.25-.5ZM69,277.89a12.93,12.93,0,0,1,2.09,2.48l-2,1.47a12.41,12.41,0,0,0-2-2.62Z"/><path class="cls-2" d="M77.58,267.38l-5.45,2.13V268l5.45-2.13Zm9.52,5.18a2.58,2.58,0,0,1-.71,2.1A7.48,7.48,0,0,1,83.85,276a4.8,4.8,0,0,0-.55-1.69c.68-.24,1.44-.55,1.69-.65a.38.38,0,0,0,.3-.43V262.36L80,264.42v4.46c0,2.62-.2,6.45-1.48,9.33a4,4,0,0,0-1.38-.44l-2.87,1.13v.66l-1.52.6v-5.62l4.39-1.72v4.57a21.85,21.85,0,0,0,1.08-7.81v-6.13L87.1,260Zm-9.91-2.79-4.38,1.71V270l4.38-1.71Zm-4.38,2.47,4.38-1.71V272l-4.38,1.71Zm4.33-7-4.23,1.65v-1.48l4.23-1.65ZM75.58,275l-1.3.51v1.9l1.3-.51Zm6.25-7.46v-1.12l-1.27.49v-1.41l1.27-.5v-1.07l1.54-.6v1.07l1.3-.51v1.42l-1.3.51v1.12l1.42-.56v1.43l-4.3,1.68V268Zm.15,6.57v.56l-1.39.54v-4.92l4.07-1.59V273Zm0-2.95v1.55l1.26-.49v-1.55Z"/><path class="cls-2" d="M102.73,256.5a12.53,12.53,0,0,1-1.37,3.28,5.94,5.94,0,0,0,2.76.2,10.34,10.34,0,0,0-1.09,1.94,5.93,5.93,0,0,1-2.84-.5,17.24,17.24,0,0,1-3,2.79,4.07,4.07,0,0,0-1.09-1l-.63,1.05c-.4-.15-1.12-.38-1.77-.55v1.69l-1.72.67v-1.56a17.71,17.71,0,0,1-2.19,2.5,4.47,4.47,0,0,0-1.09-.79,17.29,17.29,0,0,0,2.59-2.61l-1.9.75v-3.19l2.59-1v-.55l-3,1.15v-1.3l3-1.15v-.84l1.72-.67v.84l2.93-1.14v1.29L93.69,259v.56l2.7-1v.91a13,13,0,0,0,2-4.37l1.75-.29c-.13.48-.28.95-.44,1.42l4.11-1.6v1.54ZM97.3,268.92l6.61-2.59v1.59l-15,5.9v-1.6l2.42-1v-2.46l1.88-.74v2.47l2.2-.87v-3l-5.52,2.16v-1.55l13-5.09v1.54l-5.58,2.19v.77l4.26-1.67v1.43l-4.26,1.67Zm-6.4-6.27,1.07-.42v-.89l-1.07.42Zm2.79-2v.89l1.08-.42v-.89Zm2.43,2.54A13.91,13.91,0,0,0,99,260.68a5.19,5.19,0,0,1-1-1.05c-.25.37-.48.73-.75,1.06a5.48,5.48,0,0,0-.92-.69v1.66l-2.07.81c.71.08,1.75.2,2.08.27ZM99,258a4.21,4.21,0,0,0,1.06,1.18,9,9,0,0,0,.78-1.9Z"/><path class="cls-2" d="M120.33,261.17,105.49,267V265.2l14.84-5.81Zm-.28-11.93-14.23,5.55V253l14.23-5.55Zm-2.61,8.32c-.55,1.32-1.18,2.68-1.67,3.61l-1.77.19a23.24,23.24,0,0,0,1.22-3.38l-7.7,3v-5.64l11-4.29v5.63l-3,1.19ZM110.5,260a6.82,6.82,0,0,1,1.15,2.26l-1.9,1.32a8.34,8.34,0,0,0-1-2.38Zm-1.06-1.44,7-2.75V253.6l-7,2.74Z"/><path class="cls-2" d="M130.24,245.52c-.53,1.12-1.11,2.34-1.6,3.24l1,.49c-.79,1.1-1.77,2.39-2.73,3.52v.29l3.09-1.43v1.76L127,254.88v2.34a2.22,2.22,0,0,1-.79,2,9,9,0,0,1-2.53,1.28,4.19,4.19,0,0,0-.63-1.52c.7-.25,1.47-.56,1.7-.65s.3-.18.3-.36v-2.14c-1.15.55-2.23,1-3.14,1.47l-.2-1.77L125,254v-1.19l.53-.21c.3-.37.61-.82.91-1.27l-4,1.58v-1.71l5.44-2.13H127a24.31,24.31,0,0,0,1.47-3.49Zm-.25-1.2a58.91,58.91,0,0,1-7.8,4,3.94,3.94,0,0,0-.48-1.4,59.48,59.48,0,0,0,7.11-3.75Zm-7.43,6.73a7.82,7.82,0,0,0-.71-2l1.48-1a7.5,7.5,0,0,1,.78,1.95Zm2.44-1.34a9.24,9.24,0,0,0-.38-2.2l1.57-.82a7.34,7.34,0,0,1,.46,2.11Zm9.7,4.42c.52-.2.6-.87.7-3.46a4.49,4.49,0,0,0,1.83.18c-.18,3.06-.63,4.4-2.35,5.07l-1.93.76c-1.78.7-2.3.21-2.3-2V242.76l2-.8v11.92c0,.9.09,1,.58.81Z"/><polygon class="cls-3" points="139.18 200.89 55.06 233.21 55.06 147.54 139.18 116.3 139.18 200.89"/><path class="cls-3" d="M123.29,150.7c0,5.43-4.45,11.51-9.93,13.58s-9.94-.67-9.94-6.12,4.45-11.53,9.94-13.58S123.29,145.27,123.29,150.7Z"/><line class="cls-3" x1="122.11" y1="146.13" x2="127.97" y2="140.59"/><line class="cls-3" x1="122.11" y1="156.14" x2="127.97" y2="157.28"/><line class="cls-3" x1="113.36" y1="164.45" x2="113.36" y2="171.16"/><line class="cls-3" x1="104.6" y1="162.74" x2="98.74" y2="168.3"/><line class="cls-3" x1="104.6" y1="152.7" x2="98.74" y2="151.54"/><line class="cls-3" x1="113.36" y1="144.41" x2="113.36" y2="137.7"/><path class="cls-3" d="M125,186.66a3.58,3.58,0,0,1,1.25,2.91,8.57,8.57,0,0,1-5.32,7.29,4.28,4.28,0,0,1-3.71-.08,9,9,0,0,1-4.83,4.9c-2.49.95-4.59,0-5.16-2a8.31,8.31,0,0,1-3.17,2.26c-2.94,1.12-5.32-.33-5.32-3.25a8.24,8.24,0,0,1,2.78-5.7,3.72,3.72,0,0,1-.91-2.61,8.55,8.55,0,0,1,5.31-7.29,4.44,4.44,0,0,1,3.29-.12,8.89,8.89,0,0,1,4.73-4.67c2.48-.94,4.57,0,5.16,2a8.53,8.53,0,0,1,3.56-2.7c2.93-1.12,5.31.34,5.31,3.24A8.24,8.24,0,0,1,125,186.66Z"/><path class="cls-3" d="M90.09,185.88a3.6,3.6,0,0,1,1.25,2.92A8.56,8.56,0,0,1,86,196.11a4.22,4.22,0,0,1-3.72-.1,8.88,8.88,0,0,1-4.83,4.91c-2.49,1-4.59,0-5.16-2a8.39,8.39,0,0,1-3.17,2.25c-2.94,1.12-5.32-.36-5.32-3.29a8.23,8.23,0,0,1,2.78-5.71,3.79,3.79,0,0,1-.91-2.63A8.57,8.57,0,0,1,71,182.17a4.48,4.48,0,0,1,3.29-.1A8.82,8.82,0,0,1,79,177.4c2.48-.93,4.57,0,5.16,2a8.37,8.37,0,0,1,3.56-2.7c2.93-1.11,5.31.36,5.31,3.27A8.27,8.27,0,0,1,90.09,185.88Z"/><path class="cls-1" d="M103.85,94.19a4.08,4.08,0,0,1,3.37,2.27c.94,2.43-1.64,5.69-5.75,7.28s-8.21.91-9.14-1.52c-.83-2.14,1-4.9,4.31-6.62"/><path class="cls-1" d="M165.58,1.64,104.71,25.13s-8.07,2.3-8.07,10.72v68.73"/><path class="cls-1" d="M168.49,8.25,107.23,31.89s-3.37,1-3.37,4v66.68"/><ellipse class="cls-1" cx="166.9" cy="5.04" rx="2.7" ry="3.64" transform="translate(9.12 59.69) rotate(-20.84)"/></g></g></svg>