<svg width="226" height="302" viewBox="0 0 226 302" fill="none" xmlns="http://www.w3.org/2000/svg">
<g clip-path="url(#clip0_67_209)">
<path d="M86.26 207.85C86.26 209.6 84.19 211.23 80.57 212.63C73.25 215.49 59.57 217.42 43.88 217.42C28.19 217.42 14.52 215.49 7.18 212.63C3.57 211.23 1.5 209.63 1.5 207.85C1.5 202.57 20.5 198.28 43.88 198.28C67.26 198.28 86.26 202.57 86.26 207.85Z" stroke="#EEEEEE" stroke-width="3" stroke-miterlimit="10"/>
<path d="M86.26 234C86.26 235.74 84.19 237.38 80.57 238.78C73.24 241.64 59.57 243.56 43.88 243.56C28.19 243.56 14.52 241.64 7.18 238.78C3.57 237.38 1.5 235.78 1.5 234C1.5 228.72 20.5 224.43 43.88 224.43C67.26 224.43 86.26 228.71 86.26 234Z" stroke="#EEEEEE" stroke-width="3" stroke-miterlimit="10"/>
<path d="M86.26 271.36V290.5C86.26 292.24 84.19 293.87 80.57 295.28C73.24 298.14 59.57 300.07 43.88 300.07C28.19 300.07 14.52 298.14 7.18 295.28C3.57 293.87 1.5 292.28 1.5 290.5V271.36C1.5 273.11 3.57 274.74 7.18 276.15C14.52 279 28.18 280.93 43.88 280.93C59.58 280.93 73.24 279 80.57 276.15C84.19 274.74 86.26 273.11 86.26 271.36Z" stroke="#EEEEEE" stroke-width="3" stroke-miterlimit="10"/>
<path d="M1.5 233.99V207.86" stroke="#EEEEEE" stroke-width="3" stroke-miterlimit="10"/>
<path d="M86.26 234V271.37C86.26 273.12 84.19 274.75 80.57 276.16C73.24 279.01 59.57 280.94 43.88 280.94C28.19 280.94 14.52 279 7.18 276.15C3.57 274.74 1.5 273.15 1.5 271.36V234C1.5 235.74 3.57 237.38 7.18 238.78C14.52 241.64 28.18 243.56 43.88 243.56C59.58 243.56 73.24 241.64 80.57 238.78C84.19 237.37 86.26 235.73 86.26 234Z" stroke="#EEEEEE" stroke-width="3" stroke-miterlimit="10"/>
<path d="M86.26 233.99V207.86" stroke="#EEEEEE" stroke-width="3" stroke-miterlimit="10"/>
<path d="M224.43 288.79C224.43 290.79 221.86 292.64 217.37 294.25C208.28 297.5 191.3 299.7 171.86 299.7C152.42 299.7 135.43 297.5 126.33 294.25C121.85 292.64 119.33 290.79 119.33 288.79C119.33 282.79 142.86 277.88 171.9 277.88C200.94 277.88 224.43 282.77 224.43 288.79Z" stroke="#EEEEEE" stroke-width="3" stroke-miterlimit="10"/>
<path d="M119.29 288.79V88.55" stroke="#EEEEEE" stroke-width="3" stroke-miterlimit="10"/>
<path d="M224.43 288.79V88.55" stroke="#EEEEEE" stroke-width="3" stroke-miterlimit="10"/>
<path d="M183.12 3.84C183.12 4.26 182.57 4.66 181.6 5C178.431 5.8771 175.147 6.27153 171.86 6.17C168.57 6.27132 165.283 5.8769 162.11 5C161.11 4.66 160.6 4.26 160.6 3.84C160.6 2.55 165.6 1.5 171.86 1.5C178.12 1.5 183.12 2.55 183.12 3.84Z" stroke="#EEEEEE" stroke-width="3" stroke-miterlimit="10"/>
<path d="M183.12 18.8199C183.12 19.2399 182.57 19.6399 181.6 19.9899C178.429 20.8576 175.146 21.2486 171.86 21.1499C168.571 21.2518 165.285 20.8642 162.11 19.9999C161.11 19.6499 160.6 19.2499 160.6 18.8299" stroke="#EEEEEE" stroke-width="3" stroke-miterlimit="10"/>
<path d="M160.6 18.82V3.83997" stroke="#EEEEEE" stroke-width="3" stroke-miterlimit="10"/>
<path d="M183.12 18.82V3.83997" stroke="#EEEEEE" stroke-width="3" stroke-miterlimit="10"/>
<path d="M119.29 88.55C119.29 66.03 155.18 58.37 161.08 34.85C161.995 30.3442 162.354 25.7433 162.15 21.15" stroke="#EEEEEE" stroke-width="3" stroke-miterlimit="10"/>
<path d="M224.43 88.55C224.43 66.03 188.53 58.37 182.63 34.85C181.72 30.3435 181.361 25.7432 181.56 21.15" stroke="#EEEEEE" stroke-width="3" stroke-miterlimit="10"/>
<path d="M224.43 114.16V244.31C224.43 247.01 221.86 249.54 217.37 251.73C208.28 256.15 191.3 259.14 171.86 259.14C152.42 259.14 135.43 256.14 126.33 251.73C121.85 249.54 119.33 247.01 119.33 244.31V114.16C119.33 116.88 121.89 119.4 126.33 121.58C135.43 126.02 152.41 128.99 171.86 128.99C191.31 128.99 208.28 125.99 217.37 121.58C221.86 119.4 224.43 116.88 224.43 114.16Z" fill="#EEEEEE" stroke="#EEEEEE" stroke-width="3" stroke-miterlimit="10"/>
<path d="M170.54 195.75C170.41 197.56 170.3 199.1 170.17 200.37H172.29V203.11H169.79C169.677 204.17 169.336 205.194 168.79 206.11C168.521 206.501 168.164 206.823 167.746 207.049C167.329 207.275 166.864 207.399 166.39 207.41C165.122 207.519 163.848 207.519 162.58 207.41C162.521 206.594 162.29 205.8 161.9 205.08C162.96 205.175 164.025 205.212 165.09 205.19C165.309 205.232 165.536 205.204 165.738 205.111C165.941 205.018 166.109 204.864 166.22 204.67C166.518 204.174 166.724 203.629 166.83 203.06H156.57L156.36 204.5L153.36 204.3C153.77 202 154.18 198.92 154.59 195.7H152.59V194.7L151.09 196.76C150.64 195.66 149.65 193.76 148.76 192.13V207.5H145.81V193C144.979 195.899 143.744 198.666 142.14 201.22C141.733 200.259 141.231 199.341 140.64 198.48C142.64 195.67 144.64 190.6 145.54 186.25H141.36V183.3H145.81V176.07H148.76V183.3H152.35V185.15C154.554 182.479 156.141 179.355 157 176L160.12 176.72C159.776 177.928 159.365 179.117 158.89 180.28H171.89V183H157.59C157.08 184 156.53 184.85 155.98 185.68H170.98V187.05C170.92 189.2 170.81 191.05 170.74 192.8H172.66V195.75H170.54ZM155 192.8C155.27 190.51 155.51 188.21 155.68 186.15C155.3 186.67 154.93 187.15 154.55 187.56C153.875 187.006 153.153 186.514 152.39 186.09V186.26H148.8V188.42C149.65 189.55 151.8 192.84 152.63 194.14V192.8H155ZM157.53 195.75C157.33 197.36 157.15 198.93 156.98 200.37H160.68C160.82 199 160.99 197.43 161.13 195.75H157.53ZM158.28 188.42C158.15 189.85 158.01 191.33 157.84 192.8H161.4C161.5 191.29 161.61 189.8 161.71 188.42H158.28ZM167.28 200.42C167.42 199.19 167.56 197.68 167.7 195.8H163.86C163.72 197.48 163.55 199.05 163.41 200.42H167.28ZM167.87 192.85C167.93 191.51 168 190.08 168.07 188.47H164.41C164.3 189.87 164.2 191.38 164.1 192.85H167.87Z" fill="#1F1F1F"/>
<path d="M180.68 191.4C179.41 190.54 176.84 189.03 174.99 188.04L176.77 185.68C178.55 186.57 181.19 187.9 182.53 188.76L180.68 191.4ZM175.61 205.2C177.602 201.634 179.398 197.962 180.99 194.2L183.52 196.02C182.05 199.65 180.13 203.83 178.45 207.02L175.61 205.2ZM178 176.67C179.72 177.59 182.29 179.03 183.59 179.92L181.67 182.49C180.47 181.56 177.97 180.02 176.19 178.96L178 176.67ZM199.11 180.84V184.84H205.27V207.41H202.22V206H187.8V207.54H184.89V184.82H190.55V180.82H183.83V177.91H206.3V180.82L199.11 180.84ZM199.11 194.38C196.75 194.38 196.16 193.69 196.16 191.19V187.59H193.56V188.66C193.595 190.148 193.195 191.614 192.41 192.878C191.625 194.143 190.489 195.151 189.14 195.78C188.746 195.319 188.322 194.885 187.87 194.48V197.19H202.26V194.38H199H199.11ZM187.87 187.59V193.69C190.51 192.15 191.1 190.27 191.1 188.62V187.62L187.87 187.59ZM202.26 203.18V199.89H187.8V203.18H202.26ZM196.26 180.84H193.41V184.84H196.26V180.84ZM202.26 187.59H198.6V191.16C198.6 191.77 198.66 191.84 199.35 191.84H201.61C201.806 191.854 202.003 191.83 202.19 191.77L202.26 187.59Z" fill="#1F1F1F"/>
<path d="M26.46 249.95L34.33 257.14L32.03 267.55L21.87 270.77L14 263.57L16.3 253.16L26.46 249.95Z" stroke="#EEEEEE" stroke-width="3" stroke-linecap="square" stroke-linejoin="round"/>
<path d="M26.46 249.95L24.16 260.36L14 263.57L16.3 253.16L26.46 249.95Z" stroke="#EEEEEE" stroke-width="3" stroke-linecap="square" stroke-linejoin="round"/>
<path d="M24.17 260.35L31.8 267.34" stroke="#EEEEEE" stroke-width="3" stroke-linecap="square" stroke-linejoin="round"/>
<path d="M69.97 253.6L70.22 264.25L61.12 269.8L51.76 264.69L51.51 254.03L60.62 248.48L69.97 253.6Z" stroke="#EEEEEE" stroke-width="3" stroke-linecap="square" stroke-linejoin="round"/>
<path d="M69.97 253.6L60.87 259.14L51.51 254.03L60.62 248.48L69.97 253.6Z" stroke="#EEEEEE" stroke-width="3" stroke-linecap="square" stroke-linejoin="round"/>
<path d="M60.87 259.14L61.11 269.48" stroke="#EEEEEE" stroke-width="3" stroke-linecap="square" stroke-linejoin="round"/>
</g>
<defs>
<clipPath id="clip0_67_209">
<rect width="225.93" height="301.57" fill="white"/>
</clipPath>
</defs>
</svg>
