<svg xmlns="http://www.w3.org/2000/svg" viewBox="0 0 225.93 301.57"><defs><style>.cls-1,.cls-4{fill:none;}.cls-1,.cls-2,.cls-4{stroke:#1f1f1f;stroke-width:3px;}.cls-1,.cls-2{stroke-miterlimit:10;}.cls-2{fill:#1f1f1f;}.cls-3{fill:#f6f2eb;}.cls-4{stroke-linecap:square;stroke-linejoin:round;}</style></defs><g id="Layer_2" data-name="Layer 2"><g id="Layer_1-2" data-name="Layer 1"><path class="cls-1" d="M86.26,207.85c0,1.75-2.07,3.38-5.69,4.78-7.32,2.86-21,4.79-36.69,4.79s-29.36-1.93-36.7-4.79c-3.61-1.4-5.68-3-5.68-4.78,0-5.28,19-9.57,42.38-9.57S86.26,202.57,86.26,207.85Z"/><path class="cls-1" d="M86.26,234c0,1.74-2.07,3.38-5.69,4.78-7.33,2.86-21,4.78-36.69,4.78s-29.36-1.92-36.7-4.78c-3.61-1.4-5.68-3-5.68-4.78,0-5.28,19-9.57,42.38-9.57S86.26,228.71,86.26,234Z"/><path class="cls-1" d="M86.26,271.36V290.5c0,1.74-2.07,3.37-5.69,4.78-7.33,2.86-21,4.79-36.69,4.79s-29.36-1.93-36.7-4.79c-3.61-1.41-5.68-3-5.68-4.78V271.36c0,1.75,2.07,3.38,5.68,4.79,7.34,2.85,21,4.78,36.7,4.78s29.36-1.93,36.69-4.78C84.19,274.74,86.26,273.11,86.26,271.36Z"/><line class="cls-1" x1="1.5" y1="233.99" x2="1.5" y2="207.86"/><path class="cls-1" d="M86.26,234v37.37c0,1.75-2.07,3.38-5.69,4.79-7.33,2.85-21,4.78-36.69,4.78S14.52,279,7.18,276.15c-3.61-1.41-5.68-3-5.68-4.79V234c0,1.74,2.07,3.38,5.68,4.78,7.34,2.86,21,4.78,36.7,4.78s29.36-1.92,36.69-4.78C84.19,237.37,86.26,235.73,86.26,234Z"/><line class="cls-1" x1="86.26" y1="233.99" x2="86.26" y2="207.86"/><path class="cls-1" d="M224.43,288.79c0,2-2.57,3.85-7.06,5.46-9.09,3.25-26.07,5.45-45.51,5.45s-36.43-2.2-45.53-5.45c-4.48-1.61-7-3.46-7-5.46,0-6,23.53-10.91,52.57-10.91S224.43,282.77,224.43,288.79Z"/><line class="cls-1" x1="119.29" y1="288.79" x2="119.29" y2="88.55"/><line class="cls-1" x1="224.43" y1="288.79" x2="224.43" y2="88.55"/><path class="cls-1" d="M183.12,3.84c0,.42-.55.82-1.52,1.16a32.73,32.73,0,0,1-9.74,1.17A32.81,32.81,0,0,1,162.11,5c-1-.34-1.51-.74-1.51-1.16,0-1.29,5-2.34,11.26-2.34S183.12,2.55,183.12,3.84Z"/><path class="cls-1" d="M183.12,18.82c0,.42-.55.82-1.52,1.17a33.14,33.14,0,0,1-9.74,1.16A33.21,33.21,0,0,1,162.11,20c-1-.35-1.51-.75-1.51-1.17"/><line class="cls-1" x1="160.6" y1="18.82" x2="160.6" y2="3.84"/><line class="cls-1" x1="183.12" y1="18.82" x2="183.12" y2="3.84"/><path class="cls-1" d="M119.29,88.55c0-22.52,35.89-30.18,41.79-53.7a56.27,56.27,0,0,0,1.07-13.7"/><path class="cls-1" d="M224.43,88.55c0-22.52-35.9-30.18-41.8-53.7a56.77,56.77,0,0,1-1.07-13.7"/><path class="cls-2" d="M224.43,114.16V244.31c0,2.7-2.57,5.23-7.06,7.42-9.09,4.42-26.07,7.41-45.51,7.41s-36.43-3-45.53-7.41c-4.48-2.19-7-4.72-7-7.42V114.16c0,2.72,2.56,5.24,7,7.42,9.1,4.44,26.08,7.41,45.53,7.41s36.42-3,45.51-7.41C221.86,119.4,224.43,116.88,224.43,114.16Z"/><path class="cls-3" d="M170.54,195.75c-.13,1.81-.24,3.35-.37,4.62h2.12v2.74h-2.5a7.4,7.4,0,0,1-1,3,3,3,0,0,1-2.4,1.3,22.23,22.23,0,0,1-3.81,0,5.76,5.76,0,0,0-.68-2.33,28.86,28.86,0,0,0,3.19.11,1.07,1.07,0,0,0,1.13-.52,4.86,4.86,0,0,0,.61-1.61H156.57l-.21,1.44-3-.2c.41-2.3.82-5.38,1.23-8.6h-2v-1l-1.5,2.06c-.45-1.1-1.44-3-2.33-4.63V207.5h-2.95V193a32.06,32.06,0,0,1-3.67,8.22,15.58,15.58,0,0,0-1.5-2.74c2-2.81,4-7.88,4.9-12.23h-4.18v-2.95h4.45v-7.23h2.95v7.23h3.59v1.85A23.56,23.56,0,0,0,157,176l3.12.72a34.08,34.08,0,0,1-1.23,3.56h13V183H157.59c-.51,1-1.06,1.85-1.61,2.68h15v1.37c-.06,2.15-.17,4-.24,5.75h1.92v2.95ZM155,192.8c.27-2.29.51-4.59.68-6.65-.38.52-.75,1-1.13,1.41a14.59,14.59,0,0,0-2.16-1.47v.17h-3.59v2.16c.85,1.13,3,4.42,3.83,5.72V192.8Zm2.53,2.95c-.2,1.61-.38,3.18-.55,4.62h3.7c.14-1.37.31-2.94.45-4.62Zm.75-7.33c-.13,1.43-.27,2.91-.44,4.38h3.56c.1-1.51.21-3,.31-4.38Zm9,12c.14-1.23.28-2.74.42-4.62h-3.84c-.14,1.68-.31,3.25-.45,4.62Zm.59-7.57c.06-1.34.13-2.77.2-4.38h-3.66c-.11,1.4-.21,2.91-.31,4.38Z"/><path class="cls-3" d="M180.68,191.4c-1.27-.86-3.84-2.37-5.69-3.36l1.78-2.36c1.78.89,4.42,2.22,5.76,3.08Zm-5.07,13.8a112.39,112.39,0,0,0,5.38-11l2.53,1.82c-1.47,3.63-3.39,7.81-5.07,11ZM178,176.67c1.72.92,4.29,2.36,5.59,3.25l-1.92,2.57c-1.2-.93-3.7-2.47-5.48-3.53Zm21.11,4.17v4h6.16v22.57h-3.05V206H187.8v1.54h-2.91V184.82h5.66v-4h-6.72v-2.91H206.3v2.91Zm0,13.54c-2.36,0-2.95-.69-2.95-3.19v-3.6h-2.6v1.07a7.66,7.66,0,0,1-4.42,7.12,13.61,13.61,0,0,0-1.27-1.3v2.71h14.39v-2.81H199Zm-11.24-6.79v6.1c2.64-1.54,3.23-3.42,3.23-5.07v-1Zm14.39,15.59v-3.29H187.8v3.29Zm-6-22.34h-2.85v4h2.85Zm6,6.75H198.6v3.57c0,.61.06.68.75.68h2.26a1.53,1.53,0,0,0,.58-.07Z"/><polygon class="cls-4" points="26.46 249.95 34.33 257.14 32.03 267.55 21.87 270.77 14 263.57 16.3 253.16 26.46 249.95"/><polygon class="cls-4" points="26.46 249.95 24.16 260.36 14 263.57 16.3 253.16 26.46 249.95"/><line class="cls-4" x1="24.17" y1="260.35" x2="31.8" y2="267.34"/><polygon class="cls-4" points="69.97 253.6 70.22 264.25 61.12 269.8 51.76 264.69 51.51 254.03 60.62 248.48 69.97 253.6"/><polygon class="cls-4" points="69.97 253.6 60.87 259.14 51.51 254.03 60.62 248.48 69.97 253.6"/><line class="cls-4" x1="60.87" y1="259.14" x2="61.11" y2="269.48"/></g></g></svg>