<svg xmlns="http://www.w3.org/2000/svg" viewBox="0 0 122.18 250.8"><defs><style>.cls-1,.cls-2{fill:none;}.cls-1,.cls-2,.cls-3{stroke:#1f1f1f;stroke-width:3px;}.cls-1,.cls-3{stroke-miterlimit:10;}.cls-2{stroke-linejoin:round;}.cls-3,.cls-4{fill:#1f1f1f;}</style></defs><g id="Layer_2" data-name="Layer 2"><g id="Layer_1-2" data-name="Layer 1"><path class="cls-1" d="M100.15,29.38,119.29,72a4.23,4.23,0,0,1,1.39,2.91,3.3,3.3,0,0,1-.17,1,4.71,4.71,0,0,1-1,1.61c-1.3,1.46-3.63,2.84-6.84,4.09-10.3,4-29.55,6.72-51.6,6.72S19.81,85.63,9.49,81.6A21.86,21.86,0,0,1,3.6,78.41h0A4.77,4.77,0,0,1,1.5,74.88l1.21-2.71v0L21.55,29.38"/><path class="cls-1" d="M2.71,72.17,1.5,74.88A4.06,4.06,0,0,1,2.71,72.17Z"/><path class="cls-2" d="M120.68,152.57v83.27c0,2.45-2.91,4.75-8,6.72-10.3,4-29.54,6.74-51.58,6.74s-41.29-2.72-51.61-6.74c-5.07-2-8-4.27-8-6.72V152.57c0,2.46,2.91,4.75,8,6.74,10.32,4,29.57,6.7,51.61,6.7s41.28-2.7,51.58-6.7C117.77,157.32,120.68,155,120.68,152.57Z"/><path class="cls-1" d="M120.6,153.26c-16.27-14.79-4.29-37.66-1.07-43.18"/><path class="cls-1" d="M2.57,110.08c3.22,5.52,15.64,27.77-1.06,43.18"/><path class="cls-1" d="M120.68,74.88v32.57a3.24,3.24,0,0,1-.17,1,4.75,4.75,0,0,1-1,1.62c-1.3,1.46-3.63,2.84-6.84,4.09-10.3,4-29.55,6.72-51.6,6.72s-41.28-2.7-51.6-6.72A22.43,22.43,0,0,1,3.6,111l0,0a4.75,4.75,0,0,1-2.08-3.51V74.88A4.77,4.77,0,0,0,3.58,78.4h0A21.86,21.86,0,0,0,9.49,81.6c10.32,4,29.55,6.72,51.6,6.72s41.3-2.69,51.6-6.72c3.21-1.25,5.54-2.63,6.84-4.09a4.71,4.71,0,0,0,1-1.61A3.3,3.3,0,0,0,120.68,74.88Z"/><path class="cls-3" d="M120.68,85.1V97.23a3.24,3.24,0,0,1-.17,1,4.66,4.66,0,0,1-1,1.62c-1.3,1.46-3.63,2.84-6.84,4.09-10.3,4-29.55,6.72-51.6,6.72S19.81,108,9.49,104a22.43,22.43,0,0,1-5.89-3.19l0,0A4.75,4.75,0,0,1,1.5,97.23V85.1a4.79,4.79,0,0,0,2.08,3.52h0a22.14,22.14,0,0,0,5.89,3.19c10.32,4,29.55,6.72,51.6,6.72s41.3-2.7,51.6-6.72c3.21-1.25,5.54-2.63,6.84-4.09a4.66,4.66,0,0,0,1-1.62A3.2,3.2,0,0,0,120.68,85.1Z"/><line class="cls-1" x1="93.43" y1="14.44" x2="93.37" y2="14.3"/><line class="cls-1" x1="120.59" y1="74.88" x2="119.29" y2="71.97"/><path class="cls-4" d="M35,198.6c.16.54.39,1.22.61,2,2.93-.5,6.15-1.07,7.21-1.29a6.67,6.67,0,0,0,1.38-.39l2.26,1.5a36.39,36.39,0,0,1-5.09,7l-3.17-1.35a17.43,17.43,0,0,0,3.48-3.8c-.63.09-2.81.5-5.25.94.91,3,1.91,6.34,2.34,7.65.14.41.51,1.42.71,1.9l-3.67.78a20.61,20.61,0,0,0-.51-2.07c-.38-1.2-1.34-4.58-2.23-7.61-1.92.37-3.61.7-4.36.87l-.86-3c.84-.07,1.61-.14,2.45-.25.3-.06,1-.17,2-.32-.22-.74-.41-1.36-.57-1.83a7.27,7.27,0,0,0-.73-1.75l3.6-.74A14.55,14.55,0,0,0,35,198.6Z"/><path class="cls-4" d="M54.12,199.53H57.4a8.79,8.79,0,0,0,2-.24l2.51,1.4a8.22,8.22,0,0,0-.8,1.51,18.71,18.71,0,0,1-3.52,6.06,19.56,19.56,0,0,1-8.27,5.32l-2.93-2.36c4.4-1.22,6.52-2.79,8.25-4.54a11.66,11.66,0,0,0,2.69-4.62H52.27a24.62,24.62,0,0,1-5.13,4.41l-2.77-1.86a17.64,17.64,0,0,0,6.33-5.79,9.51,9.51,0,0,0,1.08-2.19l3.6,1.07A21.12,21.12,0,0,0,54.12,199.53Z"/><path class="cls-4" d="M63.47,207c.57-1.52.59-4.91.59-7.22a6.64,6.64,0,0,0-.23-1.91h3.63a12.78,12.78,0,0,0-.17,1.87,38.5,38.5,0,0,1-.59,8,11,11,0,0,1-3.64,5.43l-3-1.81A8.54,8.54,0,0,0,63.47,207Zm6.25,3.2V199.58a8.61,8.61,0,0,0-.19-1.72H73.2A9.94,9.94,0,0,0,73,199.6v9.09a11.19,11.19,0,0,0,4.53-3.53l1.89,2.48a23.24,23.24,0,0,1-6.88,5,6.5,6.5,0,0,0-1,.61l-2.06-1.53A6.51,6.51,0,0,0,69.72,210.19Z"/><path class="cls-4" d="M81.91,199.75a11.91,11.91,0,0,0-.24-2.4h3.85a20.05,20.05,0,0,0-.21,2.4v2.53a71.2,71.2,0,0,1,8.41,2.79l-1.4,3.12a67.19,67.19,0,0,0-7-2.64v4.75c0,.5.13,1.95.23,2.79H81.67a19.35,19.35,0,0,0,.24-2.79Z"/><ellipse class="cls-1" cx="60.78" cy="205.1" rx="47.36" ry="18.56"/><path class="cls-2" d="M96.17,9.47a2.33,2.33,0,0,1-.08.59,2.78,2.78,0,0,1-.59,1,10.68,10.68,0,0,1-4,2.42c-4,1.54-10.21,2.77-17.69,3.41-4,.36-8.28.55-12.78.55s-8.76-.19-12.7-.53c-7.52-.66-13.78-1.89-17.8-3.43A12.92,12.92,0,0,1,27,11.54h0a2.78,2.78,0,0,1-1.23-2.07c0-4.4,15.75-8,35.21-8C80.11,1.5,95.66,5,96.14,9.25A.58.58,0,0,1,96.17,9.47Z"/><path class="cls-2" d="M103.41,26a2.57,2.57,0,0,1-.11.72,3.7,3.7,0,0,1-.7,1.14,9,9,0,0,1-2.35,1.76,21.66,21.66,0,0,1-2.52,1.15c-7.31,2.85-21,4.77-36.64,4.77s-29.33-1.92-36.66-4.77a20,20,0,0,1-2.88-1.38,9.08,9.08,0,0,1-1.29-.9h0A3.33,3.33,0,0,1,18.77,26l.76-1.81L25.78,9.47A2.78,2.78,0,0,0,27,11.54h0a12.92,12.92,0,0,0,3.47,1.9c4,1.54,10.28,2.77,17.8,3.43,3.94.34,8.22.53,12.7.53s8.82-.19,12.78-.55c7.48-.64,13.7-1.87,17.69-3.41a10.68,10.68,0,0,0,4-2.42,2.78,2.78,0,0,0,.59-1,2.33,2.33,0,0,0,.08-.59.58.58,0,0,0,0-.22l6.48,14.92Z"/><path class="cls-2" d="M103.41,26l-.79-1.82a2.83,2.83,0,0,1,.75,1.57A.55.55,0,0,1,103.41,26Z"/><path class="cls-2" d="M19.53,24.18,18.77,26A2.77,2.77,0,0,1,19.53,24.18Z"/></g></g></svg>